0
SECTION
2
HEADER
9
$ACADVER
1
AC1015
0
ENDSEC
0
SECTION
2
ENTITIES
0
LWPOLYLINE
8
PLOTS
90
4
70
1
10
0
20
0
10
20
20
0
10
20
20
40
10
0
20
40
0
TEXT
8
TEXT
10
10
20
20
40
2.5
1
1
0
LWPOLYLINE
8
PLOTS
90
4
70
1
10
25
20
0
10
45
20
0
10
45
20
40
10
25
20
40
0
TEXT
8
TEXT
10
35
20
20
40
2.5
1
2
0
LWPOLYLINE
8
PLOTS
90
4
70
1
10
50
20
0
10
70
20
0
10
70
20
40
10
50
20
40
0
TEXT
8
TEXT
10
60
20
20
40
2.5
1
3
0
LWPOLYLINE
8
PLOTS
90
4
70
1
10
75
20
0
10
95
20
0
10
95
20
40
10
75
20
40
0
TEXT
8
TEXT
10
85
20
20
40
2.5
1
4
0
LWPOLYLINE
8
PLOTS
90
4
70
1
10
100
20
0
10
120
20
0
10
120
20
40
10
100
20
40
0
TEXT
8
TEXT
10
110
20
20
40
2.5
1
5
0
LWPOLYLINE
8
PLOTS
90
4
70
1
10
125
20
0
10
145
20
0
10
145
20
40
10
125
20
40
0
TEXT
8
TEXT
10
135
20
20
40
2.5
1
6
0
LWPOLYLINE
8
PLOTS
90
4
70
1
10
150
20
0
10
170
20
0
10
170
20
40
10
150
20
40
0
TEXT
8
TEXT
10
160
20
20
40
2.5
1
7
0
LWPOLYLINE
8
PLOTS
90
4
70
1
10
175
20
0
10
195
20
0
10
195
20
40
10
175
20
40
0
TEXT
8
TEXT
10
185
20
20
40
2.5
1
8
0
LWPOLYLINE
8
PLOTS
90
4
70
1
10
200
20
0
10
220
20
0
10
220
20
40
10
200
20
40
0
TEXT
8
TEXT
10
210
20
20
40
2.5
1
9
0
LWPOLYLINE
8
PLOTS
90
4
70
1
10
225
20
0
10
245
20
0
10
245
20
40
10
225
20
40
0
TEXT
8
TEXT
10
235
20
20
40
2.5
1
10
0
LWPOLYLINE
8
PLOTS
90
4
70
1
10
0
20
45
10
20
20
45
10
20
20
85
10
0
20
85
0
TEXT
8
TEXT
10
10
20
65
40
2.5
1
11
0
LWPOLYLINE
8
PLOTS
90
4
70
1
10
25
20
45
10
45
20
45
10
45
20
85
10
25
20
85
0
TEXT
8
TEXT
10
35
20
65
40
2.5
1
12
0
LWPOLYLINE
8
PLOTS
90
4
70
1
10
50
20
45
10
70
20
45
10
70
20
85
10
50
20
85
0
TEXT
8
TEXT
10
60
20
65
40
2.5
1
13
0
LWPOLYLINE
8
PLOTS
90
4
70
1
10
75
20
45
10
95
20
45
10
95
20
85
10
75
20
85
0
TEXT
8
TEXT
10
85
20
65
40
2.5
1
14
0
LWPOLYLINE
8
PLOTS
90
4
70
1
10
100
20
45
10
120
20
45
10
120
20
85
10
100
20
85
0
TEXT
8
TEXT
10
110
20
65
40
2.5
1
15
0
LWPOLYLINE
8
PLOTS
90
4
70
1
10
125
20
45
10
145
20
45
10
145
20
85
10
125
20
85
0
TEXT
8
TEXT
10
135
20
65
40
2.5
1
16
0
LWPOLYLINE
8
PLOTS
90
4
70
1
10
150
20
45
10
170
20
45
10
170
20
85
10
150
20
85
0
TEXT
8
TEXT
10
160
20
65
40
2.5
1
17
0
LWPOLYLINE
8
PLOTS
90
4
70
1
10
175
20
45
10
195
20
45
10
195
20
85
10
175
20
85
0
TEXT
8
TEXT
10
185
20
65
40
2.5
1
18
0
LWPOLYLINE
8
PLOTS
90
4
70
1
10
200
20
45
10
220
20
45
10
220
20
85
10
200
20
85
0
TEXT
8
TEXT
10
210
20
65
40
2.5
1
19
0
LWPOLYLINE
8
PLOTS
90
4
70
1
10
225
20
45
10
245
20
45
10
245
20
85
10
225
20
85
0
TEXT
8
TEXT
10
235
20
65
40
2.5
1
20
0
LWPOLYLINE
8
PLOTS
90
4
70
1
10
0
20
90
10
20
20
90
10
20
20
130
10
0
20
130
0
TEXT
8
TEXT
10
10
20
110
40
2.5
1
21
0
LWPOLYLINE
8
PLOTS
90
4
70
1
10
25
20
90
10
45
20
90
10
45
20
130
10
25
20
130
0
TEXT
8
TEXT
10
35
20
110
40
2.5
1
22
0
LWPOLYLINE
8
PLOTS
90
4
70
1
10
50
20
90
10
70
20
90
10
70
20
130
10
50
20
130
0
TEXT
8
TEXT
10
60
20
110
40
2.5
1
23
0
LWPOLYLINE
8
PLOTS
90
4
70
1
10
75
20
90
10
95
20
90
10
95
20
130
10
75
20
130
0
TEXT
8
TEXT
10
85
20
110
40
2.5
1
24
0
LWPOLYLINE
8
PLOTS
90
4
70
1
10
100
20
90
10
120
20
90
10
120
20
130
10
100
20
130
0
TEXT
8
TEXT
10
110
20
110
40
2.5
1
25
0
LWPOLYLINE
8
PLOTS
90
4
70
1
10
125
20
90
10
145
20
90
10
145
20
130
10
125
20
130
0
TEXT
8
TEXT
10
135
20
110
40
2.5
1
26
0
LWPOLYLINE
8
PLOTS
90
4
70
1
10
150
20
90
10
170
20
90
10
170
20
130
10
150
20
130
0
TEXT
8
TEXT
10
160
20
110
40
2.5
1
27
0
LWPOLYLINE
8
PLOTS
90
4
70
1
10
175
20
90
10
195
20
90
10
195
20
130
10
175
20
130
0
TEXT
8
TEXT
10
185
20
110
40
2.5
1
28
0
LWPOLYLINE
8
PLOTS
90
4
70
1
10
200
20
90
10
220
20
90
10
220
20
130
10
200
20
130
0
TEXT
8
TEXT
10
210
20
110
40
2.5
1
29
0
LWPOLYLINE
8
PLOTS
90
4
70
1
10
225
20
90
10
245
20
90
10
245
20
130
10
225
20
130
0
TEXT
8
TEXT
10
235
20
110
40
2.5
1
30
0
LWPOLYLINE
8
PLOTS
90
4
70
1
10
0
20
135
10
20
20
135
10
20
20
175
10
0
20
175
0
TEXT
8
TEXT
10
10
20
155
40
2.5
1
31
0
LWPOLYLINE
8
PLOTS
90
4
70
1
10
25
20
135
10
45
20
135
10
45
20
175
10
25
20
175
0
TEXT
8
TEXT
10
35
20
155
40
2.5
1
32
0
LWPOLYLINE
8
PLOTS
90
4
70
1
10
50
20
135
10
70
20
135
10
70
20
175
10
50
20
175
0
TEXT
8
TEXT
10
60
20
155
40
2.5
1
33
0
LWPOLYLINE
8
PLOTS
90
4
70
1
10
75
20
135
10
95
20
135
10
95
20
175
10
75
20
175
0
TEXT
8
TEXT
10
85
20
155
40
2.5
1
34
0
LWPOLYLINE
8
PLOTS
90
4
70
1
10
100
20
135
10
120
20
135
10
120
20
175
10
100
20
175
0
TEXT
8
TEXT
10
110
20
155
40
2.5
1
35
0
LWPOLYLINE
8
PLOTS
90
4
70
1
10
125
20
135
10
145
20
135
10
145
20
175
10
125
20
175
0
TEXT
8
TEXT
10
135
20
155
40
2.5
1
36
0
LWPOLYLINE
8
PLOTS
90
4
70
1
10
150
20
135
10
170
20
135
10
170
20
175
10
150
20
175
0
TEXT
8
TEXT
10
160
20
155
40
2.5
1
37
0
LWPOLYLINE
8
PLOTS
90
4
70
1
10
175
20
135
10
195
20
135
10
195
20
175
10
175
20
175
0
TEXT
8
TEXT
10
185
20
155
40
2.5
1
38
0
LWPOLYLINE
8
PLOTS
90
4
70
1
10
200
20
135
10
220
20
135
10
220
20
175
10
200
20
175
0
TEXT
8
TEXT
10
210
20
155
40
2.5
1
39
0
LWPOLYLINE
8
PLOTS
90
4
70
1
10
225
20
135
10
245
20
135
10
245
20
175
10
225
20
175
0
TEXT
8
TEXT
10
235
20
155
40
2.5
1
40
0
LWPOLYLINE
8
PLOTS
90
4
70
1
10
0
20
180
10
20
20
180
10
20
20
220
10
0
20
220
0
TEXT
8
TEXT
10
10
20
200
40
2.5
1
41
0
LWPOLYLINE
8
PLOTS
90
4
70
1
10
25
20
180
10
45
20
180
10
45
20
220
10
25
20
220
0
TEXT
8
TEXT
10
35
20
200
40
2.5
1
42
0
LWPOLYLINE
8
PLOTS
90
4
70
1
10
50
20
180
10
70
20
180
10
70
20
220
10
50
20
220
0
TEXT
8
TEXT
10
60
20
200
40
2.5
1
43
0
LWPOLYLINE
8
PLOTS
90
4
70
1
10
75
20
180
10
95
20
180
10
95
20
220
10
75
20
220
0
TEXT
8
TEXT
10
85
20
200
40
2.5
1
44
0
LWPOLYLINE
8
PLOTS
90
4
70
1
10
100
20
180
10
120
20
180
10
120
20
220
10
100
20
220
0
TEXT
8
TEXT
10
110
20
200
40
2.5
1
45
0
LWPOLYLINE
8
PLOTS
90
4
70
1
10
125
20
180
10
145
20
180
10
145
20
220
10
125
20
220
0
TEXT
8
TEXT
10
135
20
200
40
2.5
1
46
0
LWPOLYLINE
8
PLOTS
90
4
70
1
10
150
20
180
10
170
20
180
10
170
20
220
10
150
20
220
0
TEXT
8
TEXT
10
160
20
200
40
2.5
1
47
0
LWPOLYLINE
8
PLOTS
90
4
70
1
10
175
20
180
10
195
20
180
10
195
20
220
10
175
20
220
0
TEXT
8
TEXT
10
185
20
200
40
2.5
1
48
0
LWPOLYLINE
8
PLOTS
90
4
70
1
10
200
20
180
10
220
20
180
10
220
20
220
10
200
20
220
0
TEXT
8
TEXT
10
210
20
200
40
2.5
1
49
0
LWPOLYLINE
8
PLOTS
90
4
70
1
10
225
20
180
10
245
20
180
10
245
20
220
10
225
20
220
0
TEXT
8
TEXT
10
235
20
200
40
2.5
1
50
0
LWPOLYLINE
8
PLOTS
90
4
70
1
10
0
20
225
10
20
20
225
10
20
20
265
10
0
20
265
0
TEXT
8
TEXT
10
10
20
245
40
2.5
1
51
0
LWPOLYLINE
8
PLOTS
90
4
70
1
10
25
20
225
10
45
20
225
10
45
20
265
10
25
20
265
0
TEXT
8
TEXT
10
35
20
245
40
2.5
1
52
0
LWPOLYLINE
8
PLOTS
90
4
70
1
10
50
20
225
10
70
20
225
10
70
20
265
10
50
20
265
0
TEXT
8
TEXT
10
60
20
245
40
2.5
1
53
0
LWPOLYLINE
8
PLOTS
90
4
70
1
10
75
20
225
10
95
20
225
10
95
20
265
10
75
20
265
0
TEXT
8
TEXT
10
85
20
245
40
2.5
1
54
0
LWPOLYLINE
8
PLOTS
90
4
70
1
10
100
20
225
10
120
20
225
10
120
20
265
10
100
20
265
0
TEXT
8
TEXT
10
110
20
245
40
2.5
1
55
0
LWPOLYLINE
8
PLOTS
90
4
70
1
10
125
20
225
10
145
20
225
10
145
20
265
10
125
20
265
0
TEXT
8
TEXT
10
135
20
245
40
2.5
1
56
0
LWPOLYLINE
8
PLOTS
90
4
70
1
10
150
20
225
10
170
20
225
10
170
20
265
10
150
20
265
0
TEXT
8
TEXT
10
160
20
245
40
2.5
1
57
0
LWPOLYLINE
8
PLOTS
90
4
70
1
10
175
20
225
10
195
20
225
10
195
20
265
10
175
20
265
0
TEXT
8
TEXT
10
185
20
245
40
2.5
1
58
0
LWPOLYLINE
8
PLOTS
90
4
70
1
10
200
20
225
10
220
20
225
10
220
20
265
10
200
20
265
0
TEXT
8
TEXT
10
210
20
245
40
2.5
1
59
0
LWPOLYLINE
8
PLOTS
90
4
70
1
10
225
20
225
10
245
20
225
10
245
20
265
10
225
20
265
0
TEXT
8
TEXT
10
235
20
245
40
2.5
1
60
0
LWPOLYLINE
8
PLOTS
90
4
70
1
10
0
20
270
10
20
20
270
10
20
20
310
10
0
20
310
0
TEXT
8
TEXT
10
10
20
290
40
2.5
1
61
0
LWPOLYLINE
8
PLOTS
90
4
70
1
10
25
20
270
10
45
20
270
10
45
20
310
10
25
20
310
0
TEXT
8
TEXT
10
35
20
290
40
2.5
1
62
0
LWPOLYLINE
8
PLOTS
90
4
70
1
10
50
20
270
10
70
20
270
10
70
20
310
10
50
20
310
0
TEXT
8
TEXT
10
60
20
290
40
2.5
1
63
0
LWPOLYLINE
8
PLOTS
90
4
70
1
10
75
20
270
10
95
20
270
10
95
20
310
10
75
20
310
0
TEXT
8
TEXT
10
85
20
290
40
2.5
1
64
0
LWPOLYLINE
8
PLOTS
90
4
70
1
10
100
20
270
10
120
20
270
10
120
20
310
10
100
20
310
0
TEXT
8
TEXT
10
110
20
290
40
2.5
1
65
0
LWPOLYLINE
8
PLOTS
90
4
70
1
10
125
20
270
10
145
20
270
10
145
20
310
10
125
20
310
0
TEXT
8
TEXT
10
135
20
290
40
2.5
1
66
0
LWPOLYLINE
8
PLOTS
90
4
70
1
10
150
20
270
10
170
20
270
10
170
20
310
10
150
20
310
0
TEXT
8
TEXT
10
160
20
290
40
2.5
1
67
0
LWPOLYLINE
8
PLOTS
90
4
70
1
10
175
20
270
10
195
20
270
10
195
20
310
10
175
20
310
0
TEXT
8
TEXT
10
185
20
290
40
2.5
1
68
0
LWPOLYLINE
8
PLOTS
90
4
70
1
10
200
20
270
10
220
20
270
10
220
20
310
10
200
20
310
0
TEXT
8
TEXT
10
210
20
290
40
2.5
1
69
0
LWPOLYLINE
8
PLOTS
90
4
70
1
10
225
20
270
10
245
20
270
10
245
20
310
10
225
20
310
0
TEXT
8
TEXT
10
235
20
290
40
2.5
1
70
0
LWPOLYLINE
8
PLOTS
90
4
70
1
10
0
20
315
10
20
20
315
10
20
20
355
10
0
20
355
0
TEXT
8
TEXT
10
10
20
335
40
2.5
1
71
0
LWPOLYLINE
8
PLOTS
90
4
70
1
10
25
20
315
10
45
20
315
10
45
20
355
10
25
20
355
0
TEXT
8
TEXT
10
35
20
335
40
2.5
1
72
0
LWPOLYLINE
8
PLOTS
90
4
70
1
10
50
20
315
10
70
20
315
10
70
20
355
10
50
20
355
0
TEXT
8
TEXT
10
60
20
335
40
2.5
1
73
0
LWPOLYLINE
8
PLOTS
90
4
70
1
10
75
20
315
10
95
20
315
10
95
20
355
10
75
20
355
0
TEXT
8
TEXT
10
85
20
335
40
2.5
1
74
0
LWPOLYLINE
8
PLOTS
90
4
70
1
10
100
20
315
10
120
20
315
10
120
20
355
10
100
20
355
0
TEXT
8
TEXT
10
110
20
335
40
2.5
1
75
0
LWPOLYLINE
8
PLOTS
90
4
70
1
10
125
20
315
10
145
20
315
10
145
20
355
10
125
20
355
0
TEXT
8
TEXT
10
135
20
335
40
2.5
1
76
0
LWPOLYLINE
8
PLOTS
90
4
70
1
10
150
20
315
10
170
20
315
10
170
20
355
10
150
20
355
0
TEXT
8
TEXT
10
160
20
335
40
2.5
1
77
0
LWPOLYLINE
8
PLOTS
90
4
70
1
10
175
20
315
10
195
20
315
10
195
20
355
10
175
20
355
0
TEXT
8
TEXT
10
185
20
335
40
2.5
1
78
0
LWPOLYLINE
8
PLOTS
90
4
70
1
10
200
20
315
10
220
20
315
10
220
20
355
10
200
20
355
0
TEXT
8
TEXT
10
210
20
335
40
2.5
1
79
0
LWPOLYLINE
8
PLOTS
90
4
70
1
10
225
20
315
10
245
20
315
10
245
20
355
10
225
20
355
0
TEXT
8
TEXT
10
235
20
335
40
2.5
1
80
0
LWPOLYLINE
8
PLOTS
90
4
70
1
10
0
20
360
10
20
20
360
10
20
20
400
10
0
20
400
0
TEXT
8
TEXT
10
10
20
380
40
2.5
1
81
0
LWPOLYLINE
8
PLOTS
90
4
70
1
10
25
20
360
10
45
20
360
10
45
20
400
10
25
20
400
0
TEXT
8
TEXT
10
35
20
380
40
2.5
1
82
0
LWPOLYLINE
8
PLOTS
90
4
70
1
10
50
20
360
10
70
20
360
10
70
20
400
10
50
20
400
0
TEXT
8
TEXT
10
60
20
380
40
2.5
1
83
0
LWPOLYLINE
8
PLOTS
90
4
70
1
10
75
20
360
10
95
20
360
10
95
20
400
10
75
20
400
0
TEXT
8
TEXT
10
85
20
380
40
2.5
1
84
0
LWPOLYLINE
8
PLOTS
90
4
70
1
10
100
20
360
10
120
20
360
10
120
20
400
10
100
20
400
0
TEXT
8
TEXT
10
110
20
380
40
2.5
1
85
0
LWPOLYLINE
8
PLOTS
90
4
70
1
10
125
20
360
10
145
20
360
10
145
20
400
10
125
20
400
0
TEXT
8
TEXT
10
135
20
380
40
2.5
1
86
0
LWPOLYLINE
8
PLOTS
90
4
70
1
10
150
20
360
10
170
20
360
10
170
20
400
10
150
20
400
0
TEXT
8
TEXT
10
160
20
380
40
2.5
1
87
0
LWPOLYLINE
8
PLOTS
90
4
70
1
10
175
20
360
10
195
20
360
10
195
20
400
10
175
20
400
0
TEXT
8
TEXT
10
185
20
380
40
2.5
1
88
0
LWPOLYLINE
8
PLOTS
90
4
70
1
10
200
20
360
10
220
20
360
10
220
20
400
10
200
20
400
0
TEXT
8
TEXT
10
210
20
380
40
2.5
1
89
0
LWPOLYLINE
8
PLOTS
90
4
70
1
10
225
20
360
10
245
20
360
10
245
20
400
10
225
20
400
0
TEXT
8
TEXT
10
235
20
380
40
2.5
1
90
0
LWPOLYLINE
8
PLOTS
90
4
70
1
10
0
20
405
10
20
20
405
10
20
20
445
10
0
20
445
0
TEXT
8
TEXT
10
10
20
425
40
2.5
1
91
0
LWPOLYLINE
8
PLOTS
90
4
70
1
10
25
20
405
10
45
20
405
10
45
20
445
10
25
20
445
0
TEXT
8
TEXT
10
35
20
425
40
2.5
1
92
0
LWPOLYLINE
8
PLOTS
90
4
70
1
10
50
20
405
10
70
20
405
10
70
20
445
10
50
20
445
0
TEXT
8
TEXT
10
60
20
425
40
2.5
1
93
0
LWPOLYLINE
8
PLOTS
90
4
70
1
10
75
20
405
10
95
20
405
10
95
20
445
10
75
20
445
0
TEXT
8
TEXT
10
85
20
425
40
2.5
1
94
0
LWPOLYLINE
8
PLOTS
90
4
70
1
10
100
20
405
10
120
20
405
10
120
20
445
10
100
20
445
0
TEXT
8
TEXT
10
110
20
425
40
2.5
1
95
0
LWPOLYLINE
8
PLOTS
90
4
70
1
10
125
20
405
10
145
20
405
10
145
20
445
10
125
20
445
0
TEXT
8
TEXT
10
135
20
425
40
2.5
1
96
0
LWPOLYLINE
8
PLOTS
90
4
70
1
10
150
20
405
10
170
20
405
10
170
20
445
10
150
20
445
0
TEXT
8
TEXT
10
160
20
425
40
2.5
1
97
0
LWPOLYLINE
8
PLOTS
90
4
70
1
10
175
20
405
10
195
20
405
10
195
20
445
10
175
20
445
0
TEXT
8
TEXT
10
185
20
425
40
2.5
1
98
0
LWPOLYLINE
8
PLOTS
90
4
70
1
10
200
20
405
10
220
20
405
10
220
20
445
10
200
20
445
0
TEXT
8
TEXT
10
210
20
425
40
2.5
1
99
0
LWPOLYLINE
8
PLOTS
90
4
70
1
10
225
20
405
10
245
20
405
10
245
20
445
10
225
20
445
0
TEXT
8
TEXT
10
235
20
425
40
2.5
1
100
0
ENDSEC
0
EOF
