999
libcadmapper 8520a52
  0
SECTION
  2
HEADER
  9
$ACADVER
  1
AC1018
  9
$ACADMAINTVER
 70
104
  9
$DWGCODEPAGE
  3
ANSI_1252
  9
$LASTSAVEDBY
  1
unknown
  9
$INSBASE
 10
0.0
 20
0.0
 30
0.0
  9
$EXTMIN
 10
1e+20
 20
1e+20
 30
1e+20
  9
$EXTMAX
 10
-1e+20
 20
-1e+20
 30
-1e+20
  9
$LIMMIN
 10
0.0
 20
0.0
  9
$LIMMAX
 10
12.0
 20
9.0
  9
$ORTHOMODE
 70
0
  9
$REGENMODE
 70
1
  9
$FILLMODE
 70
1
  9
$QTEXTMODE
 70
0
  9
$MIRRTEXT
 70
0
  9
$LTSCALE
 40
1.0
  9
$ATTMODE
 70
1
  9
$TEXTSIZE
 40
0.2
  9
$TRACEWID
 40
0.05
  9
$TEXTSTYLE
  7
Notes
  9
$CLAYER
  8
0
  9
$CELTYPE
  6
ByLayer
  9
$CECOLOR
 62
256
  9
$CELTSCALE
 40
1.0
  9
$DISPSILH
 70
0
  9
$DIMSCALE
 40
1.0
  9
$DIMASZ
 40
3.0
  9
$DIMEXO
 40
1.5
  9
$DIMDLI
 40
6.0
  9
$DIMRND
 40
0.0
  9
$DIMDLE
 40
0.0
  9
$DIMEXE
 40
3.0
  9
$DIMTP
 40
0.0
  9
$DIMTM
 40
0.0
  9
$DIMTXT
 40
3.0
  9
$DIMCEN
 40
3.0
  9
$DIMTSZ
 40
0.0
  9
$DIMTOL
 70
0
  9
$DIMLIM
 70
0
  9
$DIMTIH
 70
0
  9
$DIMTOH
 70
0
  9
$DIMSE1
 70
0
  9
$DIMSE2
 70
0
  9
$DIMTAD
 70
1
  9
$DIMZIN
 70
3
  9
$DIMBLK
  1

  9
$DIMASO
 70
1
  9
$DIMSHO
 70
1
  9
$DIMPOST
  1

  9
$DIMAPOST
  1

  9
$DIMALT
 70
0
  9
$DIMALTD
 70
2
  9
$DIMALTF
 40
25.4
  9
$DIMLFAC
 40
1.0
  9
$DIMTOFL
 70
0
  9
$DIMTVP
 40
0.0
  9
$DIMTIX
 70
0
  9
$DIMSOXD
 70
0
  9
$DIMSAH
 70
0
  9
$DIMBLK1
  1

  9
$DIMBLK2
  1

  9
$DIMSTYLE
  2
Civil-Metric
  9
$DIMCLRD
 70
0
  9
$DIMCLRE
 70
0
  9
$DIMCLRT
 70
0
  9
$DIMTFAC
 40
1.0
  9
$DIMGAP
 40
2.0
  9
$DIMJUST
 70
0
  9
$DIMSD1
 70
0
  9
$DIMSD2
 70
0
  9
$DIMTOLJ
 70
1
  9
$DIMTZIN
 70
0
  9
$DIMALTZ
 70
0
  9
$DIMALTTZ
 70
0
  9
$DIMUPT
 70
0
  9
$DIMDEC
 70
2
  9
$DIMTDEC
 70
2
  9
$DIMALTU
 70
2
  9
$DIMALTTD
 70
2
  9
$DIMTXSTY
  7
Standard
  9
$DIMAUNIT
 70
0
  9
$DIMADEC
 70
2
  9
$DIMALTRND
 40
0.0
  9
$DIMAZIN
 70
2
  9
$DIMDSEP
 70
46
  9
$DIMATFIT
 70
3
  9
$DIMFRAC
 70
1
  9
$DIMLDRBLK
  1

  9
$DIMLUNIT
 70
2
  9
$DIMLWD
 70
-2
  9
$DIMLWE
 70
-2
  9
$DIMTMOVE
 70
0
  9
$LUNITS
 70
2
  9
$LUPREC
 70
4
  9
$SKETCHINC
 40
0.1
  9
$FILLETRAD
 40
0.0
  9
$AUNITS
 70
4
  9
$AUPREC
 70
5
  9
$MENU
  1
.
  9
$ELEVATION
 40
0.0
  9
$PELEVATION
 40
0.0
  9
$THICKNESS
 40
0.0
  9
$LIMCHECK
 70
0
  9
$CHAMFERA
 40
0.0
  9
$CHAMFERB
 40
0.0
  9
$CHAMFERC
 40
0.0
  9
$CHAMFERD
 40
0.0
  9
$SKPOLY
 70
0
  9
$TDCREATE
 40
2455631.34653463
  9
$TDUPDATE
 40
2458141.271863426
  9
$TDINDWG
 40
0.0
  9
$TDUSRTIMER
 40
0.0
  9
$USRTIMER
 70
1
  9
$ANGBASE
 50
0.0
  9
$ANGDIR
 70
0
  9
$PDMODE
 70
0
  9
$PDSIZE
 40
0.0
  9
$PLINEWID
 40
0.0
  9
$SPLFRAME
 70
0
  9
$SPLINETYPE
 70
6
  9
$SPLINESEGS
 70
8
  9
$HANDSEED
  5
1466
  9
$SURFTAB1
 70
6
  9
$SURFTAB2
 70
6
  9
$SURFTYPE
 70
6
  9
$SURFU
 70
6
  9
$SURFV
 70
6
  9
$UCSBASE
  2

  9
$UCSNAME
  2

  9
$UCSORG
 10
0.0
 20
0.0
 30
0.0
  9
$UCSXDIR
 10
1.0
 20
0.0
 30
0.0
  9
$UCSYDIR
 10
0.0
 20
1.0
 30
0.0
  9
$UCSORTHOREF
  2

  9
$UCSORTHOVIEW
 70
0
  9
$UCSORGTOP
 10
0.0
 20
0.0
 30
0.0
  9
$UCSORGBOTTOM
 10
0.0
 20
0.0
 30
0.0
  9
$UCSORGLEFT
 10
0.0
 20
0.0
 30
0.0
  9
$UCSORGRIGHT
 10
0.0
 20
0.0
 30
0.0
  9
$UCSORGFRONT
 10
0.0
 20
0.0
 30
0.0
  9
$UCSORGBACK
 10
0.0
 20
0.0
 30
0.0
  9
$PUCSBASE
  2

  9
$PUCSNAME
  2

  9
$PUCSORG
 10
0.0
 20
0.0
 30
0.0
  9
$PUCSXDIR
 10
1.0
 20
0.0
 30
0.0
  9
$PUCSYDIR
 10
0.0
 20
1.0
 30
0.0
  9
$PUCSORTHOREF
  2

  9
$PUCSORTHOVIEW
 70
0
  9
$PUCSORGTOP
 10
0.0
 20
0.0
 30
0.0
  9
$PUCSORGBOTTOM
 10
0.0
 20
0.0
 30
0.0
  9
$PUCSORGLEFT
 10
0.0
 20
0.0
 30
0.0
  9
$PUCSORGRIGHT
 10
0.0
 20
0.0
 30
0.0
  9
$PUCSORGFRONT
 10
0.0
 20
0.0
 30
0.0
  9
$PUCSORGBACK
 10
0.0
 20
0.0
 30
0.0
  9
$USERI1
 70
0
  9
$USERI2
 70
0
  9
$USERI3
 70
0
  9
$USERI4
 70
0
  9
$USERI5
 70
0
  9
$USERR1
 40
0.0
  9
$USERR2
 40
0.0
  9
$USERR3
 40
0.0
  9
$USERR4
 40
0.0
  9
$USERR5
 40
0.0
  9
$WORLDVIEW
 70
1
  9
$SHADEDGE
 70
3
  9
$SHADEDIF
 70
70
  9
$TILEMODE
 70
1
  9
$MAXACTVP
 70
64
  9
$PINSBASE
 10
0.0
 20
0.0
 30
0.0
  9
$PLIMCHECK
 70
0
  9
$PEXTMIN
 10
0.62886676639706
 20
0.7999999523162842
 30
0.0
  9
$PEXTMAX
 10
9.028866384927335
 20
7.199999570846558
 30
0.0
  9
$PLIMMIN
 10
-0.7005418191744587
 20
-0.2281003861915408
  9
$PLIMMAX
 10
10.29945794052965
 20
8.27189937351257
  9
$UNITMODE
 70
0
  9
$VISRETAIN
 70
1
  9
$PLINEGEN
 70
0
  9
$PSLTSCALE
 70
1
  9
$TREEDEPTH
 70
3020
  9
$CMLSTYLE
  2
Standard
  9
$CMLJUST
 70
0
  9
$CMLSCALE
 40
1.0
  9
$PROXYGRAPHICS
 70
1
  9
$MEASUREMENT
 70
1
  9
$CELWEIGHT
370
-1
  9
$ENDCAPS
280
0
  9
$JOINSTYLE
280
0
  9
$LWDISPLAY
290
0
  9
$INSUNITS
 70
4
  9
$HYPERLINKBASE
  1

  9
$STYLESHEET
  1

  9
$XEDIT
290
1
  9
$CEPSNTYPE
380
0
  9
$PSTYLEMODE
290
1
  9
$FINGERPRINTGUID
  2
{39DB1BDD-BC6C-46D3-A333-DFCC0DC4782D}
  9
$VERSIONGUID
  2
{69EEBB2D-7039-498F-9366-3F994E4A07E7}
  9
$EXTNAMES
290
1
  9
$PSVPSCALE
 40
0.0
  9
$OLESTARTUP
290
0
  9
$SORTENTS
280
127
  9
$INDEXCTL
280
0
  9
$HIDETEXT
280
1
  9
$XCLIPFRAME
290
0
  9
$HALOGAP
280
0
  9
$OBSCOLOR
 70
257
  9
$OBSLTYPE
280
0
  9
$INTERSECTIONDISPLAY
280
0
  9
$INTERSECTIONCOLOR
 70
257
  9
$DIMASSOC
280
2
  9
$PROJECTNAME
  1

  0
ENDSEC
  0
SECTION
  2
CLASSES
  0
CLASS
  1
ACDBDICTIONARYWDFLT
  2
AcDbDictionaryWithDefault
  3
ObjectDBX Classes
 90
0
 91
0
280
0
281
0
  0
CLASS
  1
DICTIONARYVAR
  2
AcDbDictionaryVar
  3
ObjectDBX Classes
 90
0
 91
0
280
0
281
0
  0
CLASS
  1
TABLESTYLE
  2
AcDbTableStyle
  3
ObjectDBX Classes
 90
4095
 91
0
280
0
281
0
  0
CLASS
  1
MATERIAL
  2
AcDbMaterial
  3
ObjectDBX Classes
 90
1153
 91
0
280
0
281
0
  0
CLASS
  1
VISUALSTYLE
  2
AcDbVisualStyle
  3
ObjectDBX Classes
 90
4095
 91
0
280
0
281
0
  0
CLASS
  1
SCALE
  2
AcDbScale
  3
ObjectDBX Classes
 90
1153
 91
0
280
0
281
0
  0
CLASS
  1
MLEADERSTYLE
  2
AcDbMLeaderStyle
  3
ACDB_MLEADERSTYLE_CLASS
 90
4095
 91
0
280
0
281
0
  0
CLASS
  1
CELLSTYLEMAP
  2
AcDbCellStyleMap
  3
ObjectDBX Classes
 90
1152
 91
0
280
0
281
0
  0
CLASS
  1
EXACXREFPANELOBJECT
  2
ExAcXREFPanelObject
  3
EXAC_ESW
 90
1025
 91
0
280
0
281
0
  0
CLASS
  1
NPOCOLLECTION
  2
AcDbImpNonPersistentObjectsCollection
  3
ObjectDBX Classes
 90
1153
 91
0
280
0
281
0
  0
CLASS
  1
LAYER_INDEX
  2
AcDbLayerIndex
  3
ObjectDBX Classes
 90
0
 91
0
280
0
281
0
  0
CLASS
  1
SPATIAL_INDEX
  2
AcDbSpatialIndex
  3
ObjectDBX Classes
 90
0
 91
0
280
0
281
0
  0
CLASS
  1
IDBUFFER
  2
AcDbIdBuffer
  3
ObjectDBX Classes
 90
0
 91
0
280
0
281
0
  0
CLASS
  1
DIMASSOC
  2
AcDbDimAssoc
  3
"AcDbDimAssoc|Product Desc:     AcDim ARX App For Dimension|Company:          Autodesk, Inc.|WEB Address:      www.autodesk.com"
 90
0
 91
0
280
0
281
0
  0
CLASS
  1
IMAGEDEF
  2
AcDbRasterImageDef
  3
ISM
 90
0
 91
0
280
0
281
0
  0
CLASS
  1
RASTERVARIABLES
  2
AcDbRasterVariables
  3
ISM
 90
0
 91
0
280
0
281
0
  0
CLASS
  1
IMAGEDEF_REACTOR
  2
AcDbRasterImageDefReactor
  3
ISM
 90
1
 91
0
280
0
281
0
  0
CLASS
  1
IMAGE
  2
AcDbRasterImage
  3
ISM
 90
2175
 91
0
280
0
281
1
  0
CLASS
  1
PDFDEFINITION
  2
AcDbPdfDefinition
  3
ObjectDBX Classes
 90
1153
 91
0
280
0
281
0
  0
CLASS
  1
PDFUNDERLAY
  2
AcDbPdfReference
  3
ObjectDBX Classes
 90
4095
 91
0
280
0
281
1
  0
CLASS
  1
DWFDEFINITION
  2
AcDbDwfDefinition
  3
ObjectDBX Classes
 90
1153
 91
0
280
0
281
0
  0
CLASS
  1
DWFUNDERLAY
  2
AcDbDwfReference
  3
ObjectDBX Classes
 90
1153
 91
0
280
0
281
1
  0
CLASS
  1
DGNDEFINITION
  2
AcDbDgnDefinition
  3
ObjectDBX Classes
 90
1153
 91
0
280
0
281
0
  0
CLASS
  1
DGNUNDERLAY
  2
AcDbDgnReference
  3
ObjectDBX Classes
 90
1153
 91
0
280
0
281
1
  0
ENDSEC
  0
SECTION
  2
TABLES
  0
TABLE
  2
VPORT
  5
8
330
0
100
AcDbSymbolTable
 70
0
  0
ENDTAB
  0
TABLE
  2
LTYPE
  5
5
330
0
100
AcDbSymbolTable
 70
7
  0
LTYPE
  5
14
330
5
100
AcDbSymbolTableRecord
100
AcDbLinetypeTableRecord
  2
ByBlock
 70
0
  3

 72
65
 73
0
 40
0.0
  0
LTYPE
  5
15
330
5
100
AcDbSymbolTableRecord
100
AcDbLinetypeTableRecord
  2
ByLayer
 70
0
  3

 72
65
 73
0
 40
0.0
  0
LTYPE
  5
16
330
5
100
AcDbSymbolTableRecord
100
AcDbLinetypeTableRecord
  2
Continuous
 70
0
  3
Solid line
 72
65
 73
0
 40
0.0
  0
LTYPE
  5
1B1
330
5
100
AcDbSymbolTableRecord
100
AcDbLinetypeTableRecord
  2
CENTER
 70
0
  3
Center ____ _ ____ _ ____ _ ____ _ ____ _ ____
 72
65
 73
4
 40
2.0
 49
1.25
 74
0
 49
-0.25
 74
0
 49
0.25
 74
0
 49
-0.25
 74
0
  0
LTYPE
  5
1B2
330
5
100
AcDbSymbolTableRecord
100
AcDbLinetypeTableRecord
  2
DASHED
 70
0
  3
Dashed __ __ __ __ __ __ __ __ __ __ __ __ __ _
 72
65
 73
2
 40
0.75
 49
0.5
 74
0
 49
-0.25
 74
0
  0
LTYPE
  5
1B3
330
5
100
AcDbSymbolTableRecord
100
AcDbLinetypeTableRecord
  2
PHANTOM
 70
0
  3
Phantom ______  __  __  ______  __  __  ______
 72
65
 73
6
 40
2.5
 49
1.25
 74
0
 49
-0.25
 74
0
 49
0.25
 74
0
 49
-0.25
 74
0
 49
0.25
 74
0
 49
-0.25
 74
0
  0
LTYPE
  5
39E
330
5
100
AcDbSymbolTableRecord
100
AcDbLinetypeTableRecord
  2
HIDDEN
 70
0
  3
Hidden __ __ __ __ __ __ __ __ __ __ __ __ __ __
 72
65
 73
2
 40
9.525
 49
6.35
 74
0
 49
-3.175
 74
0
  0
ENDTAB
  0
TABLE
  2
LAYER
  5
2
330
0
100
AcDbSymbolTable
 70
3
  0
LAYER
  5
10
330
2
100
AcDbSymbolTableRecord
100
AcDbLayerTableRecord
  2
0
 70
0
 62
7
  6
Continuous
370
-3
390
4DA
  0
LAYER
  5
1B4
330
2
100
AcDbSymbolTableRecord
100
AcDbLayerTableRecord
  2
View Port
 70
0
 62
7
  6
Continuous
290
0
370
-3
390
4DA
  0
LAYER
  5
21D
330
2
100
AcDbSymbolTableRecord
100
AcDbLayerTableRecord
  2
Defpoints
 70
0
 62
7
  6
Continuous
290
0
370
-3
390
4DA
  0
ENDTAB
  0
TABLE
  2
STYLE
  5
3
330
0
100
AcDbSymbolTable
 70
3
  0
STYLE
  5
11
330
3
100
AcDbSymbolTableRecord
100
AcDbTextStyleTableRecord
  2
Standard
 70
0
 40
0.0
 41
1.0
 50
0.0
 71
0
 42
0.2
  3
arial.ttf
  4

  0
STYLE
  5
DC
330
3
100
AcDbSymbolTableRecord
100
AcDbTextStyleTableRecord
  2
Annotative
 70
0
 40
0.0
 41
1.0
 50
0.0
 71
0
 42
0.2
  3
arial.ttf
  4

  0
STYLE
  5
178
330
3
100
AcDbSymbolTableRecord
100
AcDbTextStyleTableRecord
  2
Notes
 70
0
 40
3.0
 41
1.0
 50
0.0
 71
0
 42
0.2
  3
arial.ttf
  4

  0
ENDTAB
  0
TABLE
  2
VIEW
  5
6
330
0
100
AcDbSymbolTable
 70
0
  0
ENDTAB
  0
TABLE
  2
UCS
  5
7
330
0
100
AcDbSymbolTable
 70
0
  0
ENDTAB
  0
TABLE
  2
APPID
  5
9
330
0
100
AcDbSymbolTable
 70
11
  0
APPID
  5
12
330
9
100
AcDbSymbolTableRecord
100
AcDbRegAppTableRecord
  2
ACAD
 70
0
  0
APPID
  5
DD
330
9
100
AcDbSymbolTableRecord
100
AcDbRegAppTableRecord
  2
AcadAnnoPO
 70
0
  0
APPID
  5
DE
330
9
100
AcDbSymbolTableRecord
100
AcDbRegAppTableRecord
  2
AcadAnnotative
 70
0
  0
APPID
  5
DF
330
9
100
AcDbSymbolTableRecord
100
AcDbRegAppTableRecord
  2
ACAD_DSTYLE_DIMJAG
 70
0
  0
APPID
  5
E0
330
9
100
AcDbSymbolTableRecord
100
AcDbRegAppTableRecord
  2
ACAD_DSTYLE_DIMTALN
 70
0
  0
APPID
  5
107
330
9
100
AcDbSymbolTableRecord
100
AcDbRegAppTableRecord
  2
ACAD_MLEADERVER
 70
0
  0
APPID
  5
1B5
330
9
100
AcDbSymbolTableRecord
100
AcDbRegAppTableRecord
  2
AcAecLayerStandard
 70
0
  0
APPID
  5
1BA
330
9
100
AcDbSymbolTableRecord
100
AcDbRegAppTableRecord
  2
ACAD_EXEMPT_FROM_CAD_STANDARDS
 70
0
  0
APPID
  5
237
330
9
100
AcDbSymbolTableRecord
100
AcDbRegAppTableRecord
  2
ACAD_DSTYLE_DIMBREAK
 70
0
  0
APPID
  5
28E
330
9
100
AcDbSymbolTableRecord
100
AcDbRegAppTableRecord
  2
ACAD_PSEXT
 70
0
  0
APPID
  5
49A
330
9
100
AcDbSymbolTableRecord
100
AcDbRegAppTableRecord
  2
HATCHBACKGROUNDCOLOR
 70
0
  0
ENDTAB
  0
TABLE
  2
DIMSTYLE
  5
A
330
0
100
AcDbSymbolTable
 70
3
100
AcDbDimStyleTable
 71
3
340
242
340
27
340
E1
  0
DIMSTYLE
105
27
330
A
100
AcDbSymbolTableRecord
100
AcDbDimStyleTableRecord
  2
Standard
 70
0
 41
3.0
 42
2.0
 43
9.0
 44
5.0
140
3.0
141
2.0
147
2.0
340
11
1001
ACAD_DSTYLE_DIMJAG
1070
388
1040
38.0
1001
ACAD_DSTYLE_DIMBREAK
1070
391
1040
90.0
1001
ACAD_DSTYLE_DIMTALN
1070
392
1070
0
  0
DIMSTYLE
105
E1
330
A
100
AcDbSymbolTableRecord
100
AcDbDimStyleTableRecord
  2
Annotative
 70
0
 40
0.0
 41
3.0
 42
2.5
 43
10.0
 44
5.0
140
3.0
141
2.0
147
2.0
340
11
1001
AcadAnnotative
1000
AnnotativeData
1002
{
1070
1
1070
1
1002
}
1001
ACAD_DSTYLE_DIMJAG
1070
388
1040
38.0
1001
ACAD_DSTYLE_DIMBREAK
1070
391
1040
90.0
1001
ACAD_DSTYLE_DIMTALN
1070
392
1070
0
  0
DIMSTYLE
105
242
330
A
100
AcDbSymbolTableRecord
100
AcDbDimStyleTableRecord
  2
Civil-Metric
 70
0
 41
3.0
 42
1.5
 43
6.0
 44
3.0
 73
0
 74
0
 77
1
 78
3
 79
2
140
3.0
141
3.0
147
2.0
179
2
271
2
272
2
276
1
340
11
1001
ACAD_DSTYLE_DIMBREAK
1070
391
1040
3.0
1001
ACAD_DSTYLE_DIMJAG
1070
388
1040
38.0
1001
ACAD_DSTYLE_DIMTALN
1070
392
1070
0
  0
ENDTAB
  0
TABLE
  2
BLOCK_RECORD
  5
1
330
0
100
AcDbSymbolTable
 70
4
  0
BLOCK_RECORD
  5
1F
330
1
100
AcDbSymbolTableRecord
100
AcDbBlockTableRecord
  2
*Model_Space
340
4DF
  0
BLOCK_RECORD
  5
58
330
1
100
AcDbSymbolTableRecord
100
AcDbBlockTableRecord
  2
*Paper_Space
340
4E0
  0
BLOCK_RECORD
  5
238
330
1
100
AcDbSymbolTableRecord
100
AcDbBlockTableRecord
  2
_ArchTick
340
0
  0
BLOCK_RECORD
  5
23C
330
1
100
AcDbSymbolTableRecord
100
AcDbBlockTableRecord
  2
_Open30
340
0
  0
ENDTAB
  0
ENDSEC
  0
SECTION
  2
BLOCKS
  0
BLOCK
  5
5A
330
58
100
AcDbEntity
 67
1
  8
0
100
AcDbBlockBegin
  2
*Paper_Space
 70
0
 10
0.0
 20
0.0
 30
0.0
  3
*Paper_Space
  1

  0
ENDBLK
  5
5B
330
58
100
AcDbEntity
 67
1
  8
0
100
AcDbBlockEnd
  0
BLOCK
  5
20
330
1F
100
AcDbEntity
  8
0
100
AcDbBlockBegin
  2
*Model_Space
 70
0
 10
0.0
 20
0.0
 30
0.0
  3
*Model_Space
  1

  0
ENDBLK
  5
21
330
1F
100
AcDbEntity
  8
0
100
AcDbBlockEnd
  0
BLOCK
  5
23A
330
238
100
AcDbEntity
  8
0
100
AcDbBlockBegin
  2
_ArchTick
 70
0
 10
0.0
 20
0.0
 30
0.0
  3
_ArchTick
  1

  0
LWPOLYLINE
  5
239
330
238
100
AcDbEntity
  8
0
  6
ByBlock
 62
0
100
AcDbPolyline
 90
2
 70
0
 43
0.15
 10
-0.5
 20
-0.5
 10
0.5
 20
0.5
  0
ENDBLK
  5
23B
330
238
100
AcDbEntity
  8
0
100
AcDbBlockEnd
  0
BLOCK
  5
240
330
23C
100
AcDbEntity
  8
0
100
AcDbBlockBegin
  2
_Open30
 70
0
 10
0.0
 20
0.0
 30
0.0
  3
_Open30
  1

  0
LINE
  5
23D
330
23C
100
AcDbEntity
  8
0
  6
ByBlock
 62
0
370
-2
100
AcDbLine
 10
-1.0
 20
0.26794919
 30
0.0
 11
0.0
 21
0.0
 31
0.0
  0
LINE
  5
23E
330
23C
100
AcDbEntity
  8
0
  6
ByBlock
 62
0
370
-2
100
AcDbLine
 10
0.0
 20
0.0
 30
0.0
 11
-1.0
 21
-0.26794919
 31
0.0
  0
LINE
  5
23F
330
23C
100
AcDbEntity
  8
0
  6
ByBlock
 62
0
370
-2
100
AcDbLine
 10
0.0
 20
0.0
 30
0.0
 11
-1.0
 21
0.0
 31
0.0
  0
ENDBLK
  5
241
330
23C
100
AcDbEntity
  8
0
100
AcDbBlockEnd
  0
ENDSEC
  0
SECTION
  2
ENTITIES
  0
MESH
  5
1389
330
1F
  100
AcDbEntity
8
buildings
  100
AcDbSubDMesh
71
2
72
0
91
0
92
8
10
126.1401
20
16.2113
30
3.0000
10
128.2384
20
26.6910
30
3.0000
10
118.9212
20
28.5330
30
3.0000
10
116.8230
20
18.0440
30
3.0000
10
126.1401
20
16.2113
30
0.0000
10
128.2384
20
26.6910
30
0.0000
10
118.9212
20
28.5330
30
0.0000
10
116.8230
20
18.0440
30
0.0000
93
36
90
3
90
2
90
3
90
0
90
3
90
6
90
4
90
7
90
3
90
0
90
1
90
2
90
3
90
4
90
6
90
5
90
4
90
1
90
0
90
4
90
5
90
4
90
2
90
1
90
5
90
6
90
4
90
3
90
2
90
6
90
7
90
4
90
0
90
3
90
7
90
4
94
0
95
0
  0
MESH
  5
138a
330
1F
  100
AcDbEntity
8
buildings
  100
AcDbSubDMesh
71
2
72
0
91
0
92
8
10
93.8656
20
47.6833
30
3.0000
10
96.7846
20
59.7672
30
3.0000
10
86.8333
20
62.1415
30
3.0000
10
83.9143
20
50.0484
30
3.0000
10
93.8656
20
47.6833
30
0.0000
10
96.7846
20
59.7672
30
0.0000
10
86.8333
20
62.1415
30
0.0000
10
83.9143
20
50.0484
30
0.0000
93
36
90
3
90
2
90
3
90
0
90
3
90
6
90
4
90
7
90
3
90
0
90
1
90
2
90
3
90
4
90
6
90
5
90
4
90
1
90
0
90
4
90
5
90
4
90
2
90
1
90
5
90
6
90
4
90
3
90
2
90
6
90
7
90
4
90
0
90
3
90
7
90
4
94
0
95
0
  0
MESH
  5
138b
330
1F
  100
AcDbEntity
8
buildings
  100
AcDbSubDMesh
71
2
72
0
91
0
92
8
10
16.3196
20
47.0680
30
3.0000
10
18.8702
20
57.1250
30
3.0000
10
1.8721
20
61.3917
30
3.0000
10
1.9739
20
50.6630
30
3.0000
10
16.3196
20
47.0680
30
0.0000
10
18.8702
20
57.1250
30
0.0000
10
1.8721
20
61.3917
30
0.0000
10
1.9739
20
50.6630
30
0.0000
93
36
90
3
90
2
90
3
90
1
90
3
90
6
90
5
90
7
90
3
90
0
90
1
90
3
90
3
90
4
90
7
90
5
90
4
90
1
90
0
90
4
90
5
90
4
90
2
90
1
90
5
90
6
90
4
90
3
90
2
90
6
90
7
90
4
90
0
90
3
90
7
90
4
94
0
95
0
  0
MESH
  5
138c
330
1F
  100
AcDbEntity
8
buildings
  100
AcDbSubDMesh
71
2
72
0
91
0
92
8
10
239.7673
20
93.6186
30
3.0000
10
242.5674
20
106.4253
30
3.0000
10
231.7285
20
108.7725
30
3.0000
10
228.9286
20
95.9565
30
3.0000
10
239.7673
20
93.6186
30
0.0000
10
242.5674
20
106.4253
30
0.0000
10
231.7285
20
108.7725
30
0.0000
10
228.9286
20
95.9565
30
0.0000
93
36
90
3
90
2
90
3
90
0
90
3
90
6
90
4
90
7
90
3
90
0
90
1
90
2
90
3
90
4
90
6
90
5
90
4
90
1
90
0
90
4
90
5
90
4
90
2
90
1
90
5
90
6
90
4
90
3
90
2
90
6
90
7
90
4
90
0
90
3
90
7
90
4
94
0
95
0
  0
MESH
  5
138d
330
1F
  100
AcDbEntity
8
buildings
  100
AcDbSubDMesh
71
2
72
0
91
0
92
8
10
257.8776
20
63.4600
30
3.0000
10
260.6389
20
77.6214
30
3.0000
10
250.7868
20
79.5232
30
3.0000
10
248.0255
20
65.3618
30
3.0000
10
257.8776
20
63.4600
30
0.0000
10
260.6389
20
77.6214
30
0.0000
10
250.7868
20
79.5232
30
0.0000
10
248.0255
20
65.3618
30
0.0000
93
36
90
3
90
2
90
3
90
0
90
3
90
6
90
4
90
7
90
3
90
0
90
1
90
2
90
3
90
4
90
6
90
5
90
4
90
1
90
0
90
4
90
5
90
4
90
2
90
1
90
5
90
6
90
4
90
3
90
2
90
6
90
7
90
4
90
0
90
3
90
7
90
4
94
0
95
0
  0
MESH
  5
138e
330
1F
  100
AcDbEntity
8
buildings
  100
AcDbSubDMesh
71
2
72
0
91
0
92
8
10
192.9388
20
75.7715
30
3.0000
10
196.9497
20
90.8636
30
3.0000
10
188.6204
20
93.0491
30
3.0000
10
184.6095
20
77.9663
30
3.0000
10
192.9388
20
75.7715
30
0.0000
10
196.9497
20
90.8636
30
0.0000
10
188.6204
20
93.0491
30
0.0000
10
184.6095
20
77.9663
30
0.0000
93
36
90
3
90
2
90
3
90
0
90
3
90
6
90
4
90
7
90
3
90
0
90
1
90
2
90
3
90
4
90
6
90
5
90
4
90
1
90
0
90
4
90
5
90
4
90
2
90
1
90
5
90
6
90
4
90
3
90
2
90
6
90
7
90
4
90
0
90
3
90
7
90
4
94
0
95
0
  0
MESH
  5
138f
330
1F
  100
AcDbEntity
8
buildings
  100
AcDbSubDMesh
71
2
72
0
91
0
92
8
10
187.8393
20
53.6990
30
3.0000
10
190.1453
20
64.9975
30
3.0000
10
180.0938
20
67.0181
30
3.0000
10
177.7964
20
55.7290
30
3.0000
10
187.8393
20
53.6990
30
0.0000
10
190.1453
20
64.9975
30
0.0000
10
180.0938
20
67.0181
30
0.0000
10
177.7964
20
55.7290
30
0.0000
93
36
90
3
90
2
90
3
90
0
90
3
90
6
90
4
90
7
90
3
90
0
90
1
90
2
90
3
90
4
90
6
90
5
90
4
90
1
90
0
90
4
90
5
90
4
90
2
90
1
90
5
90
6
90
4
90
3
90
2
90
6
90
7
90
4
90
0
90
3
90
7
90
4
94
0
95
0
  0
MESH
  5
1390
330
1F
  100
AcDbEntity
8
buildings
  100
AcDbSubDMesh
71
2
72
0
91
0
92
8
10
150.0079
20
60.4304
30
3.0000
10
152.7056
20
73.1340
30
3.0000
10
142.4114
20
75.3008
30
3.0000
10
139.7051
20
62.5972
30
3.0000
10
150.0079
20
60.4304
30
0.0000
10
152.7056
20
73.1340
30
0.0000
10
142.4114
20
75.3008
30
0.0000
10
139.7051
20
62.5972
30
0.0000
93
36
90
3
90
2
90
3
90
0
90
3
90
6
90
4
90
7
90
3
90
0
90
1
90
2
90
3
90
4
90
6
90
5
90
4
90
1
90
0
90
4
90
5
90
4
90
2
90
1
90
5
90
6
90
4
90
3
90
2
90
6
90
7
90
4
90
0
90
3
90
7
90
4
94
0
95
0
  0
MESH
  5
1391
330
1F
  100
AcDbEntity
8
buildings
  100
AcDbSubDMesh
71
2
72
0
91
0
92
8
10
228.3501
20
44.3666
30
3.0000
10
230.5318
20
55.1349
30
3.0000
10
221.0589
20
57.0310
30
3.0000
10
218.8774
20
46.2535
30
3.0000
10
228.3501
20
44.3666
30
0.0000
10
230.5318
20
55.1349
30
0.0000
10
221.0589
20
57.0310
30
0.0000
10
218.8774
20
46.2535
30
0.0000
93
36
90
3
90
2
90
3
90
0
90
3
90
6
90
4
90
7
90
3
90
0
90
1
90
2
90
3
90
4
90
6
90
5
90
4
90
1
90
0
90
4
90
5
90
4
90
2
90
1
90
5
90
6
90
4
90
3
90
2
90
6
90
7
90
4
90
0
90
3
90
7
90
4
94
0
95
0
  0
MESH
  5
1392
330
1F
  100
AcDbEntity
8
buildings
  100
AcDbSubDMesh
71
2
72
0
91
0
92
8
10
223.3967
20
20.5320
30
3.0000
10
226.4575
20
35.8286
30
3.0000
10
217.4080
20
37.6266
30
3.0000
10
214.3471
20
22.3301
30
3.0000
10
223.3967
20
20.5320
30
0.0000
10
226.4575
20
35.8286
30
0.0000
10
217.4080
20
37.6266
30
0.0000
10
214.3471
20
22.3301
30
0.0000
93
36
90
3
90
2
90
3
90
0
90
3
90
6
90
4
90
7
90
3
90
0
90
1
90
2
90
3
90
4
90
6
90
5
90
4
90
1
90
0
90
4
90
5
90
4
90
2
90
1
90
5
90
6
90
4
90
3
90
2
90
6
90
7
90
4
90
0
90
3
90
7
90
4
94
0
95
0
  0
MESH
  5
1393
330
1F
  100
AcDbEntity
8
buildings
  100
AcDbSubDMesh
71
2
72
0
91
0
92
8
10
126.7687
20
142.4310
30
3.0000
10
130.2551
20
156.4786
30
3.0000
10
122.0396
20
158.4889
30
3.0000
10
118.5531
20
144.4505
30
3.0000
10
126.7687
20
142.4310
30
0.0000
10
130.2551
20
156.4786
30
0.0000
10
122.0396
20
158.4889
30
0.0000
10
118.5531
20
144.4505
30
0.0000
93
36
90
3
90
2
90
3
90
0
90
3
90
6
90
4
90
7
90
3
90
0
90
1
90
2
90
3
90
4
90
6
90
5
90
4
90
1
90
0
90
4
90
5
90
4
90
2
90
1
90
5
90
6
90
4
90
3
90
2
90
6
90
7
90
4
90
0
90
3
90
7
90
4
94
0
95
0
  0
MESH
  5
1394
330
1F
  100
AcDbEntity
8
buildings
  100
AcDbSubDMesh
71
2
72
0
91
0
92
8
10
72.8559
20
202.6269
30
3.0000
10
76.6474
20
219.0440
30
3.0000
10
64.4945
20
221.8243
30
3.0000
10
60.7031
20
205.3979
30
3.0000
10
72.8559
20
202.6269
30
0.0000
10
76.6474
20
219.0440
30
0.0000
10
64.4945
20
221.8243
30
0.0000
10
60.7031
20
205.3979
30
0.0000
93
36
90
3
90
2
90
3
90
0
90
3
90
6
90
4
90
7
90
3
90
0
90
1
90
2
90
3
90
4
90
6
90
5
90
4
90
1
90
0
90
4
90
5
90
4
90
2
90
1
90
5
90
6
90
4
90
3
90
2
90
6
90
7
90
4
90
0
90
3
90
7
90
4
94
0
95
0
  0
MESH
  5
1395
330
1F
  100
AcDbEntity
8
buildings
  100
AcDbSubDMesh
71
2
72
0
91
0
92
8
10
111.6237
20
194.3635
30
3.0000
10
115.2057
20
209.2380
30
3.0000
10
104.9090
20
211.6833
30
3.0000
10
101.3443
20
196.7996
30
3.0000
10
111.6237
20
194.3635
30
0.0000
10
115.2057
20
209.2380
30
0.0000
10
104.9090
20
211.6833
30
0.0000
10
101.3443
20
196.7996
30
0.0000
93
36
90
3
90
2
90
3
90
0
90
3
90
6
90
4
90
7
90
3
90
0
90
1
90
2
90
3
90
4
90
6
90
5
90
4
90
1
90
0
90
4
90
5
90
4
90
2
90
1
90
5
90
6
90
4
90
3
90
2
90
6
90
7
90
4
90
0
90
3
90
7
90
4
94
0
95
0
  0
MESH
  5
1396
330
1F
  100
AcDbEntity
8
buildings
  100
AcDbSubDMesh
71
2
72
0
91
0
92
8
10
76.7498
20
152.8800
30
3.0000
10
80.6887
20
168.2962
30
3.0000
10
71.3928
20
170.6303
30
3.0000
10
67.4538
20
155.2234
30
3.0000
10
76.7498
20
152.8800
30
0.0000
10
80.6887
20
168.2962
30
0.0000
10
71.3928
20
170.6303
30
0.0000
10
67.4538
20
155.2234
30
0.0000
93
36
90
3
90
2
90
3
90
0
90
3
90
6
90
4
90
7
90
3
90
0
90
1
90
2
90
3
90
4
90
6
90
5
90
4
90
1
90
0
90
4
90
5
90
4
90
2
90
1
90
5
90
6
90
4
90
3
90
2
90
6
90
7
90
4
90
0
90
3
90
7
90
4
94
0
95
0
  0
MESH
  5
1397
330
1F
  100
AcDbEntity
8
buildings
  100
AcDbSubDMesh
71
2
72
0
91
0
92
8
10
31.4737
20
118.5742
30
3.0000
10
33.4528
20
127.0852
30
3.0000
10
16.2124
20
131.0331
30
3.0000
10
14.2418
20
122.5315
30
3.0000
10
31.4737
20
118.5742
30
0.0000
10
33.4528
20
127.0852
30
0.0000
10
16.2124
20
131.0331
30
0.0000
10
14.2418
20
122.5315
30
0.0000
93
36
90
3
90
2
90
3
90
0
90
3
90
6
90
4
90
7
90
3
90
0
90
1
90
2
90
3
90
4
90
6
90
5
90
4
90
1
90
0
90
4
90
5
90
4
90
2
90
1
90
5
90
6
90
4
90
3
90
2
90
6
90
7
90
4
90
0
90
3
90
7
90
4
94
0
95
0
  0
MESH
  5
1398
330
1F
  100
AcDbEntity
8
buildings
  100
AcDbSubDMesh
71
2
72
0
91
0
92
8
10
33.9148
20
130.1709
30
3.0000
10
35.4931
20
139.1421
30
3.0000
10
18.4255
20
142.1264
30
3.0000
10
16.8473
20
133.1459
30
3.0000
10
33.9148
20
130.1709
30
0.0000
10
35.4931
20
139.1421
30
0.0000
10
18.4255
20
142.1264
30
0.0000
10
16.8473
20
133.1459
30
0.0000
93
36
90
3
90
2
90
3
90
0
90
3
90
6
90
4
90
7
90
3
90
0
90
1
90
2
90
3
90
4
90
6
90
5
90
4
90
1
90
0
90
4
90
5
90
4
90
2
90
1
90
5
90
6
90
4
90
3
90
2
90
6
90
7
90
4
90
0
90
3
90
7
90
4
94
0
95
0
  0
MESH
  5
1399
330
1F
  100
AcDbEntity
8
buildings
  100
AcDbSubDMesh
71
2
72
0
91
0
92
8
10
39.3084
20
152.1440
30
3.0000
10
41.0409
20
161.2096
30
3.0000
10
21.8385
20
164.8326
30
3.0000
10
20.1059
20
155.7763
30
3.0000
10
39.3084
20
152.1440
30
0.0000
10
41.0409
20
161.2096
30
0.0000
10
21.8385
20
164.8326
30
0.0000
10
20.1059
20
155.7763
30
0.0000
93
36
90
3
90
2
90
3
90
0
90
3
90
6
90
4
90
7
90
3
90
0
90
1
90
2
90
3
90
4
90
6
90
5
90
4
90
1
90
0
90
4
90
5
90
4
90
2
90
1
90
5
90
6
90
4
90
3
90
2
90
6
90
7
90
4
90
0
90
3
90
7
90
4
94
0
95
0
  0
MESH
  5
139a
330
1F
  100
AcDbEntity
8
buildings
  100
AcDbSubDMesh
71
2
72
0
91
0
92
8
10
213.9631
20
196.0782
30
12.0000
10
217.0578
20
212.3402
30
12.0000
10
203.5022
20
214.8937
30
12.0000
10
200.4074
20
198.6316
30
12.0000
10
213.9631
20
196.0782
30
0.0000
10
217.0578
20
212.3402
30
0.0000
10
203.5022
20
214.8937
30
0.0000
10
200.4074
20
198.6316
30
0.0000
93
36
90
3
90
2
90
3
90
0
90
3
90
6
90
4
90
7
90
3
90
0
90
1
90
2
90
3
90
4
90
6
90
5
90
4
90
1
90
0
90
4
90
5
90
4
90
2
90
1
90
5
90
6
90
4
90
3
90
2
90
6
90
7
90
4
90
0
90
3
90
7
90
4
94
0
95
0
  0
MESH
  5
139b
330
1F
  100
AcDbEntity
8
buildings
  100
AcDbSubDMesh
71
2
72
0
91
0
92
8
10
171.3539
20
205.8825
30
6.0000
10
175.1117
20
223.1069
30
6.0000
10
167.0886
20
224.8312
30
6.0000
10
163.3220
20
207.6161
30
6.0000
10
171.3539
20
205.8825
30
0.0000
10
175.1117
20
223.1069
30
0.0000
10
167.0886
20
224.8312
30
0.0000
10
163.3220
20
207.6161
30
0.0000
93
36
90
3
90
2
90
3
90
0
90
3
90
6
90
4
90
7
90
3
90
0
90
1
90
2
90
3
90
4
90
6
90
5
90
4
90
1
90
0
90
4
90
5
90
4
90
2
90
1
90
5
90
6
90
4
90
3
90
2
90
6
90
7
90
4
90
0
90
3
90
7
90
4
94
0
95
0
  0
MESH
  5
139c
330
1F
  100
AcDbEntity
8
buildings
  100
AcDbSubDMesh
71
2
72
0
91
0
92
8
10
194.2499
20
202.6568
30
9.0000
10
197.2201
20
220.2356
30
9.0000
10
188.4928
20
221.6933
30
9.0000
10
185.5227
20
204.1052
30
9.0000
10
194.2499
20
202.6568
30
0.0000
10
197.2201
20
220.2356
30
0.0000
10
188.4928
20
221.6933
30
0.0000
10
185.5227
20
204.1052
30
0.0000
93
36
90
3
90
2
90
3
90
0
90
3
90
6
90
4
90
7
90
3
90
0
90
1
90
2
90
3
90
4
90
6
90
5
90
4
90
1
90
0
90
4
90
5
90
4
90
2
90
1
90
5
90
6
90
4
90
3
90
2
90
6
90
7
90
4
90
0
90
3
90
7
90
4
94
0
95
0
  0
MESH
  5
139d
330
1F
  100
AcDbEntity
8
buildings
  100
AcDbSubDMesh
71
2
72
0
91
0
92
8
10
132.0400
20
167.2802
30
3.0000
10
135.2636
20
180.8705
30
3.0000
10
126.5825
20
182.9042
30
3.0000
10
123.3590
20
169.3046
30
3.0000
10
132.0400
20
167.2802
30
0.0000
10
135.2636
20
180.8705
30
0.0000
10
126.5825
20
182.9042
30
0.0000
10
123.3590
20
169.3046
30
0.0000
93
36
90
3
90
2
90
3
90
0
90
3
90
6
90
4
90
7
90
3
90
0
90
1
90
2
90
3
90
4
90
6
90
5
90
4
90
1
90
0
90
4
90
5
90
4
90
2
90
1
90
5
90
6
90
4
90
3
90
2
90
6
90
7
90
4
90
0
90
3
90
7
90
4
94
0
95
0
  0
MESH
  5
139e
330
1F
  100
AcDbEntity
8
buildings
  100
AcDbSubDMesh
71
2
72
0
91
0
92
8
10
222.0656
20
146.0928
30
3.0000
10
225.3943
20
160.4081
30
3.0000
10
216.0485
20
162.5560
30
3.0000
10
212.7198
20
148.2408
30
3.0000
10
222.0656
20
146.0928
30
0.0000
10
225.3943
20
160.4081
30
0.0000
10
216.0485
20
162.5560
30
0.0000
10
212.7198
20
148.2408
30
0.0000
93
36
90
3
90
2
90
3
90
0
90
3
90
6
90
4
90
7
90
3
90
0
90
1
90
2
90
3
90
4
90
6
90
5
90
4
90
1
90
0
90
4
90
5
90
4
90
2
90
1
90
5
90
6
90
4
90
3
90
2
90
6
90
7
90
4
90
0
90
3
90
7
90
4
94
0
95
0
  0
MESH
  5
139f
330
1F
  100
AcDbEntity
8
buildings
  100
AcDbSubDMesh
71
2
72
0
91
0
92
8
10
166.3736
20
135.8835
30
3.0000
10
169.3029
20
148.7007
30
3.0000
10
159.3701
20
150.9359
30
3.0000
10
156.4322
20
138.1186
30
3.0000
10
166.3736
20
135.8835
30
0.0000
10
169.3029
20
148.7007
30
0.0000
10
159.3701
20
150.9359
30
0.0000
10
156.4322
20
138.1186
30
0.0000
93
36
90
3
90
2
90
3
90
0
90
3
90
6
90
4
90
7
90
3
90
0
90
1
90
2
90
3
90
4
90
6
90
5
90
4
90
1
90
0
90
4
90
5
90
4
90
2
90
1
90
5
90
6
90
4
90
3
90
2
90
6
90
7
90
4
90
0
90
3
90
7
90
4
94
0
95
0
  0
MESH
  5
13a0
330
1F
  100
AcDbEntity
8
buildings
  100
AcDbSubDMesh
71
2
72
0
91
0
92
8
10
229.5286
20
120.7892
30
3.0000
10
232.5675
20
135.6679
30
3.0000
10
224.0185
20
137.4057
30
3.0000
10
220.9623
20
122.5269
30
3.0000
10
229.5286
20
120.7892
30
0.0000
10
232.5675
20
135.6679
30
0.0000
10
224.0185
20
137.4057
30
0.0000
10
220.9623
20
122.5269
30
0.0000
93
36
90
3
90
2
90
3
90
0
90
3
90
6
90
4
90
7
90
3
90
0
90
1
90
2
90
3
90
4
90
6
90
5
90
4
90
1
90
0
90
4
90
5
90
4
90
2
90
1
90
5
90
6
90
4
90
3
90
2
90
6
90
7
90
4
90
0
90
3
90
7
90
4
94
0
95
0
  0
MESH
  5
13a1
330
1F
  100
AcDbEntity
8
buildings
  100
AcDbSubDMesh
71
2
72
0
91
0
92
8
10
255.8323
20
116.3337
30
3.0000
10
258.8592
20
131.5649
30
3.0000
10
249.3868
20
133.4239
30
3.0000
10
246.3512
20
118.1926
30
3.0000
10
255.8323
20
116.3337
30
0.0000
10
258.8592
20
131.5649
30
0.0000
10
249.3868
20
133.4239
30
0.0000
10
246.3512
20
118.1926
30
0.0000
93
36
90
3
90
2
90
3
90
0
90
3
90
6
90
4
90
7
90
3
90
0
90
1
90
2
90
3
90
4
90
6
90
5
90
4
90
1
90
0
90
4
90
5
90
4
90
2
90
1
90
5
90
6
90
4
90
3
90
2
90
6
90
7
90
4
90
0
90
3
90
7
90
4
94
0
95
0
0
LWPOLYLINE
  5
13a2
330
1F
  100
AcDbEntity
8
parks
  100
AcDbPolyline
70
0
38
0.0000
90
5
10
164.1243
20
103.2019
10
173.0730
20
148.3003
10
192.4064
20
144.5117
10
183.4490
20
99.4132
10
164.1243
20
103.2019
  0
MESH
  5
13a3
330
1F
  100
AcDbEntity
8
buildings
  100
AcDbSubDMesh
71
2
72
0
91
0
92
8
10
91.4295
20
97.2956
30
3.0000
10
95.3357
20
114.3356
30
3.0000
10
85.4114
20
116.5895
30
3.0000
10
81.5138
20
99.5403
30
3.0000
10
91.4295
20
97.2956
30
0.0000
10
95.3357
20
114.3356
30
0.0000
10
85.4114
20
116.5895
30
0.0000
10
81.5138
20
99.5403
30
0.0000
93
36
90
3
90
2
90
3
90
0
90
3
90
6
90
4
90
7
90
3
90
0
90
1
90
2
90
3
90
4
90
6
90
5
90
4
90
1
90
0
90
4
90
5
90
4
90
2
90
1
90
5
90
6
90
4
90
3
90
2
90
6
90
7
90
4
90
0
90
3
90
7
90
4
94
0
95
0
0
LWPOLYLINE
  5
13a4
330
1F
  100
AcDbEntity
8
minor_roads
  100
AcDbPolyline
70
0
38
0.0000
90
3
10
63.7317
20
257.6886
10
205.9519
20
228.2910
10
301.1876
20
208.0129
  0
MESH
  5
13a5
330
1F
  100
AcDbEntity
8
buildings
  100
AcDbSubDMesh
71
2
72
0
91
0
92
8
10
269.2883
20
60.8027
30
3.0000
10
272.7063
20
73.8752
30
3.0000
10
263.7380
20
76.1937
30
3.0000
10
260.3286
20
63.1121
30
3.0000
10
269.2883
20
60.8027
30
0.0000
10
272.7063
20
73.8752
30
0.0000
10
263.7380
20
76.1937
30
0.0000
10
260.3286
20
63.1121
30
0.0000
93
36
90
3
90
2
90
3
90
0
90
3
90
6
90
4
90
7
90
3
90
0
90
1
90
2
90
3
90
4
90
6
90
5
90
4
90
1
90
0
90
4
90
5
90
4
90
2
90
1
90
5
90
6
90
4
90
3
90
2
90
6
90
7
90
4
90
0
90
3
90
7
90
4
94
0
95
0
  0
MESH
  5
13a6
330
1F
  100
AcDbEntity
8
buildings
  100
AcDbSubDMesh
71
2
72
0
91
0
92
8
10
274.1620
20
9.5895
30
3.0000
10
277.8998
20
26.2011
30
3.0000
10
268.6494
20
28.2756
30
3.0000
10
264.9031
20
11.6454
30
3.0000
10
274.1620
20
9.5895
30
0.0000
10
277.8998
20
26.2011
30
0.0000
10
268.6494
20
28.2756
30
0.0000
10
264.9031
20
11.6454
30
0.0000
93
36
90
3
90
2
90
3
90
0
90
3
90
6
90
4
90
7
90
3
90
0
90
1
90
2
90
3
90
4
90
6
90
5
90
4
90
1
90
0
90
4
90
5
90
4
90
2
90
1
90
5
90
6
90
4
90
3
90
2
90
6
90
7
90
4
90
0
90
3
90
7
90
4
94
0
95
0
  0
MESH
  5
13a7
330
1F
  100
AcDbEntity
8
buildings
  100
AcDbSubDMesh
71
2
72
0
91
0
92
8
10
286.6139
20
135.8475
30
3.0000
10
289.5855
20
148.7393
30
3.0000
10
280.0929
20
150.9044
30
3.0000
10
277.1213
20
138.0125
30
3.0000
10
286.6139
20
135.8475
30
0.0000
10
289.5855
20
148.7393
30
0.0000
10
280.0929
20
150.9044
30
0.0000
10
277.1213
20
138.0125
30
0.0000
93
36
90
3
90
2
90
3
90
0
90
3
90
6
90
4
90
7
90
3
90
0
90
1
90
2
90
3
90
4
90
6
90
5
90
4
90
1
90
0
90
4
90
5
90
4
90
2
90
1
90
5
90
6
90
4
90
3
90
2
90
6
90
7
90
4
90
0
90
3
90
7
90
4
94
0
95
0
  0
MESH
  5
13a8
330
1F
  100
AcDbEntity
8
buildings
  100
AcDbSubDMesh
71
2
72
0
91
0
92
8
10
23.7909
20
82.6205
30
3.0000
10
25.5947
20
92.3457
30
3.0000
10
9.7001
20
95.2390
30
3.0000
10
7.8962
20
85.5232
30
3.0000
10
23.7909
20
82.6205
30
0.0000
10
25.5947
20
92.3457
30
0.0000
10
9.7001
20
95.2390
30
0.0000
10
7.8962
20
85.5232
30
0.0000
93
36
90
3
90
2
90
3
90
0
90
3
90
6
90
4
90
7
90
3
90
0
90
1
90
2
90
3
90
4
90
6
90
5
90
4
90
1
90
0
90
4
90
5
90
4
90
2
90
1
90
5
90
6
90
4
90
3
90
2
90
6
90
7
90
4
90
0
90
3
90
7
90
4
94
0
95
0
  0
MESH
  5
13a9
330
1F
  100
AcDbEntity
8
buildings
  100
AcDbSubDMesh
71
2
72
0
91
0
92
8
10
85.3936
20
224.6771
30
12.0000
10
90.4323
20
243.1665
30
12.0000
10
81.8176
20
245.4793
30
12.0000
10
76.7873
20
226.9992
30
12.0000
10
85.3936
20
224.6771
30
0.0000
10
90.4323
20
243.1665
30
0.0000
10
81.8176
20
245.4793
30
0.0000
10
76.7873
20
226.9992
30
0.0000
93
36
90
3
90
2
90
3
90
0
90
3
90
6
90
4
90
7
90
3
90
0
90
1
90
2
90
3
90
4
90
6
90
5
90
4
90
1
90
0
90
4
90
5
90
4
90
2
90
1
90
5
90
6
90
4
90
3
90
2
90
6
90
7
90
4
90
0
90
3
90
7
90
4
94
0
95
0
  0
MESH
  5
13aa
330
1F
  100
AcDbEntity
8
buildings
  100
AcDbSubDMesh
71
2
72
0
91
0
92
8
10
186.1674
20
175.2471
30
3.0000
10
190.2138
20
192.0380
30
3.0000
10
179.1828
20
194.6618
30
3.0000
10
175.1364
20
177.8710
30
3.0000
10
186.1674
20
175.2471
30
0.0000
10
190.2138
20
192.0380
30
0.0000
10
179.1828
20
194.6618
30
0.0000
10
175.1364
20
177.8710
30
0.0000
93
36
90
3
90
2
90
3
90
0
90
3
90
6
90
4
90
7
90
3
90
0
90
1
90
2
90
3
90
4
90
6
90
5
90
4
90
1
90
0
90
4
90
5
90
4
90
2
90
1
90
5
90
6
90
4
90
3
90
2
90
6
90
7
90
4
90
0
90
3
90
7
90
4
94
0
95
0
  0
MESH
  5
13ab
330
1F
  100
AcDbEntity
8
buildings
  100
AcDbSubDMesh
71
2
72
0
91
0
92
8
10
140.0448
20
141.1742
30
3.0000
10
143.0404
20
154.2705
30
3.0000
10
133.5049
20
156.4260
30
3.0000
10
130.5179
20
143.3298
30
3.0000
10
140.0448
20
141.1742
30
0.0000
10
143.0404
20
154.2705
30
0.0000
10
133.5049
20
156.4260
30
0.0000
10
130.5179
20
143.3298
30
0.0000
93
36
90
3
90
2
90
3
90
0
90
3
90
6
90
4
90
7
90
3
90
0
90
1
90
2
90
3
90
4
90
6
90
5
90
4
90
1
90
0
90
4
90
5
90
4
90
2
90
1
90
5
90
6
90
4
90
3
90
2
90
6
90
7
90
4
90
0
90
3
90
7
90
4
94
0
95
0
  0
MESH
  5
13ac
330
1F
  100
AcDbEntity
8
buildings
  100
AcDbSubDMesh
71
2
72
0
91
0
92
8
10
264.7535
20
34.6426
30
3.0000
10
268.3205
20
49.2757
30
3.0000
10
259.0167
20
51.5168
30
3.0000
10
255.4410
20
36.8929
30
3.0000
10
264.7535
20
34.6426
30
0.0000
10
268.3205
20
49.2757
30
0.0000
10
259.0167
20
51.5168
30
0.0000
10
255.4410
20
36.8929
30
0.0000
93
36
90
3
90
2
90
3
90
0
90
3
90
6
90
4
90
7
90
3
90
0
90
1
90
2
90
3
90
4
90
6
90
5
90
4
90
1
90
0
90
4
90
5
90
4
90
2
90
1
90
5
90
6
90
4
90
3
90
2
90
6
90
7
90
4
90
0
90
3
90
7
90
4
94
0
95
0
0
LWPOLYLINE
  5
13ad
330
1F
  100
AcDbEntity
8
major_roads
  100
AcDbPolyline
70
0
38
0.0000
90
3
10
301.0945
20
217.8062
10
294.6400
20
219.0269
10
110.8403
20
259.7461
  0
MESH
  5
13ae
330
1F
  100
AcDbEntity
8
buildings
  100
AcDbSubDMesh
71
2
72
0
91
0
92
8
10
297.7642
20
176.8925
30
12.0000
10
299.6590
20
187.8993
30
12.0000
10
287.2482
20
190.6121
30
12.0000
10
285.0148
20
178.9430
30
12.0000
10
297.7642
20
176.8925
30
0.0000
10
299.6590
20
187.8993
30
0.0000
10
287.2482
20
190.6121
30
0.0000
10
285.0148
20
178.9430
30
0.0000
93
36
90
3
90
2
90
3
90
1
90
3
90
6
90
5
90
7
90
3
90
0
90
1
90
3
90
3
90
4
90
7
90
5
90
4
90
1
90
0
90
4
90
5
90
4
90
2
90
1
90
5
90
6
90
4
90
3
90
2
90
6
90
7
90
4
90
0
90
3
90
7
90
4
94
0
95
0
  0
MESH
  5
13af
330
1F
  100
AcDbEntity
8
buildings
  100
AcDbSubDMesh
71
2
72
0
91
0
92
8
10
283.5470
20
58.6458
30
3.0000
10
287.1013
20
72.7962
30
3.0000
10
277.9610
20
75.0667
30
3.0000
10
274.3895
20
60.9162
30
3.0000
10
283.5470
20
58.6458
30
0.0000
10
287.1013
20
72.7962
30
0.0000
10
277.9610
20
75.0667
30
0.0000
10
274.3895
20
60.9162
30
0.0000
93
36
90
3
90
2
90
3
90
0
90
3
90
6
90
4
90
7
90
3
90
0
90
1
90
2
90
3
90
4
90
6
90
5
90
4
90
1
90
0
90
4
90
5
90
4
90
2
90
1
90
5
90
6
90
4
90
3
90
2
90
6
90
7
90
4
90
0
90
3
90
7
90
4
94
0
95
0
  0
MESH
  5
13b0
330
1F
  100
AcDbEntity
8
buildings
  100
AcDbSubDMesh
71
2
72
0
91
0
92
10
10
294.5222
20
91.8188
30
3.0000
10
290.3557
20
77.6997
30
3.0000
10
299.8021
20
74.9495
30
3.0000
10
302.3697
20
83.6862
30
3.0000
10
302.3140
20
89.5460
30
3.0000
10
294.5222
20
91.8188
30
0.0000
10
290.3557
20
77.6997
30
0.0000
10
299.8021
20
74.9495
30
0.0000
10
302.3697
20
83.6862
30
0.0000
10
302.3140
20
89.5460
30
0.0000
93
49
90
3
90
0
90
1
90
3
90
3
90
5
90
8
90
6
90
3
90
3
90
4
90
0
90
3
90
8
90
5
90
9
90
3
90
3
90
1
90
2
90
3
90
8
90
7
90
6
90
4
90
1
90
0
90
5
90
6
90
4
90
2
90
1
90
6
90
7
90
4
90
3
90
2
90
7
90
8
90
4
90
4
90
3
90
8
90
9
90
4
90
0
90
4
90
9
90
5
94
0
95
0
  0
MESH
  5
13b1
330
1F
  100
AcDbEntity
8
buildings
  100
AcDbSubDMesh
71
2
72
0
91
0
92
8
10
209.3249
20
150.8629
30
3.0000
10
212.6151
20
163.7856
30
3.0000
10
203.4054
20
166.1205
30
3.0000
10
200.1068
20
153.1698
30
3.0000
10
209.3249
20
150.8629
30
0.0000
10
212.6151
20
163.7856
30
0.0000
10
203.4054
20
166.1205
30
0.0000
10
200.1068
20
153.1698
30
0.0000
93
36
90
3
90
2
90
3
90
0
90
3
90
6
90
4
90
7
90
3
90
0
90
1
90
2
90
3
90
4
90
6
90
5
90
4
90
1
90
0
90
4
90
5
90
4
90
2
90
1
90
5
90
6
90
4
90
3
90
2
90
6
90
7
90
4
90
0
90
3
90
7
90
4
94
0
95
0
  0
MESH
  5
13b2
330
1F
  100
AcDbEntity
8
buildings
  100
AcDbSubDMesh
71
2
72
0
91
0
92
8
10
153.4504
20
138.9998
30
3.0000
10
156.1024
20
153.7820
30
3.0000
10
147.3483
20
155.3323
30
3.0000
10
144.7049
20
140.5410
30
3.0000
10
153.4504
20
138.9998
30
0.0000
10
156.1024
20
153.7820
30
0.0000
10
147.3483
20
155.3323
30
0.0000
10
144.7049
20
140.5410
30
0.0000
93
36
90
3
90
2
90
3
90
0
90
3
90
6
90
4
90
7
90
3
90
0
90
1
90
2
90
3
90
4
90
6
90
5
90
4
90
1
90
0
90
4
90
5
90
4
90
2
90
1
90
5
90
6
90
4
90
3
90
2
90
6
90
7
90
4
90
0
90
3
90
7
90
4
94
0
95
0
  0
MESH
  5
13b3
330
1F
  100
AcDbEntity
8
buildings
  100
AcDbSubDMesh
71
2
72
0
91
0
92
8
10
244.5501
20
119.0757
30
3.0000
10
247.6243
20
134.7807
30
3.0000
10
237.5823
20
136.7179
30
3.0000
10
234.5081
20
121.0129
30
3.0000
10
244.5501
20
119.0757
30
0.0000
10
247.6243
20
134.7807
30
0.0000
10
237.5823
20
136.7179
30
0.0000
10
234.5081
20
121.0129
30
0.0000
93
36
90
3
90
2
90
3
90
0
90
3
90
6
90
4
90
7
90
3
90
0
90
1
90
2
90
3
90
4
90
6
90
5
90
4
90
1
90
0
90
4
90
5
90
4
90
2
90
1
90
5
90
6
90
4
90
3
90
2
90
6
90
7
90
4
90
0
90
3
90
7
90
4
94
0
95
0
  0
MESH
  5
13b4
330
1F
  100
AcDbEntity
8
buildings
  100
AcDbSubDMesh
71
2
72
0
91
0
92
8
10
216.6472
20
122.2260
30
3.0000
10
220.2289
20
137.1191
30
3.0000
10
209.9407
20
139.5736
30
3.0000
10
206.3589
20
124.6806
30
3.0000
10
216.6472
20
122.2260
30
0.0000
10
220.2289
20
137.1191
30
0.0000
10
209.9407
20
139.5736
30
0.0000
10
206.3589
20
124.6806
30
0.0000
93
36
90
3
90
2
90
3
90
0
90
3
90
6
90
4
90
7
90
3
90
0
90
1
90
2
90
3
90
4
90
6
90
5
90
4
90
1
90
0
90
4
90
5
90
4
90
2
90
1
90
5
90
6
90
4
90
3
90
2
90
6
90
7
90
4
90
0
90
3
90
7
90
4
94
0
95
0
  0
MESH
  5
13b5
330
1F
  100
AcDbEntity
8
buildings
  100
AcDbSubDMesh
71
2
72
0
91
0
92
8
10
203.4959
20
126.6581
30
3.0000
10
206.6134
20
140.5258
30
3.0000
10
196.4650
20
142.7775
30
3.0000
10
193.3476
20
128.9005
30
3.0000
10
203.4959
20
126.6581
30
0.0000
10
206.6134
20
140.5258
30
0.0000
10
196.4650
20
142.7775
30
0.0000
10
193.3476
20
128.9005
30
0.0000
93
36
90
3
90
2
90
3
90
0
90
3
90
6
90
4
90
7
90
3
90
0
90
1
90
2
90
3
90
4
90
6
90
5
90
4
90
1
90
0
90
4
90
5
90
4
90
2
90
1
90
5
90
6
90
4
90
3
90
2
90
6
90
7
90
4
90
0
90
3
90
7
90
4
94
0
95
0
  0
MESH
  5
13b6
330
1F
  100
AcDbEntity
8
buildings
  100
AcDbSubDMesh
71
2
72
0
91
0
92
8
10
236.4025
20
146.5910
30
3.0000
10
239.4411
20
157.8686
30
3.0000
10
229.3662
20
160.5479
30
3.0000
10
226.3275
20
149.2796
30
3.0000
10
236.4025
20
146.5910
30
0.0000
10
239.4411
20
157.8686
30
0.0000
10
229.3662
20
160.5479
30
0.0000
10
226.3275
20
149.2796
30
0.0000
93
36
90
3
90
2
90
3
90
0
90
3
90
6
90
4
90
7
90
3
90
0
90
1
90
2
90
3
90
4
90
6
90
5
90
4
90
1
90
0
90
4
90
5
90
4
90
2
90
1
90
5
90
6
90
4
90
3
90
2
90
6
90
7
90
4
90
0
90
3
90
7
90
4
94
0
95
0
  0
MESH
  5
13b7
330
1F
  100
AcDbEntity
8
buildings
  100
AcDbSubDMesh
71
2
72
0
91
0
92
8
10
171.8385
20
161.2172
30
3.0000
10
174.7499
20
172.2893
30
3.0000
10
165.6346
20
174.6622
30
3.0000
10
162.7232
20
163.5901
30
3.0000
10
171.8385
20
161.2172
30
0.0000
10
174.7499
20
172.2893
30
0.0000
10
165.6346
20
174.6622
30
0.0000
10
162.7232
20
163.5901
30
0.0000
93
36
90
3
90
2
90
3
90
0
90
3
90
6
90
4
90
7
90
3
90
0
90
1
90
2
90
3
90
4
90
6
90
5
90
4
90
1
90
0
90
4
90
5
90
4
90
2
90
1
90
5
90
6
90
4
90
3
90
2
90
6
90
7
90
4
90
0
90
3
90
7
90
4
94
0
95
0
  0
MESH
  5
13b8
330
1F
  100
AcDbEntity
8
buildings
  100
AcDbSubDMesh
71
2
72
0
91
0
92
8
10
182.5577
20
157.8479
30
3.0000
10
185.4002
20
169.8196
30
3.0000
10
176.9696
20
171.7907
30
3.0000
10
174.1357
20
159.8282
30
3.0000
10
182.5577
20
157.8479
30
0.0000
10
185.4002
20
169.8196
30
0.0000
10
176.9696
20
171.7907
30
0.0000
10
174.1357
20
159.8282
30
0.0000
93
36
90
3
90
2
90
3
90
0
90
3
90
6
90
4
90
7
90
3
90
0
90
1
90
2
90
3
90
4
90
6
90
5
90
4
90
1
90
0
90
4
90
5
90
4
90
2
90
1
90
5
90
6
90
4
90
3
90
2
90
6
90
7
90
4
90
0
90
3
90
7
90
4
94
0
95
0
  0
MESH
  5
13b9
330
1F
  100
AcDbEntity
8
buildings
  100
AcDbSubDMesh
71
2
72
0
91
0
92
8
10
144.6551
20
164.8477
30
3.0000
10
147.8490
20
177.9366
30
3.0000
10
138.7612
20
180.1334
30
3.0000
10
135.5673
20
167.0446
30
3.0000
10
144.6551
20
164.8477
30
0.0000
10
147.8490
20
177.9366
30
0.0000
10
138.7612
20
180.1334
30
0.0000
10
135.5673
20
167.0446
30
0.0000
93
36
90
3
90
2
90
3
90
0
90
3
90
6
90
4
90
7
90
3
90
0
90
1
90
2
90
3
90
4
90
6
90
5
90
4
90
1
90
0
90
4
90
5
90
4
90
2
90
1
90
5
90
6
90
4
90
3
90
2
90
6
90
7
90
4
90
0
90
3
90
7
90
4
94
0
95
0
  0
MESH
  5
13ba
330
1F
  100
AcDbEntity
8
buildings
  100
AcDbSubDMesh
71
2
72
0
91
0
92
8
10
214.3527
20
172.3129
30
3.0000
10
217.0277
20
187.3923
30
3.0000
10
208.7141
20
188.8447
30
3.0000
10
206.0477
20
173.7561
30
3.0000
10
214.3527
20
172.3129
30
0.0000
10
217.0277
20
187.3923
30
0.0000
10
208.7141
20
188.8447
30
0.0000
10
206.0477
20
173.7561
30
0.0000
93
36
90
3
90
2
90
3
90
0
90
3
90
6
90
4
90
7
90
3
90
0
90
1
90
2
90
3
90
4
90
6
90
5
90
4
90
1
90
0
90
4
90
5
90
4
90
2
90
1
90
5
90
6
90
4
90
3
90
2
90
6
90
7
90
4
90
0
90
3
90
7
90
4
94
0
95
0
  0
MESH
  5
13bb
330
1F
  100
AcDbEntity
8
buildings
  100
AcDbSubDMesh
71
2
72
0
91
0
92
8
10
226.7529
20
169.8135
30
3.0000
10
229.6499
20
184.2082
30
3.0000
10
220.9890
20
185.9264
30
3.0000
10
218.0919
20
171.5410
30
3.0000
10
226.7529
20
169.8135
30
0.0000
10
229.6499
20
184.2082
30
0.0000
10
220.9890
20
185.9264
30
0.0000
10
218.0919
20
171.5410
30
0.0000
93
36
90
3
90
2
90
3
90
0
90
3
90
6
90
4
90
7
90
3
90
0
90
1
90
2
90
3
90
4
90
6
90
5
90
4
90
1
90
0
90
4
90
5
90
4
90
2
90
1
90
5
90
6
90
4
90
3
90
2
90
6
90
7
90
4
90
0
90
3
90
7
90
4
94
0
95
0
  0
MESH
  5
13bc
330
1F
  100
AcDbEntity
8
buildings
  100
AcDbSubDMesh
71
2
72
0
91
0
92
8
10
160.7217
20
182.8479
30
3.0000
10
164.0620
20
197.7665
30
3.0000
10
154.5787
20
199.8668
30
3.0000
10
151.2385
20
184.9389
30
3.0000
10
160.7217
20
182.8479
30
0.0000
10
164.0620
20
197.7665
30
0.0000
10
154.5787
20
199.8668
30
0.0000
10
151.2385
20
184.9389
30
0.0000
93
36
90
3
90
2
90
3
90
0
90
3
90
6
90
4
90
7
90
3
90
0
90
1
90
2
90
3
90
4
90
6
90
5
90
4
90
1
90
0
90
4
90
5
90
4
90
2
90
1
90
5
90
6
90
4
90
3
90
2
90
6
90
7
90
4
90
0
90
3
90
7
90
4
94
0
95
0
  0
MESH
  5
13bd
330
1F
  100
AcDbEntity
8
buildings
  100
AcDbSubDMesh
71
2
72
0
91
0
92
8
10
161.5685
20
208.0263
30
6.0000
10
165.9769
20
224.8206
30
6.0000
10
156.3261
20
227.3184
30
6.0000
10
151.9264
20
210.5149
30
6.0000
10
161.5685
20
208.0263
30
0.0000
10
165.9769
20
224.8206
30
0.0000
10
156.3261
20
227.3184
30
0.0000
10
151.9264
20
210.5149
30
0.0000
93
36
90
3
90
2
90
3
90
0
90
3
90
6
90
4
90
7
90
3
90
0
90
1
90
2
90
3
90
4
90
6
90
5
90
4
90
1
90
0
90
4
90
5
90
4
90
2
90
1
90
5
90
6
90
4
90
3
90
2
90
6
90
7
90
4
90
0
90
3
90
7
90
4
94
0
95
0
  0
MESH
  5
13be
330
1F
  100
AcDbEntity
8
buildings
  100
AcDbSubDMesh
71
2
72
0
91
0
92
8
10
150.5687
20
214.6321
30
9.0000
10
153.6758
20
228.6854
30
9.0000
10
145.1862
20
230.5259
30
9.0000
10
142.0875
20
216.4913
30
9.0000
10
150.5687
20
214.6321
30
0.0000
10
153.6758
20
228.6854
30
0.0000
10
145.1862
20
230.5259
30
0.0000
10
142.0875
20
216.4913
30
0.0000
93
36
90
3
90
2
90
3
90
0
90
3
90
6
90
4
90
7
90
3
90
0
90
1
90
2
90
3
90
4
90
6
90
5
90
4
90
1
90
0
90
4
90
5
90
4
90
2
90
1
90
5
90
6
90
4
90
3
90
2
90
6
90
7
90
4
90
0
90
3
90
7
90
4
94
0
95
0
  0
MESH
  5
13bf
330
1F
  100
AcDbEntity
8
buildings
  100
AcDbSubDMesh
71
2
72
0
91
0
92
8
10
44.9373
20
187.4657
30
3.0000
10
47.0540
20
196.9154
30
3.0000
10
32.7946
20
200.0748
30
3.0000
10
30.6780
20
190.6158
30
3.0000
10
44.9373
20
187.4657
30
0.0000
10
47.0540
20
196.9154
30
0.0000
10
32.7946
20
200.0748
30
0.0000
10
30.6780
20
190.6158
30
0.0000
93
36
90
3
90
2
90
3
90
0
90
3
90
6
90
4
90
7
90
3
90
0
90
1
90
2
90
3
90
4
90
6
90
5
90
4
90
1
90
0
90
4
90
5
90
4
90
2
90
1
90
5
90
6
90
4
90
3
90
2
90
6
90
7
90
4
90
0
90
3
90
7
90
4
94
0
95
0
  0
MESH
  5
13c0
330
1F
  100
AcDbEntity
8
buildings
  100
AcDbSubDMesh
71
2
72
0
91
0
92
8
10
119.1955
20
170.2767
30
3.0000
10
122.9037
20
183.6674
30
3.0000
10
113.4157
20
186.2596
30
3.0000
10
109.7075
20
172.8781
30
3.0000
10
119.1955
20
170.2767
30
0.0000
10
122.9037
20
183.6674
30
0.0000
10
113.4157
20
186.2596
30
0.0000
10
109.7075
20
172.8781
30
0.0000
93
36
90
3
90
2
90
3
90
0
90
3
90
6
90
4
90
7
90
3
90
0
90
1
90
2
90
3
90
4
90
6
90
5
90
4
90
1
90
0
90
4
90
5
90
4
90
2
90
1
90
5
90
6
90
4
90
3
90
2
90
6
90
7
90
4
90
0
90
3
90
7
90
4
94
0
95
0
  0
MESH
  5
13c1
330
1F
  100
AcDbEntity
8
buildings
  100
AcDbSubDMesh
71
2
72
0
91
0
92
8
10
110.3216
20
120.9097
30
3.0000
10
113.0062
20
133.1770
30
3.0000
10
102.7633
20
135.4000
30
3.0000
10
100.0788
20
123.1235
30
3.0000
10
110.3216
20
120.9097
30
0.0000
10
113.0062
20
133.1770
30
0.0000
10
102.7633
20
135.4000
30
0.0000
10
100.0788
20
123.1235
30
0.0000
93
36
90
3
90
2
90
3
90
0
90
3
90
6
90
4
90
7
90
3
90
0
90
1
90
2
90
3
90
4
90
6
90
5
90
4
90
1
90
0
90
4
90
5
90
4
90
2
90
1
90
5
90
6
90
4
90
3
90
2
90
6
90
7
90
4
90
0
90
3
90
7
90
4
94
0
95
0
  0
MESH
  5
13c2
330
1F
  100
AcDbEntity
8
buildings
  100
AcDbSubDMesh
71
2
72
0
91
0
92
8
10
84.0361
20
126.1824
30
3.0000
10
87.2977
20
139.4111
30
3.0000
10
76.9054
20
141.9390
30
3.0000
10
73.6523
20
128.7197
30
3.0000
10
84.0361
20
126.1824
30
0.0000
10
87.2977
20
139.4111
30
0.0000
10
76.9054
20
141.9390
30
0.0000
10
73.6523
20
128.7197
30
0.0000
93
36
90
3
90
2
90
3
90
0
90
3
90
6
90
4
90
7
90
3
90
0
90
1
90
2
90
3
90
4
90
6
90
5
90
4
90
1
90
0
90
4
90
5
90
4
90
2
90
1
90
5
90
6
90
4
90
3
90
2
90
6
90
7
90
4
90
0
90
3
90
7
90
4
94
0
95
0
  0
MESH
  5
13c3
330
1F
  100
AcDbEntity
8
buildings
  100
AcDbSubDMesh
71
2
72
0
91
0
92
8
10
96.3014
20
123.3753
30
3.0000
10
99.3831
20
136.4817
30
3.0000
10
89.7864
20
138.7201
30
3.0000
10
86.7048
20
125.6045
30
3.0000
10
96.3014
20
123.3753
30
0.0000
10
99.3831
20
136.4817
30
0.0000
10
89.7864
20
138.7201
30
0.0000
10
86.7048
20
125.6045
30
0.0000
93
36
90
3
90
2
90
3
90
0
90
3
90
6
90
4
90
7
90
3
90
0
90
1
90
2
90
3
90
4
90
6
90
5
90
4
90
1
90
0
90
4
90
5
90
4
90
2
90
1
90
5
90
6
90
4
90
3
90
2
90
6
90
7
90
4
90
0
90
3
90
7
90
4
94
0
95
0
  0
MESH
  5
13c4
330
1F
  100
AcDbEntity
8
buildings
  100
AcDbSubDMesh
71
2
72
0
91
0
92
8
10
89.4994
20
151.7109
30
3.0000
10
93.0104
20
166.7982
30
3.0000
10
84.4162
20
168.7585
30
3.0000
10
80.9050
20
153.6805
30
3.0000
10
89.4994
20
151.7109
30
0.0000
10
93.0104
20
166.7982
30
0.0000
10
84.4162
20
168.7585
30
0.0000
10
80.9050
20
153.6805
30
0.0000
93
36
90
3
90
2
90
3
90
0
90
3
90
6
90
4
90
7
90
3
90
0
90
1
90
2
90
3
90
4
90
6
90
5
90
4
90
1
90
0
90
4
90
5
90
4
90
2
90
1
90
5
90
6
90
4
90
3
90
2
90
6
90
7
90
4
90
0
90
3
90
7
90
4
94
0
95
0
  0
MESH
  5
13c5
330
1F
  100
AcDbEntity
8
buildings
  100
AcDbSubDMesh
71
2
72
0
91
0
92
8
10
107.5413
20
173.1824
30
3.0000
10
110.3016
20
186.5548
30
3.0000
10
100.8371
20
188.4882
30
3.0000
10
98.0855
20
175.1066
30
3.0000
10
107.5413
20
173.1824
30
0.0000
10
110.3016
20
186.5548
30
0.0000
10
100.8371
20
188.4882
30
0.0000
10
98.0855
20
175.1066
30
0.0000
93
36
90
3
90
2
90
3
90
0
90
3
90
6
90
4
90
7
90
3
90
0
90
1
90
2
90
3
90
4
90
6
90
5
90
4
90
1
90
0
90
4
90
5
90
4
90
2
90
1
90
5
90
6
90
4
90
3
90
2
90
6
90
7
90
4
90
0
90
3
90
7
90
4
94
0
95
0
  0
MESH
  5
13c6
330
1F
  100
AcDbEntity
8
buildings
  100
AcDbSubDMesh
71
2
72
0
91
0
92
8
10
82.0413
20
178.3419
30
3.0000
10
85.2106
20
192.2101
30
3.0000
10
76.3747
20
194.2052
30
3.0000
10
73.2141
20
180.3278
30
3.0000
10
82.0413
20
178.3419
30
0.0000
10
85.2106
20
192.2101
30
0.0000
10
76.3747
20
194.2052
30
0.0000
10
73.2141
20
180.3278
30
0.0000
93
36
90
3
90
2
90
3
90
0
90
3
90
6
90
4
90
7
90
3
90
0
90
1
90
2
90
3
90
4
90
6
90
5
90
4
90
1
90
0
90
4
90
5
90
4
90
2
90
1
90
5
90
6
90
4
90
3
90
2
90
6
90
7
90
4
90
0
90
3
90
7
90
4
94
0
95
0
  0
MESH
  5
13c7
330
1F
  100
AcDbEntity
8
buildings
  100
AcDbSubDMesh
71
2
72
0
91
0
92
8
10
97.8438
20
196.9335
30
3.0000
10
101.2233
20
212.2608
30
3.0000
10
91.8095
20
214.3061
30
3.0000
10
88.4212
20
198.9972
30
3.0000
10
97.8438
20
196.9335
30
0.0000
10
101.2233
20
212.2608
30
0.0000
10
91.8095
20
214.3061
30
0.0000
10
88.4212
20
198.9972
30
0.0000
93
36
90
3
90
2
90
3
90
0
90
3
90
6
90
4
90
7
90
3
90
0
90
1
90
2
90
3
90
4
90
6
90
5
90
4
90
1
90
0
90
4
90
5
90
4
90
2
90
1
90
5
90
6
90
4
90
3
90
2
90
6
90
7
90
4
90
0
90
3
90
7
90
4
94
0
95
0
  0
MESH
  5
13c8
330
1F
  100
AcDbEntity
8
buildings
  100
AcDbSubDMesh
71
2
72
0
91
0
92
8
10
108.1122
20
221.0690
30
6.0000
10
111.4116
20
238.4746
30
6.0000
10
102.7604
20
240.0909
30
6.0000
10
99.4609
20
222.6946
30
6.0000
10
108.1122
20
221.0690
30
0.0000
10
111.4116
20
238.4746
30
0.0000
10
102.7604
20
240.0909
30
0.0000
10
99.4609
20
222.6946
30
0.0000
93
36
90
3
90
2
90
3
90
0
90
3
90
6
90
4
90
7
90
3
90
0
90
1
90
2
90
3
90
4
90
6
90
5
90
4
90
1
90
0
90
4
90
5
90
4
90
2
90
1
90
5
90
6
90
4
90
3
90
2
90
6
90
7
90
4
90
0
90
3
90
7
90
4
94
0
95
0
  0
MESH
  5
13c9
330
1F
  100
AcDbEntity
8
buildings
  100
AcDbSubDMesh
71
2
72
0
91
0
92
8
10
96.3473
20
222.0154
30
9.0000
10
101.0043
20
240.7796
30
9.0000
10
92.3309
20
242.9061
30
9.0000
10
87.6741
20
224.1326
30
9.0000
10
96.3473
20
222.0154
30
0.0000
10
101.0043
20
240.7796
30
0.0000
10
92.3309
20
242.9061
30
0.0000
10
87.6741
20
224.1326
30
0.0000
93
36
90
3
90
2
90
3
90
0
90
3
90
6
90
4
90
7
90
3
90
0
90
1
90
2
90
3
90
4
90
6
90
5
90
4
90
1
90
0
90
4
90
5
90
4
90
2
90
1
90
5
90
6
90
4
90
3
90
2
90
6
90
7
90
4
90
0
90
3
90
7
90
4
94
0
95
0
  0
MESH
  5
13ca
330
1F
  100
AcDbEntity
8
buildings
  100
AcDbSubDMesh
71
2
72
0
91
0
92
8
10
119.4539
20
219.3020
30
9.0000
10
122.6005
20
235.5645
30
9.0000
10
113.8106
20
237.2537
30
9.0000
10
110.6641
20
220.9912
30
9.0000
10
119.4539
20
219.3020
30
0.0000
10
122.6005
20
235.5645
30
0.0000
10
113.8106
20
237.2537
30
0.0000
10
110.6641
20
220.9912
30
0.0000
93
36
90
3
90
2
90
3
90
0
90
3
90
6
90
4
90
7
90
3
90
0
90
1
90
2
90
3
90
4
90
6
90
5
90
4
90
1
90
0
90
4
90
5
90
4
90
2
90
1
90
5
90
6
90
4
90
3
90
2
90
6
90
7
90
4
90
0
90
3
90
7
90
4
94
0
95
0
0
LWPOLYLINE
  5
13cb
330
1F
  100
AcDbEntity
8
minor_roads
  100
AcDbPolyline
70
0
38
0.0000
90
4
10
44.9230
20
154.4712
10
63.7277
20
149.1646
10
114.3019
20
139.2313
10
166.2640
20
126.5549
  0
MESH
  5
13cc
330
1F
  100
AcDbEntity
8
buildings
  100
AcDbSubDMesh
71
2
72
0
91
0
92
8
10
25.2599
20
95.8415
30
3.0000
10
26.9205
20
105.2219
30
3.0000
10
10.9580
20
108.0032
30
3.0000
10
9.2975
20
98.6135
30
3.0000
10
25.2599
20
95.8415
30
0.0000
10
26.9205
20
105.2219
30
0.0000
10
10.9580
20
108.0032
30
0.0000
10
9.2975
20
98.6135
30
0.0000
93
36
90
3
90
2
90
3
90
0
90
3
90
6
90
4
90
7
90
3
90
0
90
1
90
2
90
3
90
4
90
6
90
5
90
4
90
1
90
0
90
4
90
5
90
4
90
2
90
1
90
5
90
6
90
4
90
3
90
2
90
6
90
7
90
4
90
0
90
3
90
7
90
4
94
0
95
0
  0
MESH
  5
13cd
330
1F
  100
AcDbEntity
8
buildings
  100
AcDbSubDMesh
71
2
72
0
91
0
92
8
10
261.6360
20
13.5263
30
3.0000
10
265.2841
20
29.5987
30
3.0000
10
256.1719
20
31.6375
30
3.0000
10
252.5324
20
15.5651
30
3.0000
10
261.6360
20
13.5263
30
0.0000
10
265.2841
20
29.5987
30
0.0000
10
256.1719
20
31.6375
30
0.0000
10
252.5324
20
15.5651
30
0.0000
93
36
90
3
90
2
90
3
90
0
90
3
90
6
90
4
90
7
90
3
90
0
90
1
90
2
90
3
90
4
90
6
90
5
90
4
90
1
90
0
90
4
90
5
90
4
90
2
90
1
90
5
90
6
90
4
90
3
90
2
90
6
90
7
90
4
90
0
90
3
90
7
90
4
94
0
95
0
  0
MESH
  5
13ce
330
1F
  100
AcDbEntity
8
buildings
  100
AcDbSubDMesh
71
2
72
0
91
0
92
8
10
206.3040
20
11.6268
30
3.0000
10
197.0199
20
13.6176
30
3.0000
10
194.4607
20
1.8236
30
3.0000
10
204.2070
20
1.9162
30
3.0000
10
206.3040
20
11.6268
30
0.0000
10
197.0199
20
13.6176
30
0.0000
10
194.4607
20
1.8236
30
0.0000
10
204.2070
20
1.9162
30
0.0000
93
36
90
3
90
1
90
2
90
3
90
3
90
5
90
7
90
6
90
3
90
3
90
0
90
1
90
3
90
7
90
5
90
4
90
4
90
1
90
0
90
4
90
5
90
4
90
2
90
1
90
5
90
6
90
4
90
3
90
2
90
6
90
7
90
4
90
0
90
3
90
7
90
4
94
0
95
0
  0
MESH
  5
13cf
330
1F
  100
AcDbEntity
8
buildings
  100
AcDbSubDMesh
71
2
72
0
91
0
92
8
10
245.8561
20
2.5174
30
3.0000
10
234.9061
20
4.7707
30
3.0000
10
234.3697
20
2.2027
30
3.0000
10
245.8131
20
2.3114
30
3.0000
10
245.8561
20
2.5174
30
0.0000
10
234.9061
20
4.7707
30
0.0000
10
234.3697
20
2.2027
30
0.0000
10
245.8131
20
2.3114
30
0.0000
93
36
90
3
90
1
90
2
90
3
90
3
90
5
90
7
90
6
90
3
90
3
90
0
90
1
90
3
90
7
90
5
90
4
90
4
90
1
90
0
90
4
90
5
90
4
90
2
90
1
90
5
90
6
90
4
90
3
90
2
90
6
90
7
90
4
90
0
90
3
90
7
90
4
94
0
95
0
  0
MESH
  5
13d0
330
1F
  100
AcDbEntity
8
buildings
  100
AcDbSubDMesh
71
2
72
0
91
0
92
8
10
232.8916
20
5.4291
30
3.0000
10
222.6181
20
7.2341
30
3.0000
10
221.7036
20
2.0824
30
3.0000
10
232.3154
20
2.1832
30
3.0000
10
232.8916
20
5.4291
30
0.0000
10
222.6181
20
7.2341
30
0.0000
10
221.7036
20
2.0824
30
0.0000
10
232.3154
20
2.1832
30
0.0000
93
36
90
3
90
1
90
2
90
3
90
3
90
5
90
7
90
6
90
3
90
3
90
0
90
1
90
3
90
7
90
5
90
4
90
4
90
1
90
0
90
4
90
5
90
4
90
2
90
1
90
5
90
6
90
4
90
3
90
2
90
6
90
7
90
4
90
0
90
3
90
7
90
4
94
0
95
0
  0
MESH
  5
13d1
330
1F
  100
AcDbEntity
8
buildings
  100
AcDbSubDMesh
71
2
72
0
91
0
92
8
10
184.3250
20
29.8874
30
3.0000
10
186.9366
20
42.5717
30
3.0000
10
176.4877
20
44.6999
30
3.0000
10
173.8761
20
32.0063
30
3.0000
10
184.3250
20
29.8874
30
0.0000
10
186.9366
20
42.5717
30
0.0000
10
176.4877
20
44.6999
30
0.0000
10
173.8761
20
32.0063
30
0.0000
93
36
90
3
90
2
90
3
90
0
90
3
90
6
90
4
90
7
90
3
90
0
90
1
90
2
90
3
90
4
90
6
90
5
90
4
90
1
90
0
90
4
90
5
90
4
90
2
90
1
90
5
90
6
90
4
90
3
90
2
90
6
90
7
90
4
90
0
90
3
90
7
90
4
94
0
95
0
  0
MESH
  5
13d2
330
1F
  100
AcDbEntity
8
buildings
  100
AcDbSubDMesh
71
2
72
0
91
0
92
8
10
162.8441
20
59.2251
30
3.0000
10
164.6728
20
70.8625
30
3.0000
10
154.8500
20
72.4026
30
3.0000
10
153.0214
20
60.7560
30
3.0000
10
162.8441
20
59.2251
30
0.0000
10
164.6728
20
70.8625
30
0.0000
10
154.8500
20
72.4026
30
0.0000
10
153.0214
20
60.7560
30
0.0000
93
36
90
3
90
2
90
3
90
0
90
3
90
6
90
4
90
7
90
3
90
0
90
1
90
2
90
3
90
4
90
6
90
5
90
4
90
1
90
0
90
4
90
5
90
4
90
2
90
1
90
5
90
6
90
4
90
3
90
2
90
6
90
7
90
4
90
0
90
3
90
7
90
4
94
0
95
0
  0
MESH
  5
13d3
330
1F
  100
AcDbEntity
8
buildings
  100
AcDbSubDMesh
71
2
72
0
91
0
92
8
10
215.0414
20
48.1289
30
3.0000
10
217.4570
20
60.5793
30
3.0000
10
208.2959
20
62.3299
30
3.0000
10
205.8716
20
49.8795
30
3.0000
10
215.0414
20
48.1289
30
0.0000
10
217.4570
20
60.5793
30
0.0000
10
208.2959
20
62.3299
30
0.0000
10
205.8716
20
49.8795
30
0.0000
93
36
90
3
90
2
90
3
90
0
90
3
90
6
90
4
90
7
90
3
90
0
90
1
90
2
90
3
90
4
90
6
90
5
90
4
90
1
90
0
90
4
90
5
90
4
90
2
90
1
90
5
90
6
90
4
90
3
90
2
90
6
90
7
90
4
90
0
90
3
90
7
90
4
94
0
95
0
0
LWPOLYLINE
  5
13d4
330
1F
  100
AcDbEntity
8
parks
  100
AcDbPolyline
70
0
38
0.0000
90
6
10
162.7856
20
1.5228
10
156.6041
20
1.4641
10
142.6980
20
4.2938
10
151.3322
20
46.2243
10
171.1680
20
42.1806
10
162.7856
20
1.5228
  0
MESH
  5
13d5
330
1F
  100
AcDbEntity
8
buildings
  100
AcDbSubDMesh
71
2
72
0
91
0
92
8
10
10.5775
20
17.3047
30
3.0000
10
12.2686
20
26.2027
30
3.0000
10
2.1879
20
28.1056
30
3.0000
10
2.2755
20
18.8745
30
3.0000
10
10.5775
20
17.3047
30
0.0000
10
12.2686
20
26.2027
30
0.0000
10
2.1879
20
28.1056
30
0.0000
10
2.2755
20
18.8745
30
0.0000
93
36
90
3
90
2
90
3
90
1
90
3
90
6
90
5
90
7
90
3
90
0
90
1
90
3
90
3
90
4
90
7
90
5
90
4
90
1
90
0
90
4
90
5
90
4
90
2
90
1
90
5
90
6
90
4
90
3
90
2
90
6
90
7
90
4
90
0
90
3
90
7
90
4
94
0
95
0
  0
MESH
  5
13d6
330
1F
  100
AcDbEntity
8
buildings
  100
AcDbSubDMesh
71
2
72
0
91
0
92
8
10
12.8626
20
33.5404
30
3.0000
10
14.8948
20
43.7225
30
3.0000
10
2.0156
20
46.2661
30
3.0000
10
2.1163
20
35.6567
30
3.0000
10
12.8626
20
33.5404
30
0.0000
10
14.8948
20
43.7225
30
0.0000
10
2.0156
20
46.2661
30
0.0000
10
2.1163
20
35.6567
30
0.0000
93
36
90
3
90
2
90
3
90
1
90
3
90
6
90
5
90
7
90
3
90
0
90
1
90
3
90
3
90
4
90
7
90
5
90
4
90
1
90
0
90
4
90
5
90
4
90
2
90
1
90
5
90
6
90
4
90
3
90
2
90
6
90
7
90
4
90
0
90
3
90
7
90
4
94
0
95
0
  0
MESH
  5
13d7
330
1F
  100
AcDbEntity
8
buildings
  100
AcDbSubDMesh
71
2
72
0
91
0
92
8
10
21.6379
20
70.6367
30
3.0000
10
23.4724
20
79.8517
30
3.0000
10
6.2370
20
83.2614
30
3.0000
10
4.4025
20
74.0371
30
3.0000
10
21.6379
20
70.6367
30
0.0000
10
23.4724
20
79.8517
30
0.0000
10
6.2370
20
83.2614
30
0.0000
10
4.4025
20
74.0371
30
0.0000
93
36
90
3
90
2
90
3
90
0
90
3
90
6
90
4
90
7
90
3
90
0
90
1
90
2
90
3
90
4
90
6
90
5
90
4
90
1
90
0
90
4
90
5
90
4
90
2
90
1
90
5
90
6
90
4
90
3
90
2
90
6
90
7
90
4
90
0
90
3
90
7
90
4
94
0
95
0
  0
MESH
  5
13d8
330
1F
  100
AcDbEntity
8
buildings
  100
AcDbSubDMesh
71
2
72
0
91
0
92
8
10
6.2795
20
3.3886
30
3.0000
10
2.4161
20
4.0576
30
3.0000
10
2.4546
20
0.0000
30
3.0000
10
5.6904
20
0.0307
30
3.0000
10
6.2795
20
3.3886
30
0.0000
10
2.4161
20
4.0576
30
0.0000
10
2.4546
20
0.0000
30
0.0000
10
5.6904
20
0.0307
30
0.0000
93
36
90
3
90
1
90
2
90
3
90
3
90
5
90
7
90
6
90
3
90
3
90
0
90
1
90
3
90
7
90
5
90
4
90
4
90
1
90
0
90
4
90
5
90
4
90
2
90
1
90
5
90
6
90
4
90
3
90
2
90
6
90
7
90
4
90
0
90
3
90
7
90
4
94
0
95
0
  0
MESH
  5
13d9
330
1F
  100
AcDbEntity
8
buildings
  100
AcDbSubDMesh
71
2
72
0
91
0
92
8
10
34.1290
20
29.5008
30
3.0000
10
37.0803
20
43.6453
30
3.0000
10
25.8971
20
45.9523
30
3.0000
10
22.9458
20
31.8077
30
3.0000
10
34.1290
20
29.5008
30
0.0000
10
37.0803
20
43.6453
30
0.0000
10
25.8971
20
45.9523
30
0.0000
10
22.9458
20
31.8077
30
0.0000
93
36
90
3
90
2
90
3
90
0
90
3
90
6
90
4
90
7
90
3
90
0
90
1
90
2
90
3
90
4
90
6
90
5
90
4
90
1
90
0
90
4
90
5
90
4
90
2
90
1
90
5
90
6
90
4
90
3
90
2
90
6
90
7
90
4
90
0
90
3
90
7
90
4
94
0
95
0
  0
MESH
  5
13da
330
1F
  100
AcDbEntity
8
buildings
  100
AcDbSubDMesh
71
2
72
0
91
0
92
8
10
100.2946
20
10.5272
30
3.0000
10
90.0975
20
12.4536
30
3.0000
10
87.8595
20
0.8112
30
3.0000
10
98.4566
20
0.9118
30
3.0000
10
100.2946
20
10.5272
30
0.0000
10
90.0975
20
12.4536
30
0.0000
10
87.8595
20
0.8112
30
0.0000
10
98.4566
20
0.9118
30
0.0000
93
36
90
3
90
1
90
2
90
3
90
3
90
5
90
7
90
6
90
3
90
3
90
0
90
1
90
3
90
7
90
5
90
4
90
4
90
1
90
0
90
4
90
5
90
4
90
2
90
1
90
5
90
6
90
4
90
3
90
2
90
6
90
7
90
4
90
0
90
3
90
7
90
4
94
0
95
0
  0
MESH
  5
13db
330
1F
  100
AcDbEntity
8
buildings
  100
AcDbSubDMesh
71
2
72
0
91
0
92
8
10
44.6997
20
3.6419
30
3.0000
10
47.8616
20
18.2989
30
3.0000
10
38.0163
20
20.3958
30
3.0000
10
34.8544
20
5.7388
30
3.0000
10
44.6997
20
3.6419
30
0.0000
10
47.8616
20
18.2989
30
0.0000
10
38.0163
20
20.3958
30
0.0000
10
34.8544
20
5.7388
30
0.0000
93
36
90
3
90
2
90
3
90
0
90
3
90
6
90
4
90
7
90
3
90
0
90
1
90
2
90
3
90
4
90
6
90
5
90
4
90
1
90
0
90
4
90
5
90
4
90
2
90
1
90
5
90
6
90
4
90
3
90
2
90
6
90
7
90
4
90
0
90
3
90
7
90
4
94
0
95
0
  0
MESH
  5
13dc
330
1F
  100
AcDbEntity
8
buildings
  100
AcDbSubDMesh
71
2
72
0
91
0
92
8
10
62.6825
20
27.7392
30
3.0000
10
65.5093
20
41.3814
30
3.0000
10
56.3641
20
43.2622
30
3.0000
10
53.5200
20
29.6291
30
3.0000
10
62.6825
20
27.7392
30
0.0000
10
65.5093
20
41.3814
30
0.0000
10
56.3641
20
43.2622
30
0.0000
10
53.5200
20
29.6291
30
0.0000
93
36
90
3
90
2
90
3
90
0
90
3
90
6
90
4
90
7
90
3
90
0
90
1
90
2
90
3
90
4
90
6
90
5
90
4
90
1
90
0
90
4
90
5
90
4
90
2
90
1
90
5
90
6
90
4
90
3
90
2
90
6
90
7
90
4
90
0
90
3
90
7
90
4
94
0
95
0
  0
MESH
  5
13dd
330
1F
  100
AcDbEntity
8
buildings
  100
AcDbSubDMesh
71
2
72
0
91
0
92
8
10
119.6732
20
42.8331
30
3.0000
10
122.1892
20
55.6092
30
3.0000
10
112.1643
20
57.5558
30
3.0000
10
109.6569
20
44.7798
30
3.0000
10
119.6732
20
42.8331
30
0.0000
10
122.1892
20
55.6092
30
0.0000
10
112.1643
20
57.5558
30
0.0000
10
109.6569
20
44.7798
30
0.0000
93
36
90
3
90
2
90
3
90
0
90
3
90
6
90
4
90
7
90
3
90
0
90
1
90
2
90
3
90
4
90
6
90
5
90
4
90
1
90
0
90
4
90
5
90
4
90
2
90
1
90
5
90
6
90
4
90
3
90
2
90
6
90
7
90
4
90
0
90
3
90
7
90
4
94
0
95
0
  0
MESH
  5
13de
330
1F
  100
AcDbEntity
8
buildings
  100
AcDbSubDMesh
71
2
72
0
91
0
92
8
10
65.3796
20
53.2229
30
3.0000
10
68.4063
20
64.8716
30
3.0000
10
60.0860
20
67.0201
30
3.0000
10
57.0508
20
55.3620
30
3.0000
10
65.3796
20
53.2229
30
0.0000
10
68.4063
20
64.8716
30
0.0000
10
60.0860
20
67.0201
30
0.0000
10
57.0508
20
55.3620
30
0.0000
93
36
90
3
90
2
90
3
90
0
90
3
90
6
90
4
90
7
90
3
90
0
90
1
90
2
90
3
90
4
90
6
90
5
90
4
90
1
90
0
90
4
90
5
90
4
90
2
90
1
90
5
90
6
90
4
90
3
90
2
90
6
90
7
90
4
90
0
90
3
90
7
90
4
94
0
95
0
0
LWPOLYLINE
  5
13df
330
1F
  100
AcDbEntity
8
minor_roads
  100
AcDbPolyline
70
0
38
0.0000
90
2
10
16.3938
20
28.3580
10
2.1552
20
31.5568
  0
MESH
  5
13e0
330
1F
  100
AcDbEntity
8
buildings
  100
AcDbSubDMesh
71
2
72
0
91
0
92
8
10
28.9367
20
106.1877
30
3.0000
10
30.3360
20
113.1247
30
3.0000
10
12.9019
20
116.5881
30
3.0000
10
11.5028
20
109.6326
30
3.0000
10
28.9367
20
106.1877
30
0.0000
10
30.3360
20
113.1247
30
0.0000
10
12.9019
20
116.5881
30
0.0000
10
11.5028
20
109.6326
30
0.0000
93
36
90
3
90
2
90
3
90
0
90
3
90
6
90
4
90
7
90
3
90
0
90
1
90
2
90
3
90
4
90
6
90
5
90
4
90
1
90
0
90
4
90
5
90
4
90
2
90
1
90
5
90
6
90
4
90
3
90
2
90
6
90
7
90
4
90
0
90
3
90
7
90
4
94
0
95
0
  0
MESH
  5
13e1
330
1F
  100
AcDbEntity
8
buildings
  100
AcDbSubDMesh
71
2
72
0
91
0
92
8
10
212.8625
20
98.7552
30
3.0000
10
215.4893
20
112.5627
30
3.0000
10
205.4219
20
114.4439
30
3.0000
10
202.7951
20
100.6365
30
3.0000
10
212.8625
20
98.7552
30
0.0000
10
215.4893
20
112.5627
30
0.0000
10
205.4219
20
114.4439
30
0.0000
10
202.7951
20
100.6365
30
0.0000
93
36
90
3
90
2
90
3
90
0
90
3
90
6
90
4
90
7
90
3
90
0
90
1
90
2
90
3
90
4
90
6
90
5
90
4
90
1
90
0
90
4
90
5
90
4
90
2
90
1
90
5
90
6
90
4
90
3
90
2
90
6
90
7
90
4
90
0
90
3
90
7
90
4
94
0
95
0
0
LWPOLYLINE
  5
13e2
330
1F
  100
AcDbEntity
8
minor_roads
  100
AcDbPolyline
70
0
38
0.0000
90
11
10
64.1871
20
259.3030
10
63.7317
20
257.6886
10
63.2818
20
254.2410
10
52.7315
20
202.6029
10
52.0097
20
199.6446
10
44.9230
20
154.4712
10
32.4206
20
103.2601
10
23.3646
20
53.9750
10
16.3938
20
28.3580
10
11.7549
20
2.2248
10
11.3598
20
0.0846
  0
MESH
  5
13e3
330
1F
  100
AcDbEntity
8
buildings
  100
AcDbSubDMesh
71
2
72
0
91
0
92
18
10
42.3291
20
112.6630
30
3.0000
10
43.5564
20
107.7650
30
3.0000
10
47.3436
20
104.6546
30
3.0000
10
52.0966
20
103.3262
30
3.0000
10
57.2568
20
122.6427
30
3.0000
10
44.5815
20
125.0747
30
3.0000
10
42.2153
20
124.6532
30
3.0000
10
41.6362
20
122.1046
30
3.0000
10
41.0882
20
117.1804
30
3.0000
10
42.3291
20
112.6630
30
0.0000
10
43.5564
20
107.7650
30
0.0000
10
47.3436
20
104.6546
30
0.0000
10
52.0966
20
103.3262
30
0.0000
10
57.2568
20
122.6427
30
0.0000
10
44.5815
20
125.0747
30
0.0000
10
42.2153
20
124.6532
30
0.0000
10
41.6362
20
122.1046
30
0.0000
10
41.0882
20
117.1804
30
0.0000
93
101
90
3
90
7
90
8
90
5
90
3
90
16
90
14
90
17
90
3
90
5
90
6
90
7
90
3
90
14
90
16
90
15
90
3
90
4
90
8
90
0
90
3
90
13
90
9
90
17
90
3
90
3
90
4
90
0
90
3
90
12
90
9
90
13
90
3
90
4
90
5
90
8
90
3
90
13
90
17
90
14
90
3
90
2
90
3
90
0
90
3
90
11
90
9
90
12
90
3
90
0
90
1
90
2
90
3
90
9
90
11
90
10
90
4
90
1
90
0
90
9
90
10
90
4
90
2
90
1
90
10
90
11
90
4
90
3
90
2
90
11
90
12
90
4
90
4
90
3
90
12
90
13
90
4
90
5
90
4
90
13
90
14
90
4
90
6
90
5
90
14
90
15
90
4
90
7
90
6
90
15
90
16
90
4
90
8
90
7
90
16
90
17
90
4
90
0
90
8
90
17
90
9
94
0
95
0
  0
MESH
  5
13e4
330
1F
  100
AcDbEntity
8
buildings
  100
AcDbSubDMesh
71
2
72
0
91
0
92
8
10
105.8996
20
42.9065
30
3.0000
10
108.6880
20
56.9567
30
3.0000
10
99.4746
20
58.7626
30
3.0000
10
96.6863
20
44.7123
30
3.0000
10
105.8996
20
42.9065
30
0.0000
10
108.6880
20
56.9567
30
0.0000
10
99.4746
20
58.7626
30
0.0000
10
96.6863
20
44.7123
30
0.0000
93
36
90
3
90
2
90
3
90
0
90
3
90
6
90
4
90
7
90
3
90
0
90
1
90
2
90
3
90
4
90
6
90
5
90
4
90
1
90
0
90
4
90
5
90
4
90
2
90
1
90
5
90
6
90
4
90
3
90
2
90
6
90
7
90
4
90
0
90
3
90
7
90
4
94
0
95
0
0
LWPOLYLINE
  5
13e5
330
1F
  100
AcDbEntity
8
major_roads
  100
AcDbPolyline
70
0
38
0.0000
90
3
10
167.3283
20
260.2827
10
297.2103
20
232.4254
10
300.9590
20
232.0550
  0
MESH
  5
13e6
330
1F
  100
AcDbEntity
8
buildings
  100
AcDbSubDMesh
71
2
72
0
91
0
92
8
10
277.2669
20
157.1516
30
3.0000
10
281.0770
20
172.5016
30
3.0000
10
271.0213
20
174.9769
30
3.0000
10
267.2112
20
159.6268
30
3.0000
10
277.2669
20
157.1516
30
0.0000
10
281.0770
20
172.5016
30
0.0000
10
271.0213
20
174.9769
30
0.0000
10
267.2112
20
159.6268
30
0.0000
93
36
90
3
90
2
90
3
90
0
90
3
90
6
90
4
90
7
90
3
90
0
90
1
90
2
90
3
90
4
90
6
90
5
90
4
90
1
90
0
90
4
90
5
90
4
90
2
90
1
90
5
90
6
90
4
90
3
90
2
90
6
90
7
90
4
90
0
90
3
90
7
90
4
94
0
95
0
  0
MESH
  5
13e7
330
1F
  100
AcDbEntity
8
buildings
  100
AcDbSubDMesh
71
2
72
0
91
0
92
8
10
290.9018
20
154.4226
30
3.0000
10
294.2180
20
169.1369
30
3.0000
10
284.2595
20
171.3625
30
3.0000
10
280.9605
20
156.6484
30
3.0000
10
290.9018
20
154.4226
30
0.0000
10
294.2180
20
169.1369
30
0.0000
10
284.2595
20
171.3625
30
0.0000
10
280.9605
20
156.6484
30
0.0000
93
36
90
3
90
2
90
3
90
0
90
3
90
6
90
4
90
7
90
3
90
0
90
1
90
2
90
3
90
4
90
6
90
5
90
4
90
1
90
0
90
4
90
5
90
4
90
2
90
1
90
5
90
6
90
4
90
3
90
2
90
6
90
7
90
4
90
0
90
3
90
7
90
4
94
0
95
0
  0
MESH
  5
13e8
330
1F
  100
AcDbEntity
8
buildings
  100
AcDbSubDMesh
71
2
72
0
91
0
92
8
10
283.6063
20
181.1385
30
15.0000
10
286.1471
20
195.8269
30
15.0000
10
272.5509
20
199.0202
30
15.0000
10
269.5086
20
184.5035
30
15.0000
10
283.6063
20
181.1385
30
0.0000
10
286.1471
20
195.8269
30
0.0000
10
272.5509
20
199.0202
30
0.0000
10
269.5086
20
184.5035
30
0.0000
93
36
90
3
90
2
90
3
90
1
90
3
90
6
90
5
90
7
90
3
90
0
90
1
90
3
90
3
90
4
90
7
90
5
90
4
90
1
90
0
90
4
90
5
90
4
90
2
90
1
90
5
90
6
90
4
90
3
90
2
90
6
90
7
90
4
90
0
90
3
90
7
90
4
94
0
95
0
  0
MESH
  5
13e9
330
1F
  100
AcDbEntity
8
buildings
  100
AcDbSubDMesh
71
2
72
0
91
0
92
8
10
294.6036
20
55.1499
30
3.0000
10
298.0790
20
68.5385
30
3.0000
10
289.8192
20
70.6688
30
3.0000
10
286.3267
20
57.2708
30
3.0000
10
294.6036
20
55.1499
30
0.0000
10
298.0790
20
68.5385
30
0.0000
10
289.8192
20
70.6688
30
0.0000
10
286.3267
20
57.2708
30
0.0000
93
36
90
3
90
2
90
3
90
0
90
3
90
6
90
4
90
7
90
3
90
0
90
1
90
2
90
3
90
4
90
6
90
5
90
4
90
1
90
0
90
4
90
5
90
4
90
2
90
1
90
5
90
6
90
4
90
3
90
2
90
6
90
7
90
4
90
0
90
3
90
7
90
4
94
0
95
0
  0
MESH
  5
13ea
330
1F
  100
AcDbEntity
8
buildings
  100
AcDbSubDMesh
71
2
72
0
91
0
92
8
10
249.1071
20
143.8068
30
3.0000
10
251.1557
20
154.9636
30
3.0000
10
241.5984
20
156.6919
30
3.0000
10
239.5584
20
145.5259
30
3.0000
10
249.1071
20
143.8068
30
0.0000
10
251.1557
20
154.9636
30
0.0000
10
241.5984
20
156.6919
30
0.0000
10
239.5584
20
145.5259
30
0.0000
93
36
90
3
90
2
90
3
90
0
90
3
90
6
90
4
90
7
90
3
90
0
90
1
90
2
90
3
90
4
90
6
90
5
90
4
90
1
90
0
90
4
90
5
90
4
90
2
90
1
90
5
90
6
90
4
90
3
90
2
90
6
90
7
90
4
90
0
90
3
90
7
90
4
94
0
95
0
  0
MESH
  5
13eb
330
1F
  100
AcDbEntity
8
buildings
  100
AcDbSubDMesh
71
2
72
0
91
0
92
8
10
137.0274
20
189.3609
30
3.0000
10
140.4119
20
205.0689
30
3.0000
10
130.7135
20
207.1300
30
3.0000
10
127.3376
20
191.4221
30
3.0000
10
137.0274
20
189.3609
30
0.0000
10
140.4119
20
205.0689
30
0.0000
10
130.7135
20
207.1300
30
0.0000
10
127.3376
20
191.4221
30
0.0000
93
36
90
3
90
2
90
3
90
0
90
3
90
6
90
4
90
7
90
3
90
0
90
1
90
2
90
3
90
4
90
6
90
5
90
4
90
1
90
0
90
4
90
5
90
4
90
2
90
1
90
5
90
6
90
4
90
3
90
2
90
6
90
7
90
4
90
0
90
3
90
7
90
4
94
0
95
0
  0
MESH
  5
13ec
330
1F
  100
AcDbEntity
8
buildings
  100
AcDbSubDMesh
71
2
72
0
91
0
92
8
10
102.0534
20
150.2616
30
3.0000
10
105.8377
20
164.7111
30
3.0000
10
97.9147
20
166.7798
30
3.0000
10
94.1219
20
152.3117
30
3.0000
10
102.0534
20
150.2616
30
0.0000
10
105.8377
20
164.7111
30
0.0000
10
97.9147
20
166.7798
30
0.0000
10
94.1219
20
152.3117
30
0.0000
93
36
90
3
90
2
90
3
90
0
90
3
90
6
90
4
90
7
90
3
90
0
90
1
90
2
90
3
90
4
90
6
90
5
90
4
90
1
90
0
90
4
90
5
90
4
90
2
90
1
90
5
90
6
90
4
90
3
90
2
90
6
90
7
90
4
90
0
90
3
90
7
90
4
94
0
95
0
  0
MESH
  5
13ed
330
1F
  100
AcDbEntity
8
buildings
  100
AcDbSubDMesh
71
2
72
0
91
0
92
8
10
15.9684
20
174.9118
30
3.0000
10
18.7969
20
187.4589
30
3.0000
10
4.3385
20
190.6907
30
3.0000
10
1.5100
20
178.1437
30
3.0000
10
15.9684
20
174.9118
30
0.0000
10
18.7969
20
187.4589
30
0.0000
10
4.3385
20
190.6907
30
0.0000
10
1.5100
20
178.1437
30
0.0000
93
36
90
3
90
2
90
3
90
0
90
3
90
6
90
4
90
7
90
3
90
0
90
1
90
2
90
3
90
4
90
6
90
5
90
4
90
1
90
0
90
4
90
5
90
4
90
2
90
1
90
5
90
6
90
4
90
3
90
2
90
6
90
7
90
4
90
0
90
3
90
7
90
4
94
0
95
0
  0
MESH
  5
13ee
330
1F
  100
AcDbEntity
8
buildings
  100
AcDbSubDMesh
71
2
72
0
91
0
92
8
10
57.9578
20
158.6600
30
3.0000
10
65.4294
20
159.6591
30
3.0000
10
66.7264
20
170.1126
30
3.0000
10
55.2508
20
173.2614
30
3.0000
10
57.9578
20
158.6600
30
0.0000
10
65.4294
20
159.6591
30
0.0000
10
66.7264
20
170.1126
30
0.0000
10
55.2508
20
173.2614
30
0.0000
93
36
90
3
90
3
90
0
90
2
90
3
90
7
90
6
90
4
90
3
90
1
90
2
90
0
90
3
90
5
90
4
90
6
90
4
90
1
90
0
90
4
90
5
90
4
90
2
90
1
90
5
90
6
90
4
90
3
90
2
90
6
90
7
90
4
90
0
90
3
90
7
90
4
94
0
95
0
  0
MESH
  5
13ef
330
1F
  100
AcDbEntity
8
buildings
  100
AcDbSubDMesh
71
2
72
0
91
0
92
8
10
247.8040
20
15.2139
30
3.0000
10
250.7173
20
30.6111
30
3.0000
10
241.7551
20
32.2801
30
3.0000
10
238.8503
20
16.8922
30
3.0000
10
247.8040
20
15.2139
30
0.0000
10
250.7173
20
30.6111
30
0.0000
10
241.7551
20
32.2801
30
0.0000
10
238.8503
20
16.8922
30
0.0000
93
36
90
3
90
2
90
3
90
0
90
3
90
6
90
4
90
7
90
3
90
0
90
1
90
2
90
3
90
4
90
6
90
5
90
4
90
1
90
0
90
4
90
5
90
4
90
2
90
1
90
5
90
6
90
4
90
3
90
2
90
6
90
7
90
4
90
0
90
3
90
7
90
4
94
0
95
0
  0
MESH
  5
13f0
330
1F
  100
AcDbEntity
8
buildings
  100
AcDbSubDMesh
71
2
72
0
91
0
92
8
10
196.8111
20
24.7065
30
3.0000
10
200.1262
20
40.4602
30
3.0000
10
190.1690
20
42.5374
30
3.0000
10
186.8367
20
26.7835
30
3.0000
10
196.8111
20
24.7065
30
0.0000
10
200.1262
20
40.4602
30
0.0000
10
190.1690
20
42.5374
30
0.0000
10
186.8367
20
26.7835
30
0.0000
93
36
90
3
90
2
90
3
90
0
90
3
90
6
90
4
90
7
90
3
90
0
90
1
90
2
90
3
90
4
90
6
90
5
90
4
90
1
90
0
90
4
90
5
90
4
90
2
90
1
90
5
90
6
90
4
90
3
90
2
90
6
90
7
90
4
90
0
90
3
90
7
90
4
94
0
95
0
  0
MESH
  5
13f1
330
1F
  100
AcDbEntity
8
buildings
  100
AcDbSubDMesh
71
2
72
0
91
0
92
8
10
142.9786
20
89.0887
30
3.0000
10
146.2337
20
104.8139
30
3.0000
10
136.7949
20
106.7569
30
3.0000
10
133.5313
20
91.0222
30
3.0000
10
142.9786
20
89.0887
30
0.0000
10
146.2337
20
104.8139
30
0.0000
10
136.7949
20
106.7569
30
0.0000
10
133.5313
20
91.0222
30
0.0000
93
36
90
3
90
2
90
3
90
0
90
3
90
6
90
4
90
7
90
3
90
0
90
1
90
2
90
3
90
4
90
6
90
5
90
4
90
1
90
0
90
4
90
5
90
4
90
2
90
1
90
5
90
6
90
4
90
3
90
2
90
6
90
7
90
4
90
0
90
3
90
7
90
4
94
0
95
0
  0
MESH
  5
13f2
330
1F
  100
AcDbEntity
8
buildings
  100
AcDbSubDMesh
71
2
72
0
91
0
92
8
10
19.2788
20
60.3866
30
3.0000
10
21.2253
20
68.7024
30
3.0000
10
4.0360
20
72.6972
30
3.0000
10
2.0724
20
64.3720
30
3.0000
10
19.2788
20
60.3866
30
0.0000
10
21.2253
20
68.7024
30
0.0000
10
4.0360
20
72.6972
30
0.0000
10
2.0724
20
64.3720
30
0.0000
93
36
90
3
90
2
90
3
90
0
90
3
90
6
90
4
90
7
90
3
90
0
90
1
90
2
90
3
90
4
90
6
90
5
90
4
90
1
90
0
90
4
90
5
90
4
90
2
90
1
90
5
90
6
90
4
90
3
90
2
90
6
90
7
90
4
90
0
90
3
90
7
90
4
94
0
95
0
  0
MESH
  5
13f3
330
1F
  100
AcDbEntity
8
buildings
  100
AcDbSubDMesh
71
2
72
0
91
0
92
8
10
99.4586
20
72.2479
30
3.0000
10
101.5212
20
84.6763
30
3.0000
10
92.6474
20
86.1234
30
3.0000
10
90.5848
20
73.6950
30
3.0000
10
99.4586
20
72.2479
30
0.0000
10
101.5212
20
84.6763
30
0.0000
10
92.6474
20
86.1234
30
0.0000
10
90.5848
20
73.6950
30
0.0000
93
36
90
3
90
2
90
3
90
0
90
3
90
6
90
4
90
7
90
3
90
0
90
1
90
2
90
3
90
4
90
6
90
5
90
4
90
1
90
0
90
4
90
5
90
4
90
2
90
1
90
5
90
6
90
4
90
3
90
2
90
6
90
7
90
4
90
0
90
3
90
7
90
4
94
0
95
0
  0
MESH
  5
13f4
330
1F
  100
AcDbEntity
8
buildings
  100
AcDbSubDMesh
71
2
72
0
91
0
92
14
10
29.4354
20
65.4391
30
3.0000
10
31.1370
20
60.5177
30
3.0000
10
34.2070
20
56.7044
30
3.0000
10
40.5549
20
56.2264
30
3.0000
10
43.7168
20
72.7025
30
3.0000
10
30.1743
20
74.7736
30
3.0000
10
29.1155
20
70.0952
30
3.0000
10
29.4354
20
65.4391
30
0.0000
10
31.1370
20
60.5177
30
0.0000
10
34.2070
20
56.7044
30
0.0000
10
40.5549
20
56.2264
30
0.0000
10
43.7168
20
72.7025
30
0.0000
10
30.1743
20
74.7736
30
0.0000
10
29.1155
20
70.0952
30
0.0000
93
75
90
3
90
5
90
6
90
4
90
3
90
12
90
11
90
13
90
3
90
4
90
6
90
0
90
3
90
11
90
7
90
13
90
3
90
2
90
3
90
1
90
3
90
9
90
8
90
10
90
3
90
1
90
4
90
0
90
3
90
8
90
7
90
11
90
3
90
4
90
1
90
3
90
3
90
11
90
10
90
8
90
4
90
1
90
0
90
7
90
8
90
4
90
2
90
1
90
8
90
9
90
4
90
3
90
2
90
9
90
10
90
4
90
4
90
3
90
10
90
11
90
4
90
5
90
4
90
11
90
12
90
4
90
6
90
5
90
12
90
13
90
4
90
0
90
6
90
13
90
7
94
0
95
0
0
LWPOLYLINE
  5
13f5
330
1F
  100
AcDbEntity
8
minor_roads
  100
AcDbPolyline
70
0
38
0.0000
90
4
10
23.3646
20
53.9750
10
32.1763
20
51.8033
10
87.3302
20
40.6698
10
142.4872
20
29.2116
  0
MESH
  5
13f6
330
1F
  100
AcDbEntity
8
buildings
  100
AcDbSubDMesh
71
2
72
0
91
0
92
8
10
292.0858
20
32.6100
30
3.0000
10
294.9695
20
44.7678
30
3.0000
10
286.3403
20
46.7740
30
3.0000
10
283.4737
20
34.6256
30
3.0000
10
292.0858
20
32.6100
30
0.0000
10
294.9695
20
44.7678
30
0.0000
10
286.3403
20
46.7740
30
0.0000
10
283.4737
20
34.6256
30
0.0000
93
36
90
3
90
2
90
3
90
0
90
3
90
6
90
4
90
7
90
3
90
0
90
1
90
2
90
3
90
4
90
6
90
5
90
4
90
1
90
0
90
4
90
5
90
4
90
2
90
1
90
5
90
6
90
4
90
3
90
2
90
6
90
7
90
4
90
0
90
3
90
7
90
4
94
0
95
0
  0
MESH
  5
13f7
330
1F
  100
AcDbEntity
8
buildings
  100
AcDbSubDMesh
71
2
72
0
91
0
92
6
10
300.7755
20
173.8119
30
15.0000
10
301.5138
20
173.7062
30
15.0000
10
301.4864
20
176.5879
30
15.0000
10
300.7755
20
173.8119
30
0.0000
10
301.5138
20
173.7062
30
0.0000
10
301.4864
20
176.5879
30
0.0000
93
23
90
3
90
0
90
1
90
2
90
3
90
3
90
5
90
4
90
4
90
1
90
0
90
3
90
4
90
4
90
2
90
1
90
4
90
5
90
4
90
0
90
2
90
5
90
3
94
0
95
0
  0
MESH
  5
13f8
330
1F
  100
AcDbEntity
8
buildings
  100
AcDbSubDMesh
71
2
72
0
91
0
92
10
10
291.5610
20
16.1867
30
3.0000
10
288.8964
20
6.3605
30
3.0000
10
301.2529
20
3.0440
30
3.0000
10
303.0726
20
9.7547
30
3.0000
10
303.0408
20
13.1055
30
3.0000
10
291.5610
20
16.1867
30
0.0000
10
288.8964
20
6.3605
30
0.0000
10
301.2529
20
3.0440
30
0.0000
10
303.0726
20
9.7547
30
0.0000
10
303.0408
20
13.1055
30
0.0000
93
49
90
3
90
0
90
1
90
3
90
3
90
5
90
8
90
6
90
3
90
3
90
4
90
0
90
3
90
8
90
5
90
9
90
3
90
3
90
1
90
2
90
3
90
8
90
7
90
6
90
4
90
1
90
0
90
5
90
6
90
4
90
2
90
1
90
6
90
7
90
4
90
3
90
2
90
7
90
8
90
4
90
4
90
3
90
8
90
9
90
4
90
0
90
4
90
9
90
5
94
0
95
0
  0
MESH
  5
13f9
330
1F
  100
AcDbEntity
8
buildings
  100
AcDbSubDMesh
71
2
72
0
91
0
92
8
10
278.4634
20
86.5986
30
3.0000
10
280.8571
20
97.7216
30
3.0000
10
271.3917
20
99.7384
30
3.0000
10
268.9981
20
88.6062
30
3.0000
10
278.4634
20
86.5986
30
0.0000
10
280.8571
20
97.7216
30
0.0000
10
271.3917
20
99.7384
30
0.0000
10
268.9981
20
88.6062
30
0.0000
93
36
90
3
90
2
90
3
90
0
90
3
90
6
90
4
90
7
90
3
90
0
90
1
90
2
90
3
90
4
90
6
90
5
90
4
90
1
90
0
90
4
90
5
90
4
90
2
90
1
90
5
90
6
90
4
90
3
90
2
90
6
90
7
90
4
90
0
90
3
90
7
90
4
94
0
95
0
  0
MESH
  5
13fa
330
1F
  100
AcDbEntity
8
buildings
  100
AcDbSubDMesh
71
2
72
0
91
0
92
8
10
264.2878
20
186.0874
30
15.0000
10
267.3674
20
200.3075
30
15.0000
10
254.8535
20
202.9821
30
15.0000
10
251.7653
20
188.7619
30
15.0000
10
264.2878
20
186.0874
30
0.0000
10
267.3674
20
200.3075
30
0.0000
10
254.8535
20
202.9821
30
0.0000
10
251.7653
20
188.7619
30
0.0000
93
36
90
3
90
2
90
3
90
0
90
3
90
6
90
4
90
7
90
3
90
0
90
1
90
2
90
3
90
4
90
6
90
5
90
4
90
1
90
0
90
4
90
5
90
4
90
2
90
1
90
5
90
6
90
4
90
3
90
2
90
6
90
7
90
4
90
0
90
3
90
7
90
4
94
0
95
0
  0
MESH
  5
13fb
330
1F
  100
AcDbEntity
8
buildings
  100
AcDbSubDMesh
71
2
72
0
91
0
92
8
10
262.6299
20
141.9863
30
3.0000
10
264.9036
20
154.8623
30
3.0000
10
254.2590
20
156.7194
30
3.0000
10
251.9854
20
143.8434
30
3.0000
10
262.6299
20
141.9863
30
0.0000
10
264.9036
20
154.8623
30
0.0000
10
254.2590
20
156.7194
30
0.0000
10
251.9854
20
143.8434
30
0.0000
93
36
90
3
90
2
90
3
90
0
90
3
90
6
90
4
90
7
90
3
90
0
90
1
90
2
90
3
90
4
90
6
90
5
90
4
90
1
90
0
90
4
90
5
90
4
90
2
90
1
90
5
90
6
90
4
90
3
90
2
90
6
90
7
90
4
90
0
90
3
90
7
90
4
94
0
95
0
0
LWPOLYLINE
  5
13fc
330
1F
  100
AcDbEntity
8
parks
  100
AcDbPolyline
70
0
38
0.0000
90
6
10
181.0424
20
260.4129
10
300.6786
20
261.5493
10
300.9269
20
235.4281
10
295.6318
20
236.1878
10
200.1535
20
256.1999
10
181.0424
20
260.4129
0
LWPOLYLINE
  5
13fd
330
1F
  100
AcDbEntity
8
paths
  100
AcDbPolyline
70
0
38
0.0000
90
2
10
201.0637
20
260.6031
10
300.8934
20
238.9537
  0
MESH
  5
13fe
330
1F
  100
AcDbEntity
8
buildings
  100
AcDbSubDMesh
71
2
72
0
91
0
92
8
10
264.9753
20
88.3823
30
3.0000
10
267.5631
20
100.8436
30
3.0000
10
257.4681
20
102.9194
30
3.0000
10
254.8716
20
90.4581
30
3.0000
10
264.9753
20
88.3823
30
0.0000
10
267.5631
20
100.8436
30
0.0000
10
257.4681
20
102.9194
30
0.0000
10
254.8716
20
90.4581
30
0.0000
93
36
90
3
90
2
90
3
90
0
90
3
90
6
90
4
90
7
90
3
90
0
90
1
90
2
90
3
90
4
90
6
90
5
90
4
90
1
90
0
90
4
90
5
90
4
90
2
90
1
90
5
90
6
90
4
90
3
90
2
90
6
90
7
90
4
90
0
90
3
90
7
90
4
94
0
95
0
0
LWPOLYLINE
  5
13ff
330
1F
  100
AcDbEntity
8
minor_roads
  100
AcDbPolyline
70
0
38
0.0000
90
3
10
52.7315
20
202.6029
10
61.8078
20
200.6936
10
301.7387
20
150.0509
0
LWPOLYLINE
  5
1400
330
1F
  100
AcDbEntity
8
minor_roads
  100
AcDbPolyline
70
0
38
0.0000
90
2
10
174.0034
20
20.4247
10
259.2236
20
2.4387
  0
MESH
  5
1401
330
1F
  100
AcDbEntity
8
buildings
  100
AcDbSubDMesh
71
2
72
0
91
0
92
12
10
51.4464
20
239.0190
30
3.0000
10
53.4533
20
251.8553
30
3.0000
10
46.1168
20
252.9829
30
3.0000
10
44.6624
20
243.6694
30
3.0000
10
41.2185
20
244.2029
30
3.0000
10
40.6658
20
240.6894
30
3.0000
10
51.4464
20
239.0190
30
0.0000
10
53.4533
20
251.8553
30
0.0000
10
46.1168
20
252.9829
30
0.0000
10
44.6624
20
243.6694
30
0.0000
10
41.2185
20
244.2029
30
0.0000
10
40.6658
20
240.6894
30
0.0000
93
62
90
3
90
5
90
3
90
4
90
3
90
11
90
10
90
9
90
3
90
3
90
5
90
0
90
3
90
9
90
6
90
11
90
3
90
3
90
1
90
2
90
3
90
9
90
8
90
7
90
3
90
1
90
3
90
0
90
3
90
7
90
6
90
9
90
4
90
1
90
0
90
6
90
7
90
4
90
2
90
1
90
7
90
8
90
4
90
3
90
2
90
8
90
9
90
4
90
4
90
3
90
9
90
10
90
4
90
5
90
4
90
10
90
11
90
4
90
0
90
5
90
11
90
6
94
0
95
0
  0
MESH
  5
1402
330
1F
  100
AcDbEntity
8
buildings
  100
AcDbSubDMesh
71
2
72
0
91
0
92
8
10
115.7479
20
144.8787
30
3.0000
10
119.5543
20
161.5373
30
3.0000
10
110.2347
20
163.6484
30
3.0000
10
106.4197
20
146.9804
30
3.0000
10
115.7479
20
144.8787
30
0.0000
10
119.5543
20
161.5373
30
0.0000
10
110.2347
20
163.6484
30
0.0000
10
106.4197
20
146.9804
30
0.0000
93
36
90
3
90
2
90
3
90
0
90
3
90
6
90
4
90
7
90
3
90
0
90
1
90
2
90
3
90
4
90
6
90
5
90
4
90
1
90
0
90
4
90
5
90
4
90
2
90
1
90
5
90
6
90
4
90
3
90
2
90
6
90
7
90
4
90
0
90
3
90
7
90
4
94
0
95
0
  0
MESH
  5
1403
330
1F
  100
AcDbEntity
8
buildings
  100
AcDbSubDMesh
71
2
72
0
91
0
92
8
10
267.7755
20
112.9575
30
3.0000
10
271.2230
20
127.4595
30
3.0000
10
261.9372
20
129.6358
30
3.0000
10
258.5069
20
115.1340
30
3.0000
10
267.7755
20
112.9575
30
0.0000
10
271.2230
20
127.4595
30
0.0000
10
261.9372
20
129.6358
30
0.0000
10
258.5069
20
115.1340
30
0.0000
93
36
90
3
90
2
90
3
90
0
90
3
90
6
90
4
90
7
90
3
90
0
90
1
90
2
90
3
90
4
90
6
90
5
90
4
90
1
90
0
90
4
90
5
90
4
90
2
90
1
90
5
90
6
90
4
90
3
90
2
90
6
90
7
90
4
90
0
90
3
90
7
90
4
94
0
95
0
  0
MESH
  5
1404
330
1F
  100
AcDbEntity
8
buildings
  100
AcDbSubDMesh
71
2
72
0
91
0
92
8
10
66.4307
20
104.1119
30
3.0000
10
69.6613
20
120.6072
30
3.0000
10
60.1114
20
122.4563
30
3.0000
10
56.8894
20
105.9611
30
3.0000
10
66.4307
20
104.1119
30
0.0000
10
69.6613
20
120.6072
30
0.0000
10
60.1114
20
122.4563
30
0.0000
10
56.8894
20
105.9611
30
0.0000
93
36
90
3
90
2
90
3
90
0
90
3
90
6
90
4
90
7
90
3
90
0
90
1
90
2
90
3
90
4
90
6
90
5
90
4
90
1
90
0
90
4
90
5
90
4
90
2
90
1
90
5
90
6
90
4
90
3
90
2
90
6
90
7
90
4
90
0
90
3
90
7
90
4
94
0
95
0
  0
MESH
  5
1405
330
1F
  100
AcDbEntity
8
buildings
  100
AcDbSubDMesh
71
2
72
0
91
0
92
8
10
79.7211
20
102.2705
30
3.0000
10
83.7311
20
117.4553
30
3.0000
10
73.9505
20
120.0076
30
3.0000
10
69.9405
20
104.8134
30
3.0000
10
79.7211
20
102.2705
30
0.0000
10
83.7311
20
117.4553
30
0.0000
10
73.9505
20
120.0076
30
0.0000
10
69.9405
20
104.8134
30
0.0000
93
36
90
3
90
2
90
3
90
0
90
3
90
6
90
4
90
7
90
3
90
0
90
1
90
2
90
3
90
4
90
6
90
5
90
4
90
1
90
0
90
4
90
5
90
4
90
2
90
1
90
5
90
6
90
4
90
3
90
2
90
6
90
7
90
4
90
0
90
3
90
7
90
4
94
0
95
0
  0
MESH
  5
1406
330
1F
  100
AcDbEntity
8
buildings
  100
AcDbSubDMesh
71
2
72
0
91
0
92
8
10
105.5001
20
97.6983
30
3.0000
10
108.7310
20
112.3375
30
3.0000
10
99.2912
20
114.3918
30
3.0000
10
96.0603
20
99.7526
30
3.0000
10
105.5001
20
97.6983
30
0.0000
10
108.7310
20
112.3375
30
0.0000
10
99.2912
20
114.3918
30
0.0000
10
96.0603
20
99.7526
30
0.0000
93
36
90
3
90
2
90
3
90
0
90
3
90
6
90
4
90
7
90
3
90
0
90
1
90
2
90
3
90
4
90
6
90
5
90
4
90
1
90
0
90
4
90
5
90
4
90
2
90
1
90
5
90
6
90
4
90
3
90
2
90
6
90
7
90
4
90
0
90
3
90
7
90
4
94
0
95
0
0
LWPOLYLINE
  5
1407
330
1F
  100
AcDbEntity
8
minor_roads
  100
AcDbPolyline
70
0
38
0.0000
90
2
10
52.0097
20
199.6446
10
0.4391
20
212.4176
  0
MESH
  5
1408
330
1F
  100
AcDbEntity
8
buildings
  100
AcDbSubDMesh
71
2
72
0
91
0
92
8
10
134.2929
20
116.1070
30
3.0000
10
137.0116
20
129.3120
30
3.0000
10
127.6163
20
131.2275
30
3.0000
10
124.9062
20
118.0133
30
3.0000
10
134.2929
20
116.1070
30
0.0000
10
137.0116
20
129.3120
30
0.0000
10
127.6163
20
131.2275
30
0.0000
10
124.9062
20
118.0133
30
0.0000
93
36
90
3
90
2
90
3
90
0
90
3
90
6
90
4
90
7
90
3
90
0
90
1
90
2
90
3
90
4
90
6
90
5
90
4
90
1
90
0
90
4
90
5
90
4
90
2
90
1
90
5
90
6
90
4
90
3
90
2
90
6
90
7
90
4
90
0
90
3
90
7
90
4
94
0
95
0
  0
MESH
  5
1409
330
1F
  100
AcDbEntity
8
buildings
  100
AcDbSubDMesh
71
2
72
0
91
0
92
10
10
73.7678
20
15.7790
30
3.0000
10
64.2519
20
17.6748
30
3.0000
10
61.0247
20
1.7271
30
3.0000
10
66.6081
20
0.6093
30
3.0000
10
70.7078
20
0.6483
30
3.0000
10
73.7678
20
15.7790
30
0.0000
10
64.2519
20
17.6748
30
0.0000
10
61.0247
20
1.7271
30
0.0000
10
66.6081
20
0.6093
30
0.0000
10
70.7078
20
0.6483
30
0.0000
93
49
90
3
90
1
90
2
90
3
90
3
90
6
90
8
90
7
90
3
90
3
90
4
90
0
90
3
90
8
90
5
90
9
90
3
90
3
90
0
90
1
90
3
90
8
90
6
90
5
90
4
90
1
90
0
90
5
90
6
90
4
90
2
90
1
90
6
90
7
90
4
90
3
90
2
90
7
90
8
90
4
90
4
90
3
90
8
90
9
90
4
90
0
90
4
90
9
90
5
94
0
95
0
  0
MESH
  5
140a
330
1F
  100
AcDbEntity
8
buildings
  100
AcDbSubDMesh
71
2
72
0
91
0
92
8
10
89.8506
20
23.0225
30
3.0000
10
92.0085
20
35.3961
30
3.0000
10
81.8563
20
37.1374
30
3.0000
10
79.7070
20
24.7638
30
3.0000
10
89.8506
20
23.0225
30
0.0000
10
92.0085
20
35.3961
30
0.0000
10
81.8563
20
37.1374
30
0.0000
10
79.7070
20
24.7638
30
0.0000
93
36
90
3
90
2
90
3
90
0
90
3
90
6
90
4
90
7
90
3
90
0
90
1
90
2
90
3
90
4
90
6
90
5
90
4
90
1
90
0
90
4
90
5
90
4
90
2
90
1
90
5
90
6
90
4
90
3
90
2
90
6
90
7
90
4
90
0
90
3
90
7
90
4
94
0
95
0
  0
MESH
  5
140b
330
1F
  100
AcDbEntity
8
buildings
  100
AcDbSubDMesh
71
2
72
0
91
0
92
8
10
60.2569
20
78.9850
30
3.0000
10
63.2524
20
92.0998
30
3.0000
10
53.6650
20
94.2641
30
3.0000
10
50.6782
20
81.1401
30
3.0000
10
60.2569
20
78.9850
30
0.0000
10
63.2524
20
92.0998
30
0.0000
10
53.6650
20
94.2641
30
0.0000
10
50.6782
20
81.1401
30
0.0000
93
36
90
3
90
2
90
3
90
0
90
3
90
6
90
4
90
7
90
3
90
0
90
1
90
2
90
3
90
4
90
6
90
5
90
4
90
1
90
0
90
4
90
5
90
4
90
2
90
1
90
5
90
6
90
4
90
3
90
2
90
6
90
7
90
4
90
0
90
3
90
7
90
4
94
0
95
0
  0
MESH
  5
140c
330
1F
  100
AcDbEntity
8
buildings
  100
AcDbSubDMesh
71
2
72
0
91
0
92
8
10
86.6165
20
74.0842
30
3.0000
10
89.6667
20
86.8747
30
3.0000
10
80.1303
20
89.1230
30
3.0000
10
77.0886
20
76.3326
30
3.0000
10
86.6165
20
74.0842
30
0.0000
10
89.6667
20
86.8747
30
0.0000
10
80.1303
20
89.1230
30
0.0000
10
77.0886
20
76.3326
30
0.0000
93
36
90
3
90
2
90
3
90
0
90
3
90
6
90
4
90
7
90
3
90
0
90
1
90
2
90
3
90
4
90
6
90
5
90
4
90
1
90
0
90
4
90
5
90
4
90
2
90
1
90
5
90
6
90
4
90
3
90
2
90
6
90
7
90
4
90
0
90
3
90
7
90
4
94
0
95
0
  0
MESH
  5
140d
330
1F
  100
AcDbEntity
8
buildings
  100
AcDbSubDMesh
71
2
72
0
91
0
92
8
10
79.6361
20
51.2978
30
3.0000
10
81.4171
20
62.5170
30
3.0000
10
72.8116
20
63.8461
30
3.0000
10
71.0391
20
52.6362
30
3.0000
10
79.6361
20
51.2978
30
0.0000
10
81.4171
20
62.5170
30
0.0000
10
72.8116
20
63.8461
30
0.0000
10
71.0391
20
52.6362
30
0.0000
93
36
90
3
90
2
90
3
90
0
90
3
90
6
90
4
90
7
90
3
90
0
90
1
90
2
90
3
90
4
90
6
90
5
90
4
90
1
90
0
90
4
90
5
90
4
90
2
90
1
90
5
90
6
90
4
90
3
90
2
90
6
90
7
90
4
90
0
90
3
90
7
90
4
94
0
95
0
  0
MESH
  5
140e
330
1F
  100
AcDbEntity
8
buildings
  100
AcDbSubDMesh
71
2
72
0
91
0
92
8
10
12.8850
20
164.6919
30
3.0000
10
14.0636
20
169.4643
30
3.0000
10
0.8160
20
172.6989
30
3.0000
10
0.8641
20
167.6270
30
3.0000
10
12.8850
20
164.6919
30
0.0000
10
14.0636
20
169.4643
30
0.0000
10
0.8160
20
172.6989
30
0.0000
10
0.8641
20
167.6270
30
0.0000
93
36
90
3
90
2
90
3
90
1
90
3
90
6
90
5
90
7
90
3
90
0
90
1
90
3
90
3
90
4
90
7
90
5
90
4
90
1
90
0
90
4
90
5
90
4
90
2
90
1
90
5
90
6
90
4
90
3
90
2
90
6
90
7
90
4
90
0
90
3
90
7
90
4
94
0
95
0
  0
MESH
  5
140f
330
1F
  100
AcDbEntity
8
buildings
  100
AcDbSubDMesh
71
2
72
0
91
0
92
8
10
42.6660
20
175.2395
30
3.0000
10
44.6780
20
184.8181
30
3.0000
10
30.2738
20
187.7998
30
3.0000
10
28.2530
20
178.2304
30
3.0000
10
42.6660
20
175.2395
30
0.0000
10
44.6780
20
184.8181
30
0.0000
10
30.2738
20
187.7998
30
0.0000
10
28.2530
20
178.2304
30
0.0000
93
36
90
3
90
2
90
3
90
0
90
3
90
6
90
4
90
7
90
3
90
0
90
1
90
2
90
3
90
4
90
6
90
5
90
4
90
1
90
0
90
4
90
5
90
4
90
2
90
1
90
5
90
6
90
4
90
3
90
2
90
6
90
7
90
4
90
0
90
3
90
7
90
4
94
0
95
0
  0
MESH
  5
1410
330
1F
  100
AcDbEntity
8
buildings
  100
AcDbSubDMesh
71
2
72
0
91
0
92
8
10
95.1702
20
176.2483
30
3.0000
10
97.8631
20
189.4531
30
3.0000
10
87.3887
20
191.5533
30
3.0000
10
84.7043
20
178.3579
30
3.0000
10
95.1702
20
176.2483
30
0.0000
10
97.8631
20
189.4531
30
0.0000
10
87.3887
20
191.5533
30
0.0000
10
84.7043
20
178.3579
30
0.0000
93
36
90
3
90
2
90
3
90
0
90
3
90
6
90
4
90
7
90
3
90
0
90
1
90
2
90
3
90
4
90
6
90
5
90
4
90
1
90
0
90
4
90
5
90
4
90
2
90
1
90
5
90
6
90
4
90
3
90
2
90
6
90
7
90
4
90
0
90
3
90
7
90
4
94
0
95
0
  0
MESH
  5
1411
330
1F
  100
AcDbEntity
8
buildings
  100
AcDbSubDMesh
71
2
72
0
91
0
92
8
10
76.5604
20
227.3034
30
9.0000
10
80.6394
20
246.1178
30
9.0000
10
69.2914
20
248.5438
30
9.0000
10
65.2209
20
229.7387
30
9.0000
10
76.5604
20
227.3034
30
0.0000
10
80.6394
20
246.1178
30
0.0000
10
69.2914
20
248.5438
30
0.0000
10
65.2209
20
229.7387
30
0.0000
93
36
90
3
90
2
90
3
90
0
90
3
90
6
90
4
90
7
90
3
90
0
90
1
90
2
90
3
90
4
90
6
90
5
90
4
90
1
90
0
90
4
90
5
90
4
90
2
90
1
90
5
90
6
90
4
90
3
90
2
90
6
90
7
90
4
90
0
90
3
90
7
90
4
94
0
95
0
  0
MESH
  5
1412
330
1F
  100
AcDbEntity
8
buildings
  100
AcDbSubDMesh
71
2
72
0
91
0
92
8
10
114.7194
20
19.0171
30
3.0000
10
116.5929
20
30.4785
30
3.0000
10
108.1422
20
31.8368
30
3.0000
10
106.2686
20
20.3847
30
3.0000
10
114.7194
20
19.0171
30
0.0000
10
116.5929
20
30.4785
30
0.0000
10
108.1422
20
31.8368
30
0.0000
10
106.2686
20
20.3847
30
0.0000
93
36
90
3
90
2
90
3
90
0
90
3
90
6
90
4
90
7
90
3
90
0
90
1
90
2
90
3
90
4
90
6
90
5
90
4
90
1
90
0
90
4
90
5
90
4
90
2
90
1
90
5
90
6
90
4
90
3
90
2
90
6
90
7
90
4
90
0
90
3
90
7
90
4
94
0
95
0
  0
MESH
  5
1413
330
1F
  100
AcDbEntity
8
buildings
  100
AcDbSubDMesh
71
2
72
0
91
0
92
8
10
7.6061
20
5.2760
30
3.0000
10
9.5985
20
15.1143
30
3.0000
10
2.2973
20
16.5757
30
3.0000
10
2.3946
20
6.3213
30
3.0000
10
7.6061
20
5.2760
30
0.0000
10
9.5985
20
15.1143
30
0.0000
10
2.2973
20
16.5757
30
0.0000
10
2.3946
20
6.3213
30
0.0000
93
36
90
3
90
2
90
3
90
1
90
3
90
6
90
5
90
7
90
3
90
0
90
1
90
3
90
3
90
4
90
7
90
5
90
4
90
1
90
0
90
4
90
5
90
4
90
2
90
1
90
5
90
6
90
4
90
3
90
2
90
6
90
7
90
4
90
0
90
3
90
7
90
4
94
0
95
0
  0
MESH
  5
1414
330
1F
  100
AcDbEntity
8
buildings
  100
AcDbSubDMesh
71
2
72
0
91
0
92
8
10
3.4470
20
121.1482
30
3.0000
10
6.5673
20
133.8373
30
3.0000
10
1.1723
20
135.1442
30
3.0000
10
1.3002
20
121.6683
30
3.0000
10
3.4470
20
121.1482
30
0.0000
10
6.5673
20
133.8373
30
0.0000
10
1.1723
20
135.1442
30
0.0000
10
1.3002
20
121.6683
30
0.0000
93
36
90
3
90
2
90
3
90
1
90
3
90
6
90
5
90
7
90
3
90
0
90
1
90
3
90
3
90
4
90
7
90
5
90
4
90
1
90
0
90
4
90
5
90
4
90
2
90
1
90
5
90
6
90
4
90
3
90
2
90
6
90
7
90
4
90
0
90
3
90
7
90
4
94
0
95
0
  0
MESH
  5
1415
330
1F
  100
AcDbEntity
8
buildings
  100
AcDbSubDMesh
71
2
72
0
91
0
92
8
10
158.8658
20
108.7485
30
3.0000
10
162.2216
20
122.0338
30
3.0000
10
152.8050
20
124.3760
30
3.0000
10
149.4578
20
111.0908
30
3.0000
10
158.8658
20
108.7485
30
0.0000
10
162.2216
20
122.0338
30
0.0000
10
152.8050
20
124.3760
30
0.0000
10
149.4578
20
111.0908
30
0.0000
93
36
90
3
90
2
90
3
90
0
90
3
90
6
90
4
90
7
90
3
90
0
90
1
90
2
90
3
90
4
90
6
90
5
90
4
90
1
90
0
90
4
90
5
90
4
90
2
90
1
90
5
90
6
90
4
90
3
90
2
90
6
90
7
90
4
90
0
90
3
90
7
90
4
94
0
95
0
  0
MESH
  5
1416
330
1F
  100
AcDbEntity
8
buildings
  100
AcDbSubDMesh
71
2
72
0
91
0
92
8
10
156.3414
20
162.1930
30
3.0000
10
159.7049
20
174.6616
30
3.0000
10
150.8139
20
177.0181
30
3.0000
10
147.4588
20
164.5681
30
3.0000
10
156.3414
20
162.1930
30
0.0000
10
159.7049
20
174.6616
30
0.0000
10
150.8139
20
177.0181
30
0.0000
10
147.4588
20
164.5681
30
0.0000
93
36
90
3
90
2
90
3
90
0
90
3
90
6
90
4
90
7
90
3
90
0
90
1
90
2
90
3
90
4
90
6
90
5
90
4
90
1
90
0
90
4
90
5
90
4
90
2
90
1
90
5
90
6
90
4
90
3
90
2
90
6
90
7
90
4
90
0
90
3
90
7
90
4
94
0
95
0
  0
MESH
  5
1417
330
1F
  100
AcDbEntity
8
buildings
  100
AcDbSubDMesh
71
2
72
0
91
0
92
8
10
69.9627
20
128.8053
30
3.0000
10
73.6677
20
142.5301
30
3.0000
10
64.9840
20
144.8422
30
3.0000
10
61.2875
20
131.1175
30
3.0000
10
69.9627
20
128.8053
30
0.0000
10
73.6677
20
142.5301
30
0.0000
10
64.9840
20
144.8422
30
0.0000
10
61.2875
20
131.1175
30
0.0000
93
36
90
3
90
2
90
3
90
0
90
3
90
6
90
4
90
7
90
3
90
0
90
1
90
2
90
3
90
4
90
6
90
5
90
4
90
1
90
0
90
4
90
5
90
4
90
2
90
1
90
5
90
6
90
4
90
3
90
2
90
6
90
7
90
4
90
0
90
3
90
7
90
4
94
0
95
0
  0
MESH
  5
1418
330
1F
  100
AcDbEntity
8
buildings
  100
AcDbSubDMesh
71
2
72
0
91
0
92
16
10
58.7163
20
135.0468
30
3.0000
10
60.3995
20
145.6804
30
3.0000
10
57.0329
20
146.2331
30
3.0000
10
55.2565
20
145.4274
30
3.0000
10
52.1097
20
144.6179
30
3.0000
10
49.1627
20
141.8335
30
3.0000
10
48.2026
20
139.4669
30
3.0000
10
48.0473
20
134.9456
30
3.0000
10
58.7163
20
135.0468
30
0.0000
10
60.3995
20
145.6804
30
0.0000
10
57.0329
20
146.2331
30
0.0000
10
55.2565
20
145.4274
30
0.0000
10
52.1097
20
144.6179
30
0.0000
10
49.1627
20
141.8335
30
0.0000
10
48.2026
20
139.4669
30
0.0000
10
48.0473
20
134.9456
30
0.0000
93
88
90
3
90
0
90
5
90
6
90
3
90
8
90
14
90
13
90
3
90
0
90
4
90
5
90
3
90
8
90
13
90
12
90
3
90
6
90
7
90
0
90
3
90
14
90
8
90
15
90
3
90
3
90
0
90
1
90
3
90
11
90
9
90
8
90
3
90
0
90
3
90
4
90
3
90
8
90
12
90
11
90
3
90
1
90
2
90
3
90
3
90
9
90
11
90
10
90
4
90
1
90
0
90
8
90
9
90
4
90
2
90
1
90
9
90
10
90
4
90
3
90
2
90
10
90
11
90
4
90
4
90
3
90
11
90
12
90
4
90
5
90
4
90
12
90
13
90
4
90
6
90
5
90
13
90
14
90
4
90
7
90
6
90
14
90
15
90
4
90
0
90
7
90
15
90
8
94
0
95
0
  0
MESH
  5
1419
330
1F
  100
AcDbEntity
8
buildings
  100
AcDbSubDMesh
71
2
72
0
91
0
92
8
10
123.8350
20
189.9689
30
3.0000
10
127.4997
20
206.1249
30
3.0000
10
117.4116
20
208.3865
30
3.0000
10
113.7555
20
192.2305
30
3.0000
10
123.8350
20
189.9689
30
0.0000
10
127.4997
20
206.1249
30
0.0000
10
117.4116
20
208.3865
30
0.0000
10
113.7555
20
192.2305
30
0.0000
93
36
90
3
90
2
90
3
90
0
90
3
90
6
90
4
90
7
90
3
90
0
90
1
90
2
90
3
90
4
90
6
90
5
90
4
90
1
90
0
90
4
90
5
90
4
90
2
90
1
90
5
90
6
90
4
90
3
90
2
90
6
90
7
90
4
90
0
90
3
90
7
90
4
94
0
95
0
  0
MESH
  5
141a
330
1F
  100
AcDbEntity
8
buildings
  100
AcDbSubDMesh
71
2
72
0
91
0
92
8
10
280.4030
20
36.6847
30
3.0000
10
283.0124
20
48.6914
30
3.0000
10
273.6678
20
50.7001
30
3.0000
10
271.0584
20
38.6934
30
3.0000
10
280.4030
20
36.6847
30
0.0000
10
283.0124
20
48.6914
30
0.0000
10
273.6678
20
50.7001
30
0.0000
10
271.0584
20
38.6934
30
0.0000
93
36
90
3
90
2
90
3
90
0
90
3
90
6
90
4
90
7
90
3
90
0
90
1
90
2
90
3
90
4
90
6
90
5
90
4
90
1
90
0
90
4
90
5
90
4
90
2
90
1
90
5
90
6
90
4
90
3
90
2
90
6
90
7
90
4
90
0
90
3
90
7
90
4
94
0
95
0
  0
MESH
  5
141b
330
1F
  100
AcDbEntity
8
buildings
  100
AcDbSubDMesh
71
2
72
0
91
0
92
8
10
298.9872
20
118.9621
30
3.0000
10
295.5461
20
104.6922
30
3.0000
10
302.1850
20
103.1101
30
3.0000
10
302.0412
20
118.2317
30
3.0000
10
298.9872
20
118.9621
30
0.0000
10
295.5461
20
104.6922
30
0.0000
10
302.1850
20
103.1101
30
0.0000
10
302.0412
20
118.2317
30
0.0000
93
36
90
3
90
0
90
1
90
3
90
3
90
4
90
7
90
5
90
3
90
2
90
3
90
1
90
3
90
6
90
5
90
7
90
4
90
1
90
0
90
4
90
5
90
4
90
2
90
1
90
5
90
6
90
4
90
3
90
2
90
6
90
7
90
4
90
0
90
3
90
7
90
4
94
0
95
0
0
LWPOLYLINE
  5
141c
330
1F
  100
AcDbEntity
8
minor_roads
  100
AcDbPolyline
70
0
38
0.0000
90
3
10
32.4206
20
103.2601
10
40.6084
20
101.4444
10
302.7266
20
46.1464
  0
MESH
  5
141d
330
1F
  100
AcDbEntity
8
buildings
  100
AcDbSubDMesh
71
2
72
0
91
0
92
8
10
296.4029
20
166.8652
30
3.0000
10
292.9486
20
153.0777
30
3.0000
10
301.7306
20
150.9059
30
3.0000
10
301.5910
20
165.5821
30
3.0000
10
296.4029
20
166.8652
30
0.0000
10
292.9486
20
153.0777
30
0.0000
10
301.7306
20
150.9059
30
0.0000
10
301.5910
20
165.5821
30
0.0000
93
36
90
3
90
0
90
1
90
3
90
3
90
4
90
7
90
5
90
3
90
2
90
3
90
1
90
3
90
6
90
5
90
7
90
4
90
1
90
0
90
4
90
5
90
4
90
2
90
1
90
5
90
6
90
4
90
3
90
2
90
6
90
7
90
4
90
0
90
3
90
7
90
4
94
0
95
0
  0
MESH
  5
141e
330
1F
  100
AcDbEntity
8
buildings
  100
AcDbSubDMesh
71
2
72
0
91
0
92
8
10
265.2394
20
161.2416
30
3.0000
10
268.1730
20
175.4046
30
3.0000
10
259.5375
20
177.1695
30
3.0000
10
256.5952
20
163.0156
30
3.0000
10
265.2394
20
161.2416
30
0.0000
10
268.1730
20
175.4046
30
0.0000
10
259.5375
20
177.1695
30
0.0000
10
256.5952
20
163.0156
30
0.0000
93
36
90
3
90
2
90
3
90
0
90
3
90
6
90
4
90
7
90
3
90
0
90
1
90
2
90
3
90
4
90
6
90
5
90
4
90
1
90
0
90
4
90
5
90
4
90
2
90
1
90
5
90
6
90
4
90
3
90
2
90
6
90
7
90
4
90
0
90
3
90
7
90
4
94
0
95
0
0
LWPOLYLINE
  5
141f
330
1F
  100
AcDbEntity
8
minor_roads
  100
AcDbPolyline
70
0
38
0.0000
90
3
10
11.7549
20
2.2248
10
19.1121
20
0.7446
10
21.7720
20
0.1835
0
LWPOLYLINE
  5
1420
330
1F
  100
AcDbEntity
8
minor_roads
  100
AcDbPolyline
70
0
38
0.0000
90
2
10
192.2140
20
120.3047
10
302.2423
20
97.0833
  0
MESH
  5
1421
330
1F
  100
AcDbEntity
8
buildings
  100
AcDbSubDMesh
71
2
72
0
91
0
92
6
10
2.0082
20
114.7399
30
3.0000
10
1.3644
20
114.8950
30
3.0000
10
1.3900
20
112.1964
30
3.0000
10
2.0082
20
114.7399
30
0.0000
10
1.3644
20
114.8950
30
0.0000
10
1.3900
20
112.1964
30
0.0000
93
23
90
3
90
1
90
2
90
0
90
3
90
4
90
3
90
5
90
4
90
1
90
0
90
3
90
4
90
4
90
2
90
1
90
4
90
5
90
4
90
0
90
2
90
5
90
3
94
0
95
0
  0
MESH
  5
1422
330
1F
  100
AcDbEntity
8
buildings
  100
AcDbSubDMesh
71
2
72
0
91
0
92
8
10
114.8117
20
92.8028
30
3.0000
10
118.9033
20
109.3806
30
3.0000
10
110.3164
20
111.4708
30
3.0000
10
106.2248
20
94.8930
30
3.0000
10
114.8117
20
92.8028
30
0.0000
10
118.9033
20
109.3806
30
0.0000
10
110.3164
20
111.4708
30
0.0000
10
106.2248
20
94.8930
30
0.0000
93
36
90
3
90
2
90
3
90
0
90
3
90
6
90
4
90
7
90
3
90
0
90
1
90
2
90
3
90
4
90
6
90
5
90
4
90
1
90
0
90
4
90
5
90
4
90
2
90
1
90
5
90
6
90
4
90
3
90
2
90
6
90
7
90
4
90
0
90
3
90
7
90
4
94
0
95
0
  0
MESH
  5
1423
330
1F
  100
AcDbEntity
8
buildings
  100
AcDbSubDMesh
71
2
72
0
91
0
92
8
10
173.2109
20
180.0616
30
3.0000
10
176.0426
20
194.9846
30
3.0000
10
165.9839
20
196.8660
30
3.0000
10
163.1695
20
181.9338
30
3.0000
10
173.2109
20
180.0616
30
0.0000
10
176.0426
20
194.9846
30
0.0000
10
165.9839
20
196.8660
30
0.0000
10
163.1695
20
181.9338
30
0.0000
93
36
90
3
90
2
90
3
90
0
90
3
90
6
90
4
90
7
90
3
90
0
90
1
90
2
90
3
90
4
90
6
90
5
90
4
90
1
90
0
90
4
90
5
90
4
90
2
90
1
90
5
90
6
90
4
90
3
90
2
90
6
90
7
90
4
90
0
90
3
90
7
90
4
94
0
95
0
  0
MESH
  5
1424
330
1F
  100
AcDbEntity
8
buildings
  100
AcDbSubDMesh
71
2
72
0
91
0
92
8
10
230.2827
20
192.8920
30
12.0000
10
233.7412
20
208.0531
30
12.0000
10
220.4226
20
211.0636
30
12.0000
10
216.9467
20
195.9116
30
12.0000
10
230.2827
20
192.8920
30
0.0000
10
233.7412
20
208.0531
30
0.0000
10
220.4226
20
211.0636
30
0.0000
10
216.9467
20
195.9116
30
0.0000
93
36
90
3
90
2
90
3
90
0
90
3
90
6
90
4
90
7
90
3
90
0
90
1
90
2
90
3
90
4
90
6
90
5
90
4
90
1
90
0
90
4
90
5
90
4
90
2
90
1
90
5
90
6
90
4
90
3
90
2
90
6
90
7
90
4
90
0
90
3
90
7
90
4
94
0
95
0
  0
MESH
  5
1425
330
1F
  100
AcDbEntity
8
buildings
  100
AcDbSubDMesh
71
2
72
0
91
0
92
8
10
86.7448
20
199.4639
30
3.0000
10
89.6302
20
216.9027
30
3.0000
10
79.3321
20
218.5962
30
3.0000
10
76.4467
20
201.1481
30
3.0000
10
86.7448
20
199.4639
30
0.0000
10
89.6302
20
216.9027
30
0.0000
10
79.3321
20
218.5962
30
0.0000
10
76.4467
20
201.1481
30
0.0000
93
36
90
3
90
2
90
3
90
0
90
3
90
6
90
4
90
7
90
3
90
0
90
1
90
2
90
3
90
4
90
6
90
5
90
4
90
1
90
0
90
4
90
5
90
4
90
2
90
1
90
5
90
6
90
4
90
3
90
2
90
6
90
7
90
4
90
0
90
3
90
7
90
4
94
0
95
0
  0
MESH
  5
1426
330
1F
  100
AcDbEntity
8
buildings
  100
AcDbSubDMesh
71
2
72
0
91
0
92
8
10
129.2007
20
219.4038
30
6.0000
10
132.2407
20
233.2708
30
6.0000
10
123.8892
20
235.0848
30
6.0000
10
120.8320
20
221.2177
30
6.0000
10
129.2007
20
219.4038
30
0.0000
10
132.2407
20
233.2708
30
0.0000
10
123.8892
20
235.0848
30
0.0000
10
120.8320
20
221.2177
30
0.0000
93
36
90
3
90
2
90
3
90
0
90
3
90
6
90
4
90
7
90
3
90
0
90
1
90
2
90
3
90
4
90
6
90
5
90
4
90
1
90
0
90
4
90
5
90
4
90
2
90
1
90
5
90
6
90
4
90
3
90
2
90
6
90
7
90
4
90
0
90
3
90
7
90
4
94
0
95
0
  0
MESH
  5
1427
330
1F
  100
AcDbEntity
8
buildings
  100
AcDbSubDMesh
71
2
72
0
91
0
92
8
10
224.9679
20
94.6288
30
3.0000
10
228.5013
20
109.1780
30
3.0000
10
218.7657
20
111.5172
30
3.0000
10
215.2324
20
96.9679
30
3.0000
10
224.9679
20
94.6288
30
0.0000
10
228.5013
20
109.1780
30
0.0000
10
218.7657
20
111.5172
30
0.0000
10
215.2324
20
96.9679
30
0.0000
93
36
90
3
90
2
90
3
90
0
90
3
90
6
90
4
90
7
90
3
90
0
90
1
90
2
90
3
90
4
90
6
90
5
90
4
90
1
90
0
90
4
90
5
90
4
90
2
90
1
90
5
90
6
90
4
90
3
90
2
90
6
90
7
90
4
90
0
90
3
90
7
90
4
94
0
95
0
  0
MESH
  5
1428
330
1F
  100
AcDbEntity
8
buildings
  100
AcDbSubDMesh
71
2
72
0
91
0
92
8
10
239.4269
20
45.1030
30
3.0000
10
241.0756
20
52.9983
30
3.0000
10
233.8387
20
54.5073
30
3.0000
10
232.1815
20
46.6026
30
3.0000
10
239.4269
20
45.1030
30
0.0000
10
241.0756
20
52.9983
30
0.0000
10
233.8387
20
54.5073
30
0.0000
10
232.1815
20
46.6026
30
0.0000
93
36
90
3
90
2
90
3
90
0
90
3
90
6
90
4
90
7
90
3
90
0
90
1
90
2
90
3
90
4
90
6
90
5
90
4
90
1
90
0
90
4
90
5
90
4
90
2
90
1
90
5
90
6
90
4
90
3
90
2
90
6
90
7
90
4
90
0
90
3
90
7
90
4
94
0
95
0
  0
MESH
  5
1429
330
1F
  100
AcDbEntity
8
buildings
  100
AcDbSubDMesh
71
2
72
0
91
0
92
8
10
193.8885
20
13.0031
30
3.0000
10
185.0765
20
15.1933
30
3.0000
10
181.6722
20
1.7022
30
3.0000
10
191.0753
20
1.7915
30
3.0000
10
193.8885
20
13.0031
30
0.0000
10
185.0765
20
15.1933
30
0.0000
10
181.6722
20
1.7022
30
0.0000
10
191.0753
20
1.7915
30
0.0000
93
36
90
3
90
1
90
2
90
3
90
3
90
5
90
7
90
6
90
3
90
3
90
0
90
1
90
3
90
7
90
5
90
4
90
4
90
1
90
0
90
4
90
5
90
4
90
2
90
1
90
5
90
6
90
4
90
3
90
2
90
6
90
7
90
4
90
0
90
3
90
7
90
4
94
0
95
0
  0
MESH
  5
142a
330
1F
  100
AcDbEntity
8
buildings
  100
AcDbSubDMesh
71
2
72
0
91
0
92
8
10
253.8170
20
40.9148
30
3.0000
10
256.7272
20
53.9174
30
3.0000
10
247.8312
20
55.8747
30
3.0000
10
244.9208
20
42.8906
30
3.0000
10
253.8170
20
40.9148
30
0.0000
10
256.7272
20
53.9174
30
0.0000
10
247.8312
20
55.8747
30
0.0000
10
244.9208
20
42.8906
30
0.0000
93
36
90
3
90
2
90
3
90
0
90
3
90
6
90
4
90
7
90
3
90
0
90
1
90
2
90
3
90
4
90
6
90
5
90
4
90
1
90
0
90
4
90
5
90
4
90
2
90
1
90
5
90
6
90
4
90
3
90
2
90
6
90
7
90
4
90
0
90
3
90
7
90
4
94
0
95
0
  0
MESH
  5
142b
330
1F
  100
AcDbEntity
8
buildings
  100
AcDbSubDMesh
71
2
72
0
91
0
92
8
10
208.7497
20
21.8222
30
3.0000
10
212.3272
20
37.1700
30
3.0000
10
203.3267
20
39.2470
30
3.0000
10
199.7492
20
23.8991
30
3.0000
10
208.7497
20
21.8222
30
0.0000
10
212.3272
20
37.1700
30
0.0000
10
203.3267
20
39.2470
30
0.0000
10
199.7492
20
23.8991
30
0.0000
93
36
90
3
90
2
90
3
90
0
90
3
90
6
90
4
90
7
90
3
90
0
90
1
90
2
90
3
90
4
90
6
90
5
90
4
90
1
90
0
90
4
90
5
90
4
90
2
90
1
90
5
90
6
90
4
90
3
90
2
90
6
90
7
90
4
90
0
90
3
90
7
90
4
94
0
95
0
  0
MESH
  5
142c
330
1F
  100
AcDbEntity
8
buildings
  100
AcDbSubDMesh
71
2
72
0
91
0
92
8
10
206.1708
20
71.9157
30
3.0000
10
210.1644
20
87.9171
30
3.0000
10
200.9034
20
90.1958
30
3.0000
10
196.9184
20
74.1944
30
3.0000
10
206.1708
20
71.9157
30
0.0000
10
210.1644
20
87.9171
30
0.0000
10
200.9034
20
90.1958
30
0.0000
10
196.9184
20
74.1944
30
0.0000
93
36
90
3
90
2
90
3
90
0
90
3
90
6
90
4
90
7
90
3
90
0
90
1
90
2
90
3
90
4
90
6
90
5
90
4
90
1
90
0
90
4
90
5
90
4
90
2
90
1
90
5
90
6
90
4
90
3
90
2
90
6
90
7
90
4
90
0
90
3
90
7
90
4
94
0
95
0
  0
MESH
  5
142d
330
1F
  100
AcDbEntity
8
buildings
  100
AcDbSubDMesh
71
2
72
0
91
0
92
8
10
244.9741
20
65.3978
30
3.0000
10
247.9880
20
82.0025
30
3.0000
10
238.9661
20
83.6152
30
3.0000
10
235.9521
20
67.0105
30
3.0000
10
244.9741
20
65.3978
30
0.0000
10
247.9880
20
82.0025
30
0.0000
10
238.9661
20
83.6152
30
0.0000
10
235.9521
20
67.0105
30
0.0000
93
36
90
3
90
2
90
3
90
0
90
3
90
6
90
4
90
7
90
3
90
0
90
1
90
2
90
3
90
4
90
6
90
5
90
4
90
1
90
0
90
4
90
5
90
4
90
2
90
1
90
5
90
6
90
4
90
3
90
2
90
6
90
7
90
4
90
0
90
3
90
7
90
4
94
0
95
0
  0
MESH
  5
142e
330
1F
  100
AcDbEntity
8
buildings
  100
AcDbSubDMesh
71
2
72
0
91
0
92
8
10
232.7559
20
67.7783
30
3.0000
10
236.9559
20
84.7284
30
3.0000
10
227.5568
20
87.0336
30
3.0000
10
223.3568
20
70.0835
30
3.0000
10
232.7559
20
67.7783
30
0.0000
10
236.9559
20
84.7284
30
0.0000
10
227.5568
20
87.0336
30
0.0000
10
223.3568
20
70.0835
30
0.0000
93
36
90
3
90
2
90
3
90
0
90
3
90
6
90
4
90
7
90
3
90
0
90
1
90
2
90
3
90
4
90
6
90
5
90
4
90
1
90
0
90
4
90
5
90
4
90
2
90
1
90
5
90
6
90
4
90
3
90
2
90
6
90
7
90
4
90
0
90
3
90
7
90
4
94
0
95
0
  0
MESH
  5
142f
330
1F
  100
AcDbEntity
8
buildings
  100
AcDbSubDMesh
71
2
72
0
91
0
92
8
10
219.2048
20
70.7494
30
3.0000
10
222.7855
20
86.6634
30
3.0000
10
213.7684
20
88.6753
30
3.0000
10
210.1877
20
72.7613
30
3.0000
10
219.2048
20
70.7494
30
0.0000
10
222.7855
20
86.6634
30
0.0000
10
213.7684
20
88.6753
30
0.0000
10
210.1877
20
72.7613
30
0.0000
93
36
90
3
90
2
90
3
90
0
90
3
90
6
90
4
90
7
90
3
90
0
90
1
90
2
90
3
90
4
90
6
90
5
90
4
90
1
90
0
90
4
90
5
90
4
90
2
90
1
90
5
90
6
90
4
90
3
90
2
90
6
90
7
90
4
90
0
90
3
90
7
90
4
94
0
95
0
  0
MESH
  5
1430
330
1F
  100
AcDbEntity
8
buildings
  100
AcDbSubDMesh
71
2
72
0
91
0
92
8
10
47.6038
20
82.6887
30
3.0000
10
49.8170
20
95.6012
30
3.0000
10
37.5413
20
97.6843
30
3.0000
10
35.3196
20
84.7718
30
3.0000
10
47.6038
20
82.6887
30
0.0000
10
49.8170
20
95.6012
30
0.0000
10
37.5413
20
97.6843
30
0.0000
10
35.3196
20
84.7718
30
0.0000
93
36
90
3
90
2
90
3
90
0
90
3
90
6
90
4
90
7
90
3
90
0
90
1
90
2
90
3
90
4
90
6
90
5
90
4
90
1
90
0
90
4
90
5
90
4
90
2
90
1
90
5
90
6
90
4
90
3
90
2
90
6
90
7
90
4
90
0
90
3
90
7
90
4
94
0
95
0
  0
MESH
  5
1431
330
1F
  100
AcDbEntity
8
buildings
  100
AcDbSubDMesh
71
2
72
0
91
0
92
8
10
282.4701
20
110.2757
30
3.0000
10
285.4326
20
125.9333
30
3.0000
10
275.2185
20
127.8409
30
3.0000
10
272.2473
20
112.1833
30
3.0000
10
282.4701
20
110.2757
30
0.0000
10
285.4326
20
125.9333
30
0.0000
10
275.2185
20
127.8409
30
0.0000
10
272.2473
20
112.1833
30
0.0000
93
36
90
3
90
2
90
3
90
0
90
3
90
6
90
4
90
7
90
3
90
0
90
1
90
2
90
3
90
4
90
6
90
5
90
4
90
1
90
0
90
4
90
5
90
4
90
2
90
1
90
5
90
6
90
4
90
3
90
2
90
6
90
7
90
4
90
0
90
3
90
7
90
4
94
0
95
0
  0
MESH
  5
1432
330
1F
  100
AcDbEntity
8
buildings
  100
AcDbSubDMesh
71
2
72
0
91
0
92
8
10
293.6739
20
105.8066
30
3.0000
10
297.6010
20
121.5291
30
3.0000
10
288.5043
20
123.7629
30
3.0000
10
284.5856
20
108.0498
30
3.0000
10
293.6739
20
105.8066
30
0.0000
10
297.6010
20
121.5291
30
0.0000
10
288.5043
20
123.7629
30
0.0000
10
284.5856
20
108.0498
30
0.0000
93
36
90
3
90
2
90
3
90
0
90
3
90
6
90
4
90
7
90
3
90
0
90
1
90
2
90
3
90
4
90
6
90
5
90
4
90
1
90
0
90
4
90
5
90
4
90
2
90
1
90
5
90
6
90
4
90
3
90
2
90
6
90
7
90
4
90
0
90
3
90
7
90
4
94
0
95
0
  0
MESH
  5
1433
330
1F
  100
AcDbEntity
8
buildings
  100
AcDbSubDMesh
71
2
72
0
91
0
92
8
10
291.1457
20
85.2528
30
3.0000
10
293.2217
20
95.3518
30
3.0000
10
283.4981
20
97.3291
30
3.0000
10
281.4309
20
87.2208
30
3.0000
10
291.1457
20
85.2528
30
0.0000
10
293.2217
20
95.3518
30
0.0000
10
283.4981
20
97.3291
30
0.0000
10
281.4309
20
87.2208
30
0.0000
93
36
90
3
90
2
90
3
90
0
90
3
90
6
90
4
90
7
90
3
90
0
90
1
90
2
90
3
90
4
90
6
90
5
90
4
90
1
90
0
90
4
90
5
90
4
90
2
90
1
90
5
90
6
90
4
90
3
90
2
90
6
90
7
90
4
90
0
90
3
90
7
90
4
94
0
95
0
  0
MESH
  5
1434
330
1F
  100
AcDbEntity
8
buildings
  100
AcDbSubDMesh
71
2
72
0
91
0
92
12
10
301.6493
20
65.5932
30
3.0000
10
298.1025
20
49.7444
30
3.0000
10
301.4881
20
49.0063
30
3.0000
10
302.1580
20
51.9826
30
3.0000
10
302.6722
20
51.8690
30
3.0000
10
302.5436
20
65.3951
30
3.0000
10
301.6493
20
65.5932
30
0.0000
10
298.1025
20
49.7444
30
0.0000
10
301.4881
20
49.0063
30
0.0000
10
302.1580
20
51.9826
30
0.0000
10
302.6722
20
51.8690
30
0.0000
10
302.5436
20
65.3951
30
0.0000
93
62
90
3
90
0
90
1
90
3
90
3
90
6
90
9
90
7
90
3
90
3
90
1
90
2
90
3
90
9
90
8
90
7
90
3
90
3
90
4
90
5
90
3
90
9
90
11
90
10
90
3
90
3
90
5
90
0
90
3
90
9
90
6
90
11
90
4
90
1
90
0
90
6
90
7
90
4
90
2
90
1
90
7
90
8
90
4
90
3
90
2
90
8
90
9
90
4
90
4
90
3
90
9
90
10
90
4
90
5
90
4
90
10
90
11
90
4
90
0
90
5
90
11
90
6
94
0
95
0
  0
MESH
  5
1435
330
1F
  100
AcDbEntity
8
buildings
  100
AcDbSubDMesh
71
2
72
0
91
0
92
8
10
286.0372
20
7.9390
30
3.0000
10
289.8209
20
24.2540
30
3.0000
10
280.4059
20
26.4105
30
3.0000
10
276.6222
20
10.0955
30
3.0000
10
286.0372
20
7.9390
30
0.0000
10
289.8209
20
24.2540
30
0.0000
10
280.4059
20
26.4105
30
0.0000
10
276.6222
20
10.0955
30
0.0000
93
36
90
3
90
2
90
3
90
0
90
3
90
6
90
4
90
7
90
3
90
0
90
1
90
2
90
3
90
4
90
6
90
5
90
4
90
1
90
0
90
4
90
5
90
4
90
2
90
1
90
5
90
6
90
4
90
3
90
2
90
6
90
7
90
4
90
0
90
3
90
7
90
4
94
0
95
0
  0
MESH
  5
1436
330
1F
  100
AcDbEntity
8
buildings
  100
AcDbSubDMesh
71
2
72
0
91
0
92
14
10
301.6560
20
30.4456
30
3.0000
10
302.8292
20
35.3602
30
3.0000
10
302.8133
20
37.0313
30
3.0000
10
295.9845
20
38.6426
30
3.0000
10
292.2627
20
23.0707
30
3.0000
10
302.9700
20
20.5490
30
3.0000
10
302.8786
20
30.1579
30
3.0000
10
301.6560
20
30.4456
30
0.0000
10
302.8292
20
35.3602
30
0.0000
10
302.8133
20
37.0313
30
0.0000
10
295.9845
20
38.6426
30
0.0000
10
292.2627
20
23.0707
30
0.0000
10
302.9700
20
20.5490
30
0.0000
10
302.8786
20
30.1579
30
0.0000
93
75
90
3
90
4
90
0
90
3
90
3
90
11
90
10
90
7
90
3
90
0
90
4
90
5
90
3
90
7
90
12
90
11
90
3
90
3
90
0
90
1
90
3
90
10
90
8
90
7
90
3
90
1
90
2
90
3
90
3
90
8
90
10
90
9
90
3
90
6
90
0
90
5
90
3
90
13
90
12
90
7
90
4
90
1
90
0
90
7
90
8
90
4
90
2
90
1
90
8
90
9
90
4
90
3
90
2
90
9
90
10
90
4
90
4
90
3
90
10
90
11
90
4
90
5
90
4
90
11
90
12
90
4
90
6
90
5
90
12
90
13
90
4
90
0
90
6
90
13
90
7
94
0
95
0
  0
MESH
  5
1437
330
1F
  100
AcDbEntity
8
buildings
  100
AcDbSubDMesh
71
2
72
0
91
0
92
8
10
275.0240
20
140.1365
30
3.0000
10
277.5489
20
151.9661
30
3.0000
10
267.7902
20
154.0173
30
3.0000
10
265.2654
20
142.1784
30
3.0000
10
275.0240
20
140.1365
30
0.0000
10
277.5489
20
151.9661
30
0.0000
10
267.7902
20
154.0173
30
0.0000
10
265.2654
20
142.1784
30
0.0000
93
36
90
3
90
2
90
3
90
0
90
3
90
6
90
4
90
7
90
3
90
0
90
1
90
2
90
3
90
4
90
6
90
5
90
4
90
1
90
0
90
4
90
5
90
4
90
2
90
1
90
5
90
6
90
4
90
3
90
2
90
6
90
7
90
4
90
0
90
3
90
7
90
4
94
0
95
0
  0
MESH
  5
1438
330
1F
  100
AcDbEntity
8
buildings
  100
AcDbSubDMesh
71
2
72
0
91
0
92
8
10
298.1183
20
128.7640
30
3.0000
10
301.1458
20
143.0300
30
3.0000
10
292.7085
20
144.7967
30
3.0000
10
289.6810
20
130.5307
30
3.0000
10
298.1183
20
128.7640
30
0.0000
10
301.1458
20
143.0300
30
0.0000
10
292.7085
20
144.7967
30
0.0000
10
289.6810
20
130.5307
30
0.0000
93
36
90
3
90
2
90
3
90
0
90
3
90
6
90
4
90
7
90
3
90
0
90
1
90
2
90
3
90
4
90
6
90
5
90
4
90
1
90
0
90
4
90
5
90
4
90
2
90
1
90
5
90
6
90
4
90
3
90
2
90
6
90
7
90
4
90
0
90
3
90
7
90
4
94
0
95
0
  0
MESH
  5
1439
330
1F
  100
AcDbEntity
8
buildings
  100
AcDbSubDMesh
71
2
72
0
91
0
92
6
10
301.6139
20
127.3308
30
3.0000
10
301.9555
20
127.2493
30
3.0000
10
301.9418
20
128.6881
30
3.0000
10
301.6139
20
127.3308
30
0.0000
10
301.9555
20
127.2493
30
0.0000
10
301.9418
20
128.6881
30
0.0000
93
23
90
3
90
0
90
1
90
2
90
3
90
3
90
5
90
4
90
4
90
1
90
0
90
3
90
4
90
4
90
2
90
1
90
4
90
5
90
4
90
0
90
2
90
5
90
3
94
0
95
0
  0
MESH
  5
143a
330
1F
  100
AcDbEntity
8
buildings
  100
AcDbSubDMesh
71
2
72
0
91
0
92
8
10
140.1431
20
217.0297
30
9.0000
10
143.1043
20
231.0259
30
9.0000
10
134.4685
20
232.8279
30
9.0000
10
131.5160
20
218.8225
30
9.0000
10
140.1431
20
217.0297
30
0.0000
10
143.1043
20
231.0259
30
0.0000
10
134.4685
20
232.8279
30
0.0000
10
131.5160
20
218.8225
30
0.0000
93
36
90
3
90
2
90
3
90
0
90
3
90
6
90
4
90
7
90
3
90
0
90
1
90
2
90
3
90
4
90
6
90
5
90
4
90
1
90
0
90
4
90
5
90
4
90
2
90
1
90
5
90
6
90
4
90
3
90
2
90
6
90
7
90
4
90
0
90
3
90
7
90
4
94
0
95
0
  0
MESH
  5
143b
330
1F
  100
AcDbEntity
8
buildings
  100
AcDbSubDMesh
71
2
72
0
91
0
92
8
10
175.4505
20
57.7114
30
3.0000
10
177.6494
20
67.5796
30
3.0000
10
168.5115
20
69.5996
30
3.0000
10
166.3127
20
59.7221
30
3.0000
10
175.4505
20
57.7114
30
0.0000
10
177.6494
20
67.5796
30
0.0000
10
168.5115
20
69.5996
30
0.0000
10
166.3127
20
59.7221
30
0.0000
93
36
90
3
90
2
90
3
90
0
90
3
90
6
90
4
90
7
90
3
90
0
90
1
90
2
90
3
90
4
90
6
90
5
90
4
90
1
90
0
90
4
90
5
90
4
90
2
90
1
90
5
90
6
90
4
90
3
90
2
90
6
90
7
90
4
90
0
90
3
90
7
90
4
94
0
95
0
  0
MESH
  5
143c
330
1F
  100
AcDbEntity
8
buildings
  100
AcDbSubDMesh
71
2
72
0
91
0
92
8
10
167.3903
20
82.3783
30
3.0000
10
170.7186
20
96.7492
30
3.0000
10
161.7182
20
98.8169
30
3.0000
10
158.3728
20
84.4366
30
3.0000
10
167.3903
20
82.3783
30
0.0000
10
170.7186
20
96.7492
30
0.0000
10
161.7182
20
98.8169
30
0.0000
10
158.3728
20
84.4366
30
0.0000
93
36
90
3
90
2
90
3
90
0
90
3
90
6
90
4
90
7
90
3
90
0
90
1
90
2
90
3
90
4
90
6
90
5
90
4
90
1
90
0
90
4
90
5
90
4
90
2
90
1
90
5
90
6
90
4
90
3
90
2
90
6
90
7
90
4
90
0
90
3
90
7
90
4
94
0
95
0
  0
MESH
  5
143d
330
1F
  100
AcDbEntity
8
buildings
  100
AcDbSubDMesh
71
2
72
0
91
0
92
8
10
111.4545
20
7.0506
30
3.0000
10
102.3979
20
8.6723
30
3.0000
10
100.9861
20
0.9358
30
3.0000
10
110.3555
20
1.0248
30
3.0000
10
111.4545
20
7.0506
30
0.0000
10
102.3979
20
8.6723
30
0.0000
10
100.9861
20
0.9358
30
0.0000
10
110.3555
20
1.0248
30
0.0000
93
36
90
3
90
1
90
2
90
3
90
3
90
5
90
7
90
6
90
3
90
3
90
0
90
1
90
3
90
7
90
5
90
4
90
4
90
1
90
0
90
4
90
5
90
4
90
2
90
1
90
5
90
6
90
4
90
3
90
2
90
6
90
7
90
4
90
0
90
3
90
7
90
4
94
0
95
0
  0
MESH
  5
143e
330
1F
  100
AcDbEntity
8
buildings
  100
AcDbSubDMesh
71
2
72
0
91
0
92
8
10
77.4970
20
24.2324
30
3.0000
10
79.3939
20
38.6825
30
3.0000
10
70.3589
20
39.8590
30
3.0000
10
68.4621
20
25.3996
30
3.0000
10
77.4970
20
24.2324
30
0.0000
10
79.3939
20
38.6825
30
0.0000
10
70.3589
20
39.8590
30
0.0000
10
68.4621
20
25.3996
30
0.0000
93
36
90
3
90
2
90
3
90
0
90
3
90
6
90
4
90
7
90
3
90
0
90
1
90
2
90
3
90
4
90
6
90
5
90
4
90
1
90
0
90
4
90
5
90
4
90
2
90
1
90
5
90
6
90
4
90
3
90
2
90
6
90
7
90
4
90
0
90
3
90
7
90
4
94
0
95
0
  0
MESH
  5
143f
330
1F
  100
AcDbEntity
8
buildings
  100
AcDbSubDMesh
71
2
72
0
91
0
92
8
10
132.8570
20
38.5961
30
3.0000
10
135.2066
20
53.4682
30
3.0000
10
125.3321
20
55.0079
30
3.0000
10
122.9826
20
40.1266
30
3.0000
10
132.8570
20
38.5961
30
0.0000
10
135.2066
20
53.4682
30
0.0000
10
125.3321
20
55.0079
30
0.0000
10
122.9826
20
40.1266
30
0.0000
93
36
90
3
90
2
90
3
90
0
90
3
90
6
90
4
90
7
90
3
90
0
90
1
90
2
90
3
90
4
90
6
90
5
90
4
90
1
90
0
90
4
90
5
90
4
90
2
90
1
90
5
90
6
90
4
90
3
90
2
90
6
90
7
90
4
90
0
90
3
90
7
90
4
94
0
95
0
  0
MESH
  5
1440
330
1F
  100
AcDbEntity
8
buildings
  100
AcDbSubDMesh
71
2
72
0
91
0
92
8
10
127.7638
20
90.2807
30
3.0000
10
130.9810
20
106.3675
30
3.0000
10
121.1111
20
108.3249
30
3.0000
10
117.8940
20
92.2381
30
3.0000
10
127.7638
20
90.2807
30
0.0000
10
130.9810
20
106.3675
30
0.0000
10
121.1111
20
108.3249
30
0.0000
10
117.8940
20
92.2381
30
0.0000
93
36
90
3
90
2
90
3
90
0
90
3
90
6
90
4
90
7
90
3
90
0
90
1
90
2
90
3
90
4
90
6
90
5
90
4
90
1
90
0
90
4
90
5
90
4
90
2
90
1
90
5
90
6
90
4
90
3
90
2
90
6
90
7
90
4
90
0
90
3
90
7
90
4
94
0
95
0
  0
MESH
  5
1441
330
1F
  100
AcDbEntity
8
buildings
  100
AcDbSubDMesh
71
2
72
0
91
0
92
8
10
198.6737
20
99.9012
30
3.0000
10
202.1316
20
115.1365
30
3.0000
10
192.2939
20
117.3448
30
3.0000
10
188.8274
20
102.1094
30
3.0000
10
198.6737
20
99.9012
30
0.0000
10
202.1316
20
115.1365
30
0.0000
10
192.2939
20
117.3448
30
0.0000
10
188.8274
20
102.1094
30
0.0000
93
36
90
3
90
2
90
3
90
0
90
3
90
6
90
4
90
7
90
3
90
0
90
1
90
2
90
3
90
4
90
6
90
5
90
4
90
1
90
0
90
4
90
5
90
4
90
2
90
1
90
5
90
6
90
4
90
3
90
2
90
6
90
7
90
4
90
0
90
3
90
7
90
4
94
0
95
0
  0
MESH
  5
1442
330
1F
  100
AcDbEntity
8
buildings
  100
AcDbSubDMesh
71
2
72
0
91
0
92
8
10
147.1076
20
112.6184
30
3.0000
10
149.9308
20
125.7130
30
3.0000
10
140.6210
20
127.6943
30
3.0000
10
137.7892
20
114.5996
30
3.0000
10
147.1076
20
112.6184
30
0.0000
10
149.9308
20
125.7130
30
0.0000
10
140.6210
20
127.6943
30
0.0000
10
137.7892
20
114.5996
30
0.0000
93
36
90
3
90
2
90
3
90
0
90
3
90
6
90
4
90
7
90
3
90
0
90
1
90
2
90
3
90
4
90
6
90
5
90
4
90
1
90
0
90
4
90
5
90
4
90
2
90
1
90
5
90
6
90
4
90
3
90
2
90
6
90
7
90
4
90
0
90
3
90
7
90
4
94
0
95
0
  0
MESH
  5
1443
330
1F
  100
AcDbEntity
8
buildings
  100
AcDbSubDMesh
71
2
72
0
91
0
92
8
10
197.5356
20
154.3798
30
3.0000
10
200.7482
20
167.3018
30
3.0000
10
191.3924
20
169.5889
30
3.0000
10
188.1884
20
156.6670
30
3.0000
10
197.5356
20
154.3798
30
0.0000
10
200.7482
20
167.3018
30
0.0000
10
191.3924
20
169.5889
30
0.0000
10
188.1884
20
156.6670
30
0.0000
93
36
90
3
90
2
90
3
90
0
90
3
90
6
90
4
90
7
90
3
90
0
90
1
90
2
90
3
90
4
90
6
90
5
90
4
90
1
90
0
90
4
90
5
90
4
90
2
90
1
90
5
90
6
90
4
90
3
90
2
90
6
90
7
90
4
90
0
90
3
90
7
90
4
94
0
95
0
  0
MESH
  5
1444
330
1F
  100
AcDbEntity
8
buildings
  100
AcDbSubDMesh
71
2
72
0
91
0
92
8
10
201.7297
20
174.6710
30
3.0000
10
204.8828
20
189.3280
30
3.0000
10
195.6249
20
191.2912
30
3.0000
10
192.4803
20
176.6436
30
3.0000
10
201.7297
20
174.6710
30
0.0000
10
204.8828
20
189.3280
30
0.0000
10
195.6249
20
191.2912
30
0.0000
10
192.4803
20
176.6436
30
0.0000
93
36
90
3
90
2
90
3
90
0
90
3
90
6
90
4
90
7
90
3
90
0
90
1
90
2
90
3
90
4
90
6
90
5
90
4
90
1
90
0
90
4
90
5
90
4
90
2
90
1
90
5
90
6
90
4
90
3
90
2
90
6
90
7
90
4
90
0
90
3
90
7
90
4
94
0
95
0
  0
MESH
  5
1445
330
1F
  100
AcDbEntity
8
buildings
  100
AcDbSubDMesh
71
2
72
0
91
0
92
8
10
148.5336
20
185.7114
30
3.0000
10
152.0611
20
201.7826
30
3.0000
10
143.2173
20
203.7034
30
3.0000
10
139.6898
20
187.6321
30
3.0000
10
148.5336
20
185.7114
30
0.0000
10
152.0611
20
201.7826
30
0.0000
10
143.2173
20
203.7034
30
0.0000
10
139.6898
20
187.6321
30
0.0000
93
36
90
3
90
2
90
3
90
0
90
3
90
6
90
4
90
7
90
3
90
0
90
1
90
2
90
3
90
4
90
6
90
5
90
4
90
1
90
0
90
4
90
5
90
4
90
2
90
1
90
5
90
6
90
4
90
3
90
2
90
6
90
7
90
4
90
0
90
3
90
7
90
4
94
0
95
0
  0
MESH
  5
1446
330
1F
  100
AcDbEntity
8
buildings
  100
AcDbSubDMesh
71
2
72
0
91
0
92
8
10
181.7559
20
204.1437
30
6.0000
10
184.8447
20
221.9371
30
6.0000
10
177.0281
20
223.7005
30
6.0000
10
173.3845
20
205.3357
30
6.0000
10
181.7559
20
204.1437
30
0.0000
10
184.8447
20
221.9371
30
0.0000
10
177.0281
20
223.7005
30
0.0000
10
173.3845
20
205.3357
30
0.0000
93
36
90
3
90
2
90
3
90
0
90
3
90
6
90
4
90
7
90
3
90
0
90
1
90
2
90
3
90
4
90
6
90
5
90
4
90
1
90
0
90
4
90
5
90
4
90
2
90
1
90
5
90
6
90
4
90
3
90
2
90
6
90
7
90
4
90
0
90
3
90
7
90
4
94
0
95
0
  0
MESH
  5
1447
330
1F
  100
AcDbEntity
8
buildings
  100
AcDbSubDMesh
71
2
72
0
91
0
92
8
10
11.8291
20
156.0783
30
3.0000
10
13.1002
20
162.9027
30
3.0000
10
0.8876
20
165.1494
30
3.0000
10
0.9547
20
158.0789
30
3.0000
10
11.8291
20
156.0783
30
0.0000
10
13.1002
20
162.9027
30
0.0000
10
0.8876
20
165.1494
30
0.0000
10
0.9547
20
158.0789
30
0.0000
93
36
90
3
90
2
90
3
90
1
90
3
90
6
90
5
90
7
90
3
90
0
90
1
90
3
90
3
90
4
90
7
90
5
90
4
90
1
90
0
90
4
90
5
90
4
90
2
90
1
90
5
90
6
90
4
90
3
90
2
90
6
90
7
90
4
90
0
90
3
90
7
90
4
94
0
95
0
  0
MESH
  5
1448
330
1F
  100
AcDbEntity
8
buildings
  100
AcDbSubDMesh
71
2
72
0
91
0
92
8
10
5.4683
20
137.9291
30
3.0000
10
7.5500
20
146.5339
30
3.0000
10
1.0495
20
148.0810
30
3.0000
10
1.1361
20
138.9602
30
3.0000
10
5.4683
20
137.9291
30
0.0000
10
7.5500
20
146.5339
30
0.0000
10
1.0495
20
148.0810
30
0.0000
10
1.1361
20
138.9602
30
0.0000
93
36
90
3
90
2
90
3
90
1
90
3
90
6
90
5
90
7
90
3
90
0
90
1
90
3
90
3
90
4
90
7
90
5
90
4
90
1
90
0
90
4
90
5
90
4
90
2
90
1
90
5
90
6
90
4
90
3
90
2
90
6
90
7
90
4
90
0
90
3
90
7
90
4
94
0
95
0
  0
MESH
  5
1449
330
1F
  100
AcDbEntity
8
buildings
  100
AcDbSubDMesh
71
2
72
0
91
0
92
8
10
19.3657
20
190.1836
30
3.0000
10
22.8639
20
204.8253
30
3.0000
10
8.9913
20
208.0813
30
3.0000
10
5.5104
20
193.4398
30
3.0000
10
19.3657
20
190.1836
30
0.0000
10
22.8639
20
204.8253
30
0.0000
10
8.9913
20
208.0813
30
0.0000
10
5.5104
20
193.4398
30
0.0000
93
36
90
3
90
2
90
3
90
0
90
3
90
6
90
4
90
7
90
3
90
0
90
1
90
2
90
3
90
4
90
6
90
5
90
4
90
1
90
0
90
4
90
5
90
4
90
2
90
1
90
5
90
6
90
4
90
3
90
2
90
6
90
7
90
4
90
0
90
3
90
7
90
4
94
0
95
0
  0
MESH
  5
144a
330
1F
  100
AcDbEntity
8
buildings
  100
AcDbSubDMesh
71
2
72
0
91
0
92
8
10
37.3445
20
142.0368
30
3.0000
10
39.0365
20
150.8235
30
3.0000
10
20.9478
20
154.2529
30
3.0000
10
19.2558
20
145.4570
30
3.0000
10
37.3445
20
142.0368
30
0.0000
10
39.0365
20
150.8235
30
0.0000
10
20.9478
20
154.2529
30
0.0000
10
19.2558
20
145.4570
30
0.0000
93
36
90
3
90
2
90
3
90
0
90
3
90
6
90
4
90
7
90
3
90
0
90
1
90
2
90
3
90
4
90
6
90
5
90
4
90
1
90
0
90
4
90
5
90
4
90
2
90
1
90
5
90
6
90
4
90
3
90
2
90
6
90
7
90
4
90
0
90
3
90
7
90
4
94
0
95
0
  0
MESH
  5
144b
330
1F
  100
AcDbEntity
8
buildings
  100
AcDbSubDMesh
71
2
72
0
91
0
92
8
10
40.4095
20
163.2640
30
3.0000
10
42.6876
20
172.9658
30
3.0000
10
27.6146
20
176.4795
30
3.0000
10
25.3194
20
166.7682
30
3.0000
10
40.4095
20
163.2640
30
0.0000
10
42.6876
20
172.9658
30
0.0000
10
27.6146
20
176.4795
30
0.0000
10
25.3194
20
166.7682
30
0.0000
93
36
90
3
90
2
90
3
90
0
90
3
90
6
90
4
90
7
90
3
90
0
90
1
90
2
90
3
90
4
90
6
90
5
90
4
90
1
90
0
90
4
90
5
90
4
90
2
90
1
90
5
90
6
90
4
90
3
90
2
90
6
90
7
90
4
90
0
90
3
90
7
90
4
94
0
95
0
  0
MESH
  5
144c
330
1F
  100
AcDbEntity
8
buildings
  100
AcDbSubDMesh
71
2
72
0
91
0
92
12
10
68.9989
20
179.4896
30
3.0000
10
72.1401
20
194.4991
30
3.0000
10
63.0124
20
196.3708
30
3.0000
10
61.3473
20
188.3825
30
3.0000
10
56.4681
20
189.3942
30
3.0000
10
55.0007
20
182.3638
30
3.0000
10
68.9989
20
179.4896
30
0.0000
10
72.1401
20
194.4991
30
0.0000
10
63.0124
20
196.3708
30
0.0000
10
61.3473
20
188.3825
30
0.0000
10
56.4681
20
189.3942
30
0.0000
10
55.0007
20
182.3638
30
0.0000
93
62
90
3
90
5
90
3
90
4
90
3
90
11
90
10
90
9
90
3
90
3
90
5
90
0
90
3
90
9
90
6
90
11
90
3
90
3
90
1
90
2
90
3
90
9
90
8
90
7
90
3
90
1
90
3
90
0
90
3
90
7
90
6
90
9
90
4
90
1
90
0
90
6
90
7
90
4
90
2
90
1
90
7
90
8
90
4
90
3
90
2
90
8
90
9
90
4
90
4
90
3
90
9
90
10
90
4
90
5
90
4
90
10
90
11
90
4
90
0
90
5
90
11
90
6
94
0
95
0
  0
MESH
  5
144d
330
1F
  100
AcDbEntity
8
buildings
  100
AcDbSubDMesh
71
2
72
0
91
0
92
8
10
123.2541
20
119.5383
30
3.0000
10
125.8018
20
132.6117
30
3.0000
10
117.0809
20
134.2923
30
3.0000
10
114.5333
20
121.2096
30
3.0000
10
123.2541
20
119.5383
30
0.0000
10
125.8018
20
132.6117
30
0.0000
10
117.0809
20
134.2923
30
0.0000
10
114.5333
20
121.2096
30
0.0000
93
36
90
3
90
2
90
3
90
0
90
3
90
6
90
4
90
7
90
3
90
0
90
1
90
2
90
3
90
4
90
6
90
5
90
4
90
1
90
0
90
4
90
5
90
4
90
2
90
1
90
5
90
6
90
4
90
3
90
2
90
6
90
7
90
4
90
0
90
3
90
7
90
4
94
0
95
0
  0
MESH
  5
144e
330
1F
  100
AcDbEntity
8
buildings
  100
AcDbSubDMesh
71
2
72
0
91
0
92
8
10
138.0539
20
2.3192
30
3.0000
10
128.3141
20
4.1943
30
3.0000
10
127.7259
20
1.1898
30
3.0000
10
137.8518
20
1.2860
30
3.0000
10
138.0539
20
2.3192
30
0.0000
10
128.3141
20
4.1943
30
0.0000
10
127.7259
20
1.1898
30
0.0000
10
137.8518
20
1.2860
30
0.0000
93
36
90
3
90
1
90
2
90
3
90
3
90
5
90
7
90
6
90
3
90
3
90
0
90
1
90
3
90
7
90
5
90
4
90
4
90
1
90
0
90
4
90
5
90
4
90
2
90
1
90
5
90
6
90
4
90
3
90
2
90
6
90
7
90
4
90
0
90
3
90
7
90
4
94
0
95
0
  0
MESH
  5
144f
330
1F
  100
AcDbEntity
8
buildings
  100
AcDbSubDMesh
71
2
72
0
91
0
92
8
10
141.7477
20
11.7839
30
3.0000
10
143.6608
20
24.5172
30
3.0000
10
132.1730
20
26.2179
30
3.0000
10
130.2598
20
13.4939
30
3.0000
10
141.7477
20
11.7839
30
0.0000
10
143.6608
20
24.5172
30
0.0000
10
132.1730
20
26.2179
30
0.0000
10
130.2598
20
13.4939
30
0.0000
93
36
90
3
90
2
90
3
90
0
90
3
90
6
90
4
90
7
90
3
90
0
90
1
90
2
90
3
90
4
90
6
90
5
90
4
90
1
90
0
90
4
90
5
90
4
90
2
90
1
90
5
90
6
90
4
90
3
90
2
90
6
90
7
90
4
90
0
90
3
90
7
90
4
94
0
95
0
  0
MESH
  5
1450
330
1F
  100
AcDbEntity
8
buildings
  100
AcDbSubDMesh
71
2
72
0
91
0
92
8
10
178.4965
20
1.9887
30
3.0000
10
182.3776
20
16.2257
30
3.0000
10
172.1381
20
18.9870
30
3.0000
10
168.2656
20
4.7501
30
3.0000
10
178.4965
20
1.9887
30
0.0000
10
182.3776
20
16.2257
30
0.0000
10
172.1381
20
18.9870
30
0.0000
10
168.2656
20
4.7501
30
0.0000
93
36
90
3
90
2
90
3
90
0
90
3
90
6
90
4
90
7
90
3
90
0
90
1
90
2
90
3
90
4
90
6
90
5
90
4
90
1
90
0
90
4
90
5
90
4
90
2
90
1
90
5
90
6
90
4
90
3
90
2
90
6
90
7
90
4
90
0
90
3
90
7
90
4
94
0
95
0
  0
MESH
  5
1451
330
1F
  100
AcDbEntity
8
buildings
  100
AcDbSubDMesh
71
2
72
0
91
0
92
8
10
201.9673
20
48.9792
30
3.0000
10
204.5409
20
61.1248
30
3.0000
10
194.1261
20
63.2904
30
3.0000
10
191.5524
20
51.1449
30
3.0000
10
201.9673
20
48.9792
30
0.0000
10
204.5409
20
61.1248
30
0.0000
10
194.1261
20
63.2904
30
0.0000
10
191.5524
20
51.1449
30
0.0000
93
36
90
3
90
2
90
3
90
0
90
3
90
6
90
4
90
7
90
3
90
0
90
1
90
2
90
3
90
4
90
6
90
5
90
4
90
1
90
0
90
4
90
5
90
4
90
2
90
1
90
5
90
6
90
4
90
3
90
2
90
6
90
7
90
4
90
0
90
3
90
7
90
4
94
0
95
0
  0
MESH
  5
1452
330
1F
  100
AcDbEntity
8
buildings
  100
AcDbSubDMesh
71
2
72
0
91
0
92
8
10
136.2945
20
63.2516
30
3.0000
10
138.5333
20
76.1736
30
3.0000
10
129.5639
20
77.7033
30
3.0000
10
127.3249
20
64.7999
30
3.0000
10
136.2945
20
63.2516
30
0.0000
10
138.5333
20
76.1736
30
0.0000
10
129.5639
20
77.7033
30
0.0000
10
127.3249
20
64.7999
30
0.0000
93
36
90
3
90
2
90
3
90
0
90
3
90
6
90
4
90
7
90
3
90
0
90
1
90
2
90
3
90
4
90
6
90
5
90
4
90
1
90
0
90
4
90
5
90
4
90
2
90
1
90
5
90
6
90
4
90
3
90
2
90
6
90
7
90
4
90
0
90
3
90
7
90
4
94
0
95
0
  0
MESH
  5
1453
330
1F
  100
AcDbEntity
8
buildings
  100
AcDbSubDMesh
71
2
72
0
91
0
92
8
10
181.7775
20
81.2156
30
3.0000
10
184.6793
20
93.2993
30
3.0000
10
175.2118
20
95.5389
30
3.0000
10
172.3274
20
83.4461
30
3.0000
10
181.7775
20
81.2156
30
0.0000
10
184.6793
20
93.2993
30
0.0000
10
175.2118
20
95.5389
30
0.0000
10
172.3274
20
83.4461
30
0.0000
93
36
90
3
90
2
90
3
90
0
90
3
90
6
90
4
90
7
90
3
90
0
90
1
90
2
90
3
90
4
90
6
90
5
90
4
90
1
90
0
90
4
90
5
90
4
90
2
90
1
90
5
90
6
90
4
90
3
90
2
90
6
90
7
90
4
90
0
90
3
90
7
90
4
94
0
95
0
  0
MESH
  5
1454
330
1F
  100
AcDbEntity
8
buildings
  100
AcDbSubDMesh
71
2
72
0
91
0
92
8
10
154.4564
20
86.6175
30
3.0000
10
158.1443
20
102.1427
30
3.0000
10
148.7980
20
104.3278
30
3.0000
10
145.1102
20
88.8026
30
3.0000
10
154.4564
20
86.6175
30
0.0000
10
158.1443
20
102.1427
30
0.0000
10
148.7980
20
104.3278
30
0.0000
10
145.1102
20
88.8026
30
0.0000
93
36
90
3
90
2
90
3
90
0
90
3
90
6
90
4
90
7
90
3
90
0
90
1
90
2
90
3
90
4
90
6
90
5
90
4
90
1
90
0
90
4
90
5
90
4
90
2
90
1
90
5
90
6
90
4
90
3
90
2
90
6
90
7
90
4
90
0
90
3
90
7
90
4
94
0
95
0
  0
MESH
  5
1455
330
1F
  100
AcDbEntity
8
buildings
  100
AcDbSubDMesh
71
2
72
0
91
0
92
8
10
102.8713
20
21.4476
30
3.0000
10
104.0072
20
32.5308
30
3.0000
10
95.3025
20
33.4134
30
3.0000
10
94.1753
20
22.3210
30
3.0000
10
102.8713
20
21.4476
30
0.0000
10
104.0072
20
32.5308
30
0.0000
10
95.3025
20
33.4134
30
0.0000
10
94.1753
20
22.3210
30
0.0000
93
36
90
3
90
2
90
3
90
0
90
3
90
6
90
4
90
7
90
3
90
0
90
1
90
2
90
3
90
4
90
6
90
5
90
4
90
1
90
0
90
4
90
5
90
4
90
2
90
1
90
5
90
6
90
4
90
3
90
2
90
6
90
7
90
4
90
0
90
3
90
7
90
4
94
0
95
0
  0
MESH
  5
1456
330
1F
  100
AcDbEntity
8
buildings
  100
AcDbSubDMesh
71
2
72
0
91
0
92
12
10
25.3854
20
18.1320
30
3.0000
10
23.2151
20
8.8767
30
3.0000
10
31.9132
20
6.8710
30
3.0000
10
35.6408
20
22.7770
30
3.0000
10
21.7945
20
25.9776
30
3.0000
10
20.2286
20
19.3267
30
3.0000
10
25.3854
20
18.1320
30
0.0000
10
23.2151
20
8.8767
30
0.0000
10
31.9132
20
6.8710
30
0.0000
10
35.6408
20
22.7770
30
0.0000
10
21.7945
20
25.9776
30
0.0000
10
20.2286
20
19.3267
30
0.0000
93
62
90
3
90
4
90
5
90
0
90
3
90
10
90
6
90
11
90
3
90
0
90
2
90
3
90
3
90
6
90
9
90
8
90
3
90
2
90
0
90
1
90
3
90
8
90
7
90
6
90
3
90
0
90
3
90
4
90
3
90
6
90
10
90
9
90
4
90
1
90
0
90
6
90
7
90
4
90
2
90
1
90
7
90
8
90
4
90
3
90
2
90
8
90
9
90
4
90
4
90
3
90
9
90
10
90
4
90
5
90
4
90
10
90
11
90
4
90
0
90
5
90
11
90
6
94
0
95
0
  0
MESH
  5
1457
330
1F
  100
AcDbEntity
8
buildings
  100
AcDbSubDMesh
71
2
72
0
91
0
92
8
10
87.3439
20
11.0817
30
3.0000
10
77.0711
20
13.7221
30
3.0000
10
73.6847
20
0.6765
30
3.0000
10
84.6683
20
0.7808
30
3.0000
10
87.3439
20
11.0817
30
0.0000
10
77.0711
20
13.7221
30
0.0000
10
73.6847
20
0.6765
30
0.0000
10
84.6683
20
0.7808
30
0.0000
93
36
90
3
90
1
90
2
90
3
90
3
90
5
90
7
90
6
90
3
90
3
90
0
90
1
90
3
90
7
90
5
90
4
90
4
90
1
90
0
90
4
90
5
90
4
90
2
90
1
90
5
90
6
90
4
90
3
90
2
90
6
90
7
90
4
90
0
90
3
90
7
90
4
94
0
95
0
  0
MESH
  5
1458
330
1F
  100
AcDbEntity
8
buildings
  100
AcDbSubDMesh
71
2
72
0
91
0
92
8
10
49.4055
20
32.7085
30
3.0000
10
51.5914
20
42.1403
30
3.0000
10
43.2992
20
44.0478
30
3.0000
10
41.1135
20
34.6067
30
3.0000
10
49.4055
20
32.7085
30
0.0000
10
51.5914
20
42.1403
30
0.0000
10
43.2992
20
44.0478
30
0.0000
10
41.1135
20
34.6067
30
0.0000
93
36
90
3
90
2
90
3
90
0
90
3
90
6
90
4
90
7
90
3
90
0
90
1
90
2
90
3
90
4
90
6
90
5
90
4
90
1
90
0
90
4
90
5
90
4
90
2
90
1
90
5
90
6
90
4
90
3
90
2
90
6
90
7
90
4
90
0
90
3
90
7
90
4
94
0
95
0
  0
MESH
  5
1459
330
1F
  100
AcDbEntity
8
buildings
  100
AcDbSubDMesh
71
2
72
0
91
0
92
8
10
57.9451
20
2.9137
30
3.0000
10
60.9420
20
17.6991
30
3.0000
10
51.6764
20
19.5602
30
3.0000
10
48.6795
20
4.7748
30
3.0000
10
57.9451
20
2.9137
30
0.0000
10
60.9420
20
17.6991
30
0.0000
10
51.6764
20
19.5602
30
0.0000
10
48.6795
20
4.7748
30
0.0000
93
36
90
3
90
2
90
3
90
0
90
3
90
6
90
4
90
7
90
3
90
0
90
1
90
2
90
3
90
4
90
6
90
5
90
4
90
1
90
0
90
4
90
5
90
4
90
2
90
1
90
5
90
6
90
4
90
3
90
2
90
6
90
7
90
4
90
0
90
3
90
7
90
4
94
0
95
0
  0
MESH
  5
145a
330
1F
  100
AcDbEntity
8
buildings
  100
AcDbSubDMesh
71
2
72
0
91
0
92
8
10
55.9338
20
54.0892
30
3.0000
10
60.0024
20
70.3790
30
3.0000
10
49.6355
20
72.9536
30
3.0000
10
45.5497
20
56.6543
30
3.0000
10
55.9338
20
54.0892
30
0.0000
10
60.0024
20
70.3790
30
0.0000
10
49.6355
20
72.9536
30
0.0000
10
45.5497
20
56.6543
30
0.0000
93
36
90
3
90
2
90
3
90
0
90
3
90
6
90
4
90
7
90
3
90
0
90
1
90
2
90
3
90
4
90
6
90
5
90
4
90
1
90
0
90
4
90
5
90
4
90
2
90
1
90
5
90
6
90
4
90
3
90
2
90
6
90
7
90
4
90
0
90
3
90
7
90
4
94
0
95
0
  0
MESH
  5
145b
330
1F
  100
AcDbEntity
8
buildings
  100
AcDbSubDMesh
71
2
72
0
91
0
92
8
10
73.8255
20
75.0673
30
3.0000
10
76.9284
20
89.5752
30
3.0000
10
66.6687
20
91.7517
30
3.0000
10
63.5659
20
77.2252
30
3.0000
10
73.8255
20
75.0673
30
0.0000
10
76.9284
20
89.5752
30
0.0000
10
66.6687
20
91.7517
30
0.0000
10
63.5659
20
77.2252
30
0.0000
93
36
90
3
90
2
90
3
90
0
90
3
90
6
90
4
90
7
90
3
90
0
90
1
90
2
90
3
90
4
90
6
90
5
90
4
90
1
90
0
90
4
90
5
90
4
90
2
90
1
90
5
90
6
90
4
90
3
90
2
90
6
90
7
90
4
90
0
90
3
90
7
90
4
94
0
95
0
  0
MESH
  5
145c
330
1F
  100
AcDbEntity
8
buildings
  100
AcDbSubDMesh
71
2
72
0
91
0
92
8
10
111.4884
20
68.8353
30
3.0000
10
113.6968
20
81.3300
30
3.0000
10
103.8896
20
83.0467
30
3.0000
10
101.6898
20
70.5427
30
3.0000
10
111.4884
20
68.8353
30
0.0000
10
113.6968
20
81.3300
30
0.0000
10
103.8896
20
83.0467
30
0.0000
10
101.6898
20
70.5427
30
0.0000
93
36
90
3
90
2
90
3
90
0
90
3
90
6
90
4
90
7
90
3
90
0
90
1
90
2
90
3
90
4
90
6
90
5
90
4
90
1
90
0
90
4
90
5
90
4
90
2
90
1
90
5
90
6
90
4
90
3
90
2
90
6
90
7
90
4
90
0
90
3
90
7
90
4
94
0
95
0
  0
MESH
  5
145d
330
1F
  100
AcDbEntity
8
buildings
  100
AcDbSubDMesh
71
2
72
0
91
0
92
8
10
219.5926
20
8.1706
30
3.0000
10
209.9257
20
10.5382
30
3.0000
10
207.7948
20
1.9503
30
3.0000
10
218.0700
20
2.0479
30
3.0000
10
219.5926
20
8.1706
30
0.0000
10
209.9257
20
10.5382
30
0.0000
10
207.7948
20
1.9503
30
0.0000
10
218.0700
20
2.0479
30
0.0000
93
36
90
3
90
1
90
2
90
3
90
3
90
5
90
7
90
6
90
3
90
3
90
0
90
1
90
3
90
7
90
5
90
4
90
4
90
1
90
0
90
4
90
5
90
4
90
2
90
1
90
5
90
6
90
4
90
3
90
2
90
6
90
7
90
4
90
0
90
3
90
7
90
4
94
0
95
0
  0
MESH
  5
145e
330
1F
  100
AcDbEntity
8
buildings
  100
AcDbSubDMesh
71
2
72
0
91
0
92
8
10
125.4595
20
5.2902
30
3.0000
10
115.8768
20
6.9534
30
3.0000
10
114.8407
20
1.0674
30
3.0000
10
124.7354
20
1.1614
30
3.0000
10
125.4595
20
5.2902
30
0.0000
10
115.8768
20
6.9534
30
0.0000
10
114.8407
20
1.0674
30
0.0000
10
124.7354
20
1.1614
30
0.0000
93
36
90
3
90
1
90
2
90
3
90
3
90
5
90
7
90
6
90
3
90
3
90
0
90
1
90
3
90
7
90
5
90
4
90
4
90
1
90
0
90
4
90
5
90
4
90
2
90
1
90
5
90
6
90
4
90
3
90
2
90
6
90
7
90
4
90
0
90
3
90
7
90
4
94
0
95
0
  0
MESH
  5
145f
330
1F
  100
AcDbEntity
8
buildings
  100
AcDbSubDMesh
71
2
72
0
91
0
92
8
10
124.7146
20
67.3923
30
3.0000
10
127.0396
20
77.5958
30
3.0000
10
117.4351
20
79.7506
30
3.0000
10
115.1100
20
69.5564
30
3.0000
10
124.7146
20
67.3923
30
0.0000
10
127.0396
20
77.5958
30
0.0000
10
117.4351
20
79.7506
30
0.0000
10
115.1100
20
69.5564
30
0.0000
93
36
90
3
90
2
90
3
90
0
90
3
90
6
90
4
90
7
90
3
90
0
90
1
90
2
90
3
90
4
90
6
90
5
90
4
90
1
90
0
90
4
90
5
90
4
90
2
90
1
90
5
90
6
90
4
90
3
90
2
90
6
90
7
90
4
90
0
90
3
90
7
90
4
94
0
95
0
  0
MESH
  5
1460
330
1F
  100
AcDbEntity
8
buildings
  100
AcDbSubDMesh
71
2
72
0
91
0
92
8
10
251.5575
20
162.5687
30
3.0000
10
255.4093
20
177.1488
30
3.0000
10
246.3372
20
179.5128
30
3.0000
10
242.4940
20
164.9234
30
3.0000
10
251.5575
20
162.5687
30
0.0000
10
255.4093
20
177.1488
30
0.0000
10
246.3372
20
179.5128
30
0.0000
10
242.4940
20
164.9234
30
0.0000
93
36
90
3
90
2
90
3
90
0
90
3
90
6
90
4
90
7
90
3
90
0
90
1
90
2
90
3
90
4
90
6
90
5
90
4
90
1
90
0
90
4
90
5
90
4
90
2
90
1
90
5
90
6
90
4
90
3
90
2
90
6
90
7
90
4
90
0
90
3
90
7
90
4
94
0
95
0
  0
MESH
  5
1461
330
1F
  100
AcDbEntity
8
buildings
  100
AcDbSubDMesh
71
2
72
0
91
0
92
8
10
146.4516
20
36.4978
30
3.0000
10
148.9822
20
49.5432
30
3.0000
10
138.8971
20
51.4800
30
3.0000
10
136.3664
20
38.4346
30
3.0000
10
146.4516
20
36.4978
30
0.0000
10
148.9822
20
49.5432
30
0.0000
10
138.8971
20
51.4800
30
0.0000
10
136.3664
20
38.4346
30
0.0000
93
36
90
3
90
2
90
3
90
0
90
3
90
6
90
4
90
7
90
3
90
0
90
1
90
2
90
3
90
4
90
6
90
5
90
4
90
1
90
0
90
4
90
5
90
4
90
2
90
1
90
5
90
6
90
4
90
3
90
2
90
6
90
7
90
4
90
0
90
3
90
7
90
4
94
0
95
0
  0
MESH
  5
1462
330
1F
  100
AcDbEntity
8
buildings
  100
AcDbSubDMesh
71
2
72
0
91
0
92
8
10
235.8441
20
18.5250
30
3.0000
10
239.1289
20
32.0231
30
3.0000
10
229.0908
20
34.4429
30
3.0000
10
225.8061
20
20.9355
30
3.0000
10
235.8441
20
18.5250
30
0.0000
10
239.1289
20
32.0231
30
0.0000
10
229.0908
20
34.4429
30
0.0000
10
225.8061
20
20.9355
30
0.0000
93
36
90
3
90
2
90
3
90
0
90
3
90
6
90
4
90
7
90
3
90
0
90
1
90
2
90
3
90
4
90
6
90
5
90
4
90
1
90
0
90
4
90
5
90
4
90
2
90
1
90
5
90
6
90
4
90
3
90
2
90
6
90
7
90
4
90
0
90
3
90
7
90
4
94
0
95
0
  0
MESH
  5
1463
330
1F
  100
AcDbEntity
8
buildings
  100
AcDbSubDMesh
71
2
72
0
91
0
92
8
10
252.2859
20
91.3709
30
3.0000
10
254.8999
20
103.8046
30
3.0000
10
245.3831
20
105.7931
30
3.0000
10
242.7520
20
93.3500
30
3.0000
10
252.2859
20
91.3709
30
0.0000
10
254.8999
20
103.8046
30
0.0000
10
245.3831
20
105.7931
30
0.0000
10
242.7520
20
93.3500
30
0.0000
93
36
90
3
90
2
90
3
90
0
90
3
90
6
90
4
90
7
90
3
90
0
90
1
90
2
90
3
90
4
90
6
90
5
90
4
90
1
90
0
90
4
90
5
90
4
90
2
90
1
90
5
90
6
90
4
90
3
90
2
90
6
90
7
90
4
90
0
90
3
90
7
90
4
94
0
95
0
  0
MESH
  5
1464
330
1F
  100
AcDbEntity
8
buildings
  100
AcDbSubDMesh
71
2
72
0
91
0
92
8
10
248.1301
20
189.4699
30
15.0000
10
250.9600
20
203.6690
30
15.0000
10
237.3170
20
206.3423
30
15.0000
10
234.4957
20
192.1432
30
15.0000
10
248.1301
20
189.4699
30
0.0000
10
250.9600
20
203.6690
30
0.0000
10
237.3170
20
206.3423
30
0.0000
10
234.4957
20
192.1432
30
0.0000
93
36
90
3
90
2
90
3
90
0
90
3
90
6
90
4
90
7
90
3
90
0
90
1
90
2
90
3
90
4
90
6
90
5
90
4
90
1
90
0
90
4
90
5
90
4
90
2
90
1
90
5
90
6
90
4
90
3
90
2
90
6
90
7
90
4
90
0
90
3
90
7
90
4
94
0
95
0
  0
MESH
  5
1465
330
1F
  100
AcDbEntity
8
buildings
  100
AcDbSubDMesh
71
2
72
0
91
0
92
8
10
238.8229
20
164.8793
30
3.0000
10
242.6911
20
180.4619
30
3.0000
10
233.2747
20
182.7762
30
3.0000
10
229.4065
20
167.1936
30
3.0000
10
238.8229
20
164.8793
30
0.0000
10
242.6911
20
180.4619
30
0.0000
10
233.2747
20
182.7762
30
0.0000
10
229.4065
20
167.1936
30
0.0000
93
36
90
3
90
2
90
3
90
0
90
3
90
6
90
4
90
7
90
3
90
0
90
1
90
2
90
3
90
4
90
6
90
5
90
4
90
1
90
0
90
4
90
5
90
4
90
2
90
1
90
5
90
6
90
4
90
3
90
2
90
6
90
7
90
4
90
0
90
3
90
7
90
4
94
0
95
0
  0
ENDSEC
  0
SECTION
  2
OBJECTS
  0
DICTIONARY
  5
C
330
0
100
AcDbDictionary
281
1
  3
ACAD_COLOR
350
4D3
  3
ACAD_GROUP
350
4D4
  3
ACAD_LAYOUT
350
4D5
  3
ACAD_MATERIAL
350
4D6
  3
ACAD_MLEADERSTYLE
350
4D7
  3
ACAD_MLINESTYLE
350
4D8
  3
ACAD_PLOTSETTINGS
350
4D9
  3
ACAD_PLOTSTYLENAME
350
4DB
  3
ACAD_SCALELIST
350
4DC
  3
ACAD_TABLESTYLE
350
4DD
  3
ACAD_VISUALSTYLE
350
4DE
  0
DICTIONARY
  5
4D3
330
C
100
AcDbDictionary
281
1
  0
DICTIONARY
  5
4D4
330
C
100
AcDbDictionary
281
1
  0
DICTIONARY
  5
4D5
330
C
100
AcDbDictionary
281
1
  3
Model
350
4DF
  3
Layout1
350
4E0
  0
DICTIONARY
  5
4D6
330
C
100
AcDbDictionary
281
1
  0
DICTIONARY
  5
4D7
330
C
100
AcDbDictionary
281
1
  0
DICTIONARY
  5
4D8
330
C
100
AcDbDictionary
281
1
  0
DICTIONARY
  5
4D9
330
C
100
AcDbDictionary
281
1
  0
ACDBPLACEHOLDER
  5
4DA
330
4DB
  0
ACDBDICTIONARYWDFLT
  5
4DB
330
C
100
AcDbDictionary
281
1
  3
Normal
350
4DA
100
AcDbDictionaryWithDefault
340
4DA
  0
DICTIONARY
  5
4DC
330
C
100
AcDbDictionary
281
1
  0
DICTIONARY
  5
4DD
330
C
100
AcDbDictionary
281
1
  0
DICTIONARY
  5
4DE
330
C
100
AcDbDictionary
281
1
  0
LAYOUT
  5
4DF
330
4D5
100
AcDbPlotSettings
  1

  2
DWFx ePlot (XPS Compatible).pc3
  4
ANSI_A_(8.50_x_11.00_Inches)
  6

 40
5.8
 41
17.8
 42
5.8
 43
17.8
 44
215.9
 45
279.4
 46
0.0
 47
0.0
 48
0.0
 49
0.0
140
0.0
141
0.0
142
1.0
143
14.53
 70
11952
 72
0
 73
1
 74
0
  7

 75
0
147
0.069
148
114.98
149
300.29
100
AcDbLayout
  1
Model
 70
1
 71
0
 10
0.0
 20
0.0
 11
12.0
 21
9.0
 12
0.0
 22
0.0
 32
0.0
 14
0.0
 24
0.0
 34
0.0
 15
0.0
 25
0.0
 35
0.0
146
0.0
 13
0.0
 23
0.0
 33
0.0
 16
1.0
 26
0.0
 36
0.0
 17
0.0
 27
1.0
 37
0.0
 76
0
330
1F
  0
LAYOUT
  5
4E0
330
4D5
100
AcDbPlotSettings
  1

  2
DWFx ePlot (XPS Compatible).pc3
  4
ANSI_A_(8.50_x_11.00_Inches)
  6

 40
5.8
 41
17.8
 42
5.8
 43
17.8
 44
215.9
 45
279.4
 46
0.0
 47
0.0
 48
0.0
 49
0.0
140
0.0
141
0.0
142
1.0
143
1.0
 70
688
 72
0
 73
1
 74
5
  7
acad.ctb
 75
16
147
1.0
148
0.0
149
0.0
100
AcDbLayout
  1
Layout1
 70
1
 71
1
 10
-0.7
 20
-0.23
 11
10.3
 21
8.27
 12
0.0
 22
0.0
 32
0.0
 14
0.63
 24
0.8
 34
0.0
 15
9.0
 25
7.2
 35
0.0
146
0.0
 13
0.0
 23
0.0
 33
0.0
 16
1.0
 26
0.0
 36
0.0
 17
0.0
 27
1.0
 37
0.0
 76
0
330
58
  0
ENDSEC
  0
EOF
